<svg width="19" height="19" viewBox="0 0 19 19" fill="none" xmlns="http://www.w3.org/2000/svg">
<path d="M15.7794 5.83333H16.6625C16.9624 5.83333 17.2401 5.90833 17.4956 6.05833C17.7511 6.20833 17.9538 6.41111 18.1038 6.66667C18.2538 6.92222 18.3288 7.2 18.3288 7.5V10.8333C18.3288 11.1333 18.2538 11.4111 18.1038 11.6667C17.9538 11.9222 17.7511 12.125 17.4956 12.275C17.2401 12.425 16.9624 12.5 16.6625 12.5H15.7794C15.6461 13.5889 15.2684 14.5778 14.6463 15.4667C14.0243 16.3556 13.2411 17.05 12.2969 17.55C11.3194 18.0722 10.2752 18.3333 9.16438 18.3333V16.6667C10.0642 16.6667 10.9028 16.4389 11.6804 15.9833C12.4358 15.5389 13.0356 14.9389 13.48 14.1833C13.9354 13.4056 14.1631 12.5667 14.1631 11.6667V6.66667C14.1631 5.76667 13.9354 4.92778 13.48 4.15C13.0356 3.39444 12.4358 2.79444 11.6804 2.35C10.9028 1.89444 10.0642 1.66667 9.16438 1.66667C8.2646 1.66667 7.42592 1.89444 6.64834 2.35C5.89297 2.79444 5.29312 3.39444 4.84879 4.15C4.39335 4.92778 4.16563 5.76667 4.16563 6.66667V12.5H1.66625C1.36633 12.5 1.08862 12.425 0.833125 12.275C0.577633 12.125 0.374906 11.9222 0.224944 11.6667C0.0749813 11.4111 0 11.1333 0 10.8333V7.5C0 7.2 0.0749813 6.92222 0.224944 6.66667C0.374906 6.41111 0.577633 6.20833 0.833125 6.05833C1.08862 5.90833 1.36633 5.83333 1.66625 5.83333H2.54936C2.68266 4.74444 3.06035 3.75556 3.68241 2.86667C4.30448 1.97778 5.08762 1.28333 6.03183 0.783333C7.00936 0.26111 8.05354 0 9.16438 0C10.2752 0 11.3194 0.26111 12.2969 0.783333C13.2411 1.28333 14.0243 1.97778 14.6463 2.86667C15.2684 3.75556 15.6461 4.74444 15.7794 5.83333ZM1.66625 7.5V10.8333H2.49938V7.5H1.66625ZM15.8294 7.5V10.8333H16.6625V7.5H15.8294ZM5.63193 12.3167L6.51504 10.9C7.32595 11.4111 8.20906 11.6667 9.16438 11.6667C10.1197 11.6667 11.0028 11.4111 11.8137 10.9L12.6968 12.3167C12.1747 12.65 11.6138 12.9028 11.0139 13.075C10.4141 13.2472 9.79755 13.3333 9.16438 13.3333C8.5312 13.3333 7.91469 13.2472 7.31484 13.075C6.71499 12.9028 6.15402 12.65 5.63193 12.3167Z" fill="#0052CC"/>
</svg>
