<svg width="19" height="15" viewBox="0 0 19 15" fill="none" xmlns="http://www.w3.org/2000/svg">
<path d="M15.8294 2.5H18.3288V4.16667H17.4956V13.3333H18.3288V15H0V13.3333H0.833125V4.16667H0V2.5H2.49938V0.833333C2.49938 0.599999 2.57991 0.402777 2.74098 0.241666C2.90205 0.080555 3.09923 -9.53674e-07 3.3325 -9.53674e-07H14.9963C15.2295 -9.53674e-07 15.4267 0.080555 15.5878 0.241666C15.7488 0.402777 15.8294 0.599999 15.8294 0.833333V2.5ZM15.8294 4.16667H2.49938V13.3333H4.99875V7.5H6.665V13.3333H8.33125V7.5H9.9975V13.3333H11.6638V7.5H13.33V13.3333H15.8294V4.16667ZM4.16563 1.66667V2.5H14.1631V1.66667H4.16563Z" fill="#0052CC"/>
</svg>
