<svg width="17" height="17" viewBox="0 0 17 17" fill="none" xmlns="http://www.w3.org/2000/svg">
<path d="M8.33125 16.6667C7.1982 16.6667 6.11514 16.4501 5.08206 16.0167C4.09342 15.5945 3.21309 14.9973 2.44106 14.2251C1.66903 13.4529 1.07195 12.5723 0.649838 11.5834C0.216613 10.5501 0 9.46675 0 8.33342C0 7.20008 0.216613 6.11675 0.649838 5.08342C1.07195 4.09453 1.66903 3.21397 2.44106 2.44175C3.21309 1.66953 4.09342 1.0723 5.08206 0.650082C6.11514 0.216749 7.1982 8.2016e-05 8.33125 8.2016e-05C9.4643 8.2016e-05 10.5474 0.216749 11.5804 0.650082C12.5691 1.0723 13.4494 1.66953 14.2214 2.44175C14.9935 3.21397 15.5905 4.09453 16.0127 5.08342C16.4459 6.11675 16.6625 7.20008 16.6625 8.33342C16.6625 9.46675 16.4459 10.5501 16.0127 11.5834C15.5905 12.5723 14.9935 13.4529 14.2214 14.2251C13.4494 14.9973 12.5691 15.5945 11.5804 16.0167C10.5474 16.4501 9.4643 16.6667 8.33125 16.6667ZM6.43173 14.7167C5.5986 12.9612 5.1265 11.1112 5.01541 9.16675H1.71624C1.82732 10.0334 2.0967 10.8445 2.52437 11.6001C2.95204 12.3556 3.5019 13.0029 4.17396 13.5417C4.84601 14.0806 5.5986 14.4723 6.43173 14.7167ZM6.69833 9.16675C6.82052 11.1667 7.36483 13.0445 8.33125 14.8001C9.29768 13.0445 9.84198 11.1667 9.96418 9.16675H6.69833ZM14.9463 9.16675H11.6471C11.536 11.1112 11.0695 12.9612 10.2474 14.7167C11.0695 14.4723 11.8165 14.0806 12.4885 13.5417C13.1606 13.0029 13.7105 12.3556 14.1381 11.6001C14.5658 10.8445 14.8352 10.0334 14.9463 9.16675ZM1.71624 7.50008H5.01541C5.1265 5.55564 5.5986 3.70564 6.43173 1.95008C5.5986 2.19453 4.84601 2.58619 4.17396 3.12508C3.5019 3.66397 2.95204 4.31119 2.52437 5.06675C2.0967 5.8223 1.82732 6.63342 1.71624 7.50008ZM6.69833 7.50008H9.96418C9.84198 5.50008 9.29768 3.6223 8.33125 1.86675C7.36483 3.6223 6.82052 5.50008 6.69833 7.50008ZM10.2474 1.95008C11.0695 3.70564 11.536 5.55564 11.6471 7.50008H14.9463C14.8352 6.63342 14.5658 5.8223 14.1381 5.06675C13.7105 4.31119 13.1606 3.66397 12.4885 3.12508C11.8165 2.58619 11.0695 2.19453 10.2474 1.95008Z" fill="#0052CC"/>
</svg>
