<svg width="17" height="17" viewBox="0 0 17 17" fill="none" xmlns="http://www.w3.org/2000/svg">
<path d="M8.33125 16.6667C7.1982 16.6667 6.11514 16.4501 5.08206 16.0167C4.09342 15.5945 3.21309 14.9973 2.44106 14.2251C1.66903 13.4529 1.07195 12.5723 0.649838 11.5834C0.216613 10.5501 0 9.46675 0 8.33342C0 7.20008 0.216613 6.11675 0.649838 5.08342C1.07195 4.09453 1.66903 3.21397 2.44106 2.44175C3.21309 1.66953 4.09342 1.0723 5.08206 0.650082C6.11514 0.216749 7.1982 8.2016e-05 8.33125 8.2016e-05C9.4643 8.2016e-05 10.5474 0.216749 11.5804 0.650082C12.5691 1.0723 13.4494 1.66953 14.2214 2.44175C14.9935 3.21397 15.5905 4.09453 16.0127 5.08342C16.4459 6.11675 16.6625 7.20008 16.6625 8.33342C16.6625 9.46675 16.4459 10.5501 16.0127 11.5834C15.5905 12.5723 14.9935 13.4529 14.2214 14.2251C13.4494 14.9973 12.5691 15.5945 11.5804 16.0167C10.5474 16.4501 9.4643 16.6667 8.33125 16.6667ZM8.33125 15.0001C9.54206 15.0001 10.664 14.6945 11.6971 14.0834C12.6968 13.4945 13.4911 12.7001 14.0798 11.7001C14.6908 10.6667 14.9963 9.54453 14.9963 8.33342C14.9963 7.1223 14.6908 6.00008 14.0798 4.96675C13.4911 3.96675 12.6968 3.1723 11.6971 2.58342C10.664 1.9723 9.54206 1.66675 8.33125 1.66675C7.12044 1.66675 5.9985 1.9723 4.96543 2.58342C3.96568 3.1723 3.17143 3.96675 2.58269 4.96675C1.97173 6.00008 1.66625 7.1223 1.66625 8.33342C1.66625 9.54453 1.97173 10.6667 2.58269 11.7001C3.17143 12.7001 3.96568 13.4945 4.96543 14.0834C5.9985 14.6945 7.12044 15.0001 8.33125 15.0001Z" fill="#0052CC"/>
</svg>
