<svg width="33" height="33" viewBox="0 0 33 33" fill="none" xmlns="http://www.w3.org/2000/svg">
<path d="M4.83334 11.4729V24.8243M12.3333 11.4729V24.8243M20.6667 11.4729V24.8243M28.1667 11.4729V24.8243M1.50001 27.4946L1.50001 28.8297C1.50001 29.7644 1.50001 30.2317 1.68166 30.5887C1.84145 30.9028 2.09642 31.1581 2.41002 31.3181C2.76654 31.5 3.23325 31.5 4.16667 31.5H28.8333C29.7668 31.5 30.2335 31.5 30.59 31.3181C30.9036 31.1581 31.1586 30.9028 31.3183 30.5887C31.5 30.2317 31.5 29.7644 31.5 28.8297V27.4946C31.5 26.5599 31.5 26.0925 31.3183 25.7355C31.1586 25.4215 30.9036 25.1662 30.59 25.0062C30.2335 24.8243 29.7668 24.8243 28.8333 24.8243H4.16667C3.23325 24.8243 2.76654 24.8243 2.41002 25.0062C2.09642 25.1662 1.84145 25.4215 1.68166 25.7355C1.50001 26.0925 1.50001 26.5599 1.50001 27.4946ZM15.9215 1.58801L3.58819 4.33247C2.84309 4.49828 2.47054 4.58118 2.19245 4.7818C1.94716 4.95875 1.75455 5.19918 1.63526 5.47734C1.50001 5.7927 1.50001 6.17486 1.50001 6.93917L1.50001 8.80257C1.50001 9.73726 1.50001 10.2046 1.68166 10.5616C1.84145 10.8756 2.09642 11.131 2.41002 11.291C2.76654 11.4729 3.23325 11.4729 4.16667 11.4729H28.8333C29.7668 11.4729 30.2335 11.4729 30.59 11.291C30.9036 11.131 31.1586 10.8756 31.3183 10.5616C31.5 10.2046 31.5 9.73726 31.5 8.80257V6.93917C31.5 6.17486 31.5 5.7927 31.3648 5.47735C31.2455 5.19918 31.0529 4.95875 30.8076 4.7818C30.5295 4.58118 30.1569 4.49828 29.4118 4.33248L17.0785 1.58801C16.8626 1.53998 16.7547 1.51596 16.6456 1.50638C16.5487 1.49787 16.4513 1.49787 16.3544 1.50638C16.2453 1.51596 16.1374 1.53998 15.9215 1.58801Z" stroke="#0052CC" stroke-width="3" stroke-linecap="round" stroke-linejoin="round"/>
</svg>
