<svg width="33" height="30" viewBox="0 0 33 30" fill="none" xmlns="http://www.w3.org/2000/svg">
<path d="M16.5 28.5L16.3499 28.2749C15.308 26.7119 14.787 25.9305 14.0987 25.3647C13.4893 24.8639 12.7871 24.4881 12.0324 24.2589C11.1799 24 10.2407 24 8.36224 24H6.3C4.61984 24 3.77976 24 3.13803 23.673C2.57354 23.3854 2.1146 22.9265 1.82698 22.362C1.5 21.7202 1.5 20.8802 1.5 19.2V6.3C1.5 4.61984 1.5 3.77976 1.82698 3.13803C2.1146 2.57354 2.57354 2.1146 3.13803 1.82698C3.77976 1.5 4.61984 1.5 6.3 1.5H6.9C10.2603 1.5 11.9405 1.5 13.2239 2.15396C14.3529 2.7292 15.2708 3.64708 15.846 4.77606C16.5 6.05953 16.5 7.73969 16.5 11.1M16.5 28.5V11.1M16.5 28.5L16.6501 28.2749C17.692 26.7119 18.213 25.9305 18.9013 25.3647C19.5107 24.8639 20.2129 24.4881 20.9676 24.2589C21.8201 24 22.7593 24 24.6378 24H26.7C28.3802 24 29.2202 24 29.862 23.673C30.4265 23.3854 30.8854 22.9265 31.173 22.362C31.5 21.7202 31.5 20.8802 31.5 19.2V6.3C31.5 4.61984 31.5 3.77976 31.173 3.13803C30.8854 2.57354 30.4265 2.1146 29.862 1.82698C29.2202 1.5 28.3802 1.5 26.7 1.5H26.1C22.7397 1.5 21.0595 1.5 19.7761 2.15396C18.6471 2.7292 17.7292 3.64708 17.154 4.77606C16.5 6.05953 16.5 7.73969 16.5 11.1" stroke="#0052CC" stroke-width="3" stroke-linecap="round" stroke-linejoin="round"/>
<line x1="20.5098" y1="7.2998" x2="27.5098" y2="7.2998" stroke="#0052CC" stroke-width="2"/>
<line x1="20.5098" y1="12.2998" x2="27.5098" y2="12.2998" stroke="#0052CC" stroke-width="2"/>
<line x1="20.5098" y1="17.2998" x2="27.5098" y2="17.2998" stroke="#0052CC" stroke-width="2"/>
<line x1="5.50977" y1="7.2998" x2="12.5098" y2="7.2998" stroke="#0052CC" stroke-width="2"/>
<line x1="5.50977" y1="12.2998" x2="12.5098" y2="12.2998" stroke="#0052CC" stroke-width="2"/>
<line x1="5.50977" y1="17.2998" x2="12.5098" y2="17.2998" stroke="#0052CC" stroke-width="2"/>
</svg>
