<svg width="33" height="33" viewBox="0 0 33 33" fill="none" xmlns="http://www.w3.org/2000/svg">
<path d="M1.5 6.3C1.5 4.61984 1.5 3.77976 1.82698 3.13803C2.1146 2.57354 2.57354 2.1146 3.13803 1.82698C3.77976 1.5 4.61984 1.5 6.3 1.5H17.7C19.3802 1.5 20.2202 1.5 20.862 1.82698C21.4265 2.1146 21.8854 2.57354 22.173 3.13803C22.5 3.77976 22.5 4.61984 22.5 6.3V17.7C22.5 19.3802 22.5 20.2202 22.173 20.862C21.8854 21.4265 21.4265 21.8854 20.862 22.173C20.2202 22.5 19.3802 22.5 17.7 22.5H6.3C4.61984 22.5 3.77976 22.5 3.13803 22.173C2.57354 21.8854 2.1146 21.4265 1.82698 20.862C1.5 20.2202 1.5 19.3802 1.5 17.7V6.3Z" stroke="#0052CC" stroke-width="3" stroke-linecap="round" stroke-linejoin="round"/>
<path d="M10.5 15.3C10.5 13.6198 10.5 12.7798 10.827 12.138C11.1146 11.5735 11.5735 11.1146 12.138 10.827C12.7798 10.5 13.6198 10.5 15.3 10.5H26.7C28.3802 10.5 29.2202 10.5 29.862 10.827C30.4265 11.1146 30.8854 11.5735 31.173 12.138C31.5 12.7798 31.5 13.6198 31.5 15.3V26.7C31.5 28.3802 31.5 29.2202 31.173 29.862C30.8854 30.4265 30.4265 30.8854 29.862 31.173C29.2202 31.5 28.3802 31.5 26.7 31.5H15.3C13.6198 31.5 12.7798 31.5 12.138 31.173C11.5735 30.8854 11.1146 30.4265 10.827 29.862C10.5 29.2202 10.5 28.3802 10.5 26.7V15.3Z" stroke="#0052CC" stroke-width="3" stroke-linecap="round" stroke-linejoin="round"/>
</svg>
