<svg width="33" height="27" viewBox="0 0 33 27" fill="none" xmlns="http://www.w3.org/2000/svg">
<path d="M19.5 6H23.0059C23.3728 6 23.5562 6 23.7288 6.04145C23.8819 6.07819 24.0282 6.1388 24.1624 6.22104C24.3138 6.3138 24.4435 6.44352 24.7029 6.70294L30.7971 12.7971C31.0565 13.0565 31.1862 13.1862 31.279 13.3376C31.3612 13.4718 31.4218 13.6181 31.4586 13.7712C31.5 13.9438 31.5 14.1272 31.5 14.4941V18.75C31.5 19.4489 31.5 19.7984 31.3858 20.074C31.2336 20.4416 30.9416 20.7336 30.574 20.8858C30.2984 21 29.9489 21 29.25 21M21.75 21H19.5M19.5 21V6.3C19.5 4.61984 19.5 3.77976 19.173 3.13803C18.8854 2.57354 18.4265 2.1146 17.862 1.82698C17.2202 1.5 16.3802 1.5 14.7 1.5H6.3C4.61984 1.5 3.77976 1.5 3.13803 1.82698C2.57354 2.1146 2.1146 2.57354 1.82698 3.13803C1.5 3.77976 1.5 4.61984 1.5 6.3V18C1.5 19.6569 2.84315 21 4.5 21M19.5 21H13.5M13.5 21C13.5 23.4853 11.4853 25.5 9 25.5C6.51472 25.5 4.5 23.4853 4.5 21M13.5 21C13.5 18.5147 11.4853 16.5 9 16.5C6.51472 16.5 4.5 18.5147 4.5 21M29.25 21.75C29.25 23.8211 27.5711 25.5 25.5 25.5C23.4289 25.5 21.75 23.8211 21.75 21.75C21.75 19.6789 23.4289 18 25.5 18C27.5711 18 29.25 19.6789 29.25 21.75Z" stroke="#0052CC" stroke-width="3" stroke-linecap="round" stroke-linejoin="round"/>
</svg>
