<svg width="284" height="70" viewBox="0 0 284 70" fill="none" xmlns="http://www.w3.org/2000/svg">
<path d="M25.8411 1.50463L25.7626 1.51849L25.7103 1.52915C25.532 1.58313 25.6187 1.56568 25.5402 1.58313C23.4205 2.20245 20.6118 3.30151 19.0592 4.11272C15.1165 6.18002 11.3832 9.15447 8.62677 12.4081C4.1869 17.6679 1.61369 23.4249 0.610574 30.3507C0.366338 32.0691 0.348892 32.3046 0.348892 35C0.348892 37.6953 0.366338 37.9308 0.610574 39.6492C1.17755 43.557 2.24173 47.0722 3.89905 50.4479C5.69593 54.1376 8.77506 58.185 11.7582 60.8018C15.0467 63.6803 18.1171 65.6255 21.5015 66.995C24.7464 68.3121 27.3632 69.0099 30.6604 69.4548C32.0473 69.6467 32.5533 69.6729 34.9869 69.6729C37.8654 69.6729 38.6505 69.6031 41.2586 69.1495C45.0704 68.4691 49.4841 66.8205 52.7726 64.8317C55.2324 63.3489 58.1458 61.0199 60.0124 59.0486C65.1589 53.623 68.2554 47.1943 69.3458 39.6492C69.59 37.9308 69.6075 37.6953 69.6075 35C69.6075 32.3046 69.59 32.0691 69.3458 30.3507C68.7788 26.4429 67.7146 22.9277 66.0573 19.552C64.2604 15.8623 61.1813 11.8149 58.1981 9.19808C54.9096 6.31958 51.8392 4.3744 48.4548 3.00494C45.2274 1.69653 42.7938 1.04232 39.3134 0.54512C37.909 0.344498 37.4991 0.327057 34.9782 0.327057C32.466 0.327057 32.0386 0.344498 30.643 0.54512C29.1165 0.763191 27.4505 1.07721 26.5346 1.32145C26.2903 1.39123 25.8738 1.34108 25.8738 1.40649C25.8084 1.34108 25.7713 1.92332 25.8411 1.50463C25.9109 1.07721 26.6872 1.38818 26.7134 1.30096C26.7657 1.13522 26.3296 1.37379 25.8411 1.50463ZM37.7695 1.85353C39.8542 2.05415 41.8691 2.42051 41.8691 2.59497C41.8691 2.84792 40.1682 3.74637 38.8947 4.16506C37.4642 4.62737 36.2604 4.81054 34.5857 4.81054C32.9283 4.81054 31.7857 4.63609 30.4424 4.17378C28.9682 3.67658 27.529 2.89153 27.5813 2.61241C27.6075 2.4554 27.7121 2.42924 29.3084 2.15884C31.7682 1.73142 35.2573 1.60057 37.7695 1.85353ZM45.1315 3.44108C47.3034 4.11272 49.58 5.15073 51.4205 6.30214C53.0953 7.34886 53.8193 7.84606 53.8193 7.95945C53.8193 8.08157 50.9931 9.74762 50.7925 9.74762C50.7314 9.74762 50.0685 9.17191 49.3271 8.47409C47.504 6.73827 45.7508 5.39497 43.8579 4.26101C42.942 3.71148 42.9159 3.63297 43.4829 3.23173C43.7794 3.01366 43.762 3.01366 45.1315 3.44108ZM26.0984 3.38001C26.2729 3.51958 26.4037 3.70276 26.395 3.77254C26.3863 3.84232 26.1071 4.06911 25.767 4.26973C23.909 5.38625 21.2399 7.44481 19.757 8.89279C19.19 9.45104 18.7277 9.83484 18.623 9.83484C18.5271 9.83484 18.152 9.66039 17.7944 9.45104C17.4367 9.23297 16.8174 8.88406 16.4336 8.65727C15.509 8.14263 15.4654 8.09029 15.7707 7.81117C16.0237 7.56693 17.6025 6.51147 18.2305 6.15384C19.6698 5.33391 22.1732 4.19123 23.7695 3.63297C24.1533 3.50213 24.6243 3.32767 24.8162 3.2579C25.3744 3.04855 25.7321 3.08344 26.0984 3.38001ZM29.1514 5.14201C29.5003 5.28157 29.6573 5.39497 29.6573 5.49964C29.6573 5.58687 29.4305 5.95322 29.1514 6.3283C28.4885 7.20057 27.7383 8.31709 27.7383 8.4392C27.7383 8.48281 27.7034 8.52643 27.6511 8.52643C27.6075 8.52643 27.5638 8.58749 27.5638 8.65727C27.5638 8.72705 27.529 8.78812 27.4766 8.78812C27.433 8.78812 27.3894 8.84917 27.3894 8.91896C27.3894 8.98874 27.3545 9.0498 27.3022 9.0498C27.2586 9.0498 27.1975 9.14575 27.1626 9.26786C27.1364 9.38998 27.0754 9.48593 27.0405 9.48593C26.9969 9.48593 26.9358 9.57316 26.9009 9.67783C26.866 9.79123 26.805 9.90462 26.7614 9.93079C26.7177 9.95696 26.6741 10.0355 26.6567 10.1052C26.648 10.175 26.3688 10.7071 26.0374 11.2915C25.6536 11.9806 25.3832 12.3644 25.2872 12.3644C25.0779 12.3644 22.1732 11.3962 21.0916 10.9688C20.5682 10.7595 20.1495 10.5501 20.1495 10.489C20.1495 10.271 22.5308 8.20369 24.1184 7.04356C24.5981 6.68593 25.0081 6.37191 25.0343 6.33702C25.104 6.2498 26.0286 5.66537 26.9881 5.10712L27.8517 4.60992L28.2529 4.77565C28.471 4.86288 28.881 5.02861 29.1514 5.14201ZM42.2878 4.94138C43.1339 5.3688 45.2012 6.75571 46.405 7.69777C47.4953 8.5526 49.0829 9.97441 49.266 10.2448C49.3881 10.4367 49.3707 10.4542 48.795 10.7158C47.4081 11.3352 44.6081 12.2772 44.1283 12.2772C44.0324 12.2772 43.823 12.0155 43.5614 11.5532C43.3258 11.1607 42.8199 10.3233 42.4274 9.68655C42.0349 9.05852 41.7383 8.51771 41.7645 8.49154C41.7906 8.46537 41.7645 8.4392 41.7121 8.4392C41.6511 8.4392 41.6075 8.37814 41.6075 8.30836C41.6075 8.23858 41.5726 8.17752 41.5202 8.17752C41.4766 8.17752 41.433 8.11646 41.433 8.04668C41.433 7.9769 41.3981 7.91584 41.3458 7.91584C41.3022 7.91584 41.2586 7.85478 41.2586 7.785C41.2586 7.71521 41.2237 7.65416 41.1713 7.65416C41.1277 7.65416 41.0841 7.5931 41.0841 7.52332C41.0841 7.45353 41.0492 7.39248 40.9969 7.39248C40.9533 7.39248 40.9096 7.33141 40.9096 7.26163C40.9096 7.19185 40.8747 7.13079 40.8224 7.13079C40.7788 7.13079 40.7352 7.07846 40.7352 7.00867C40.7352 6.93889 40.709 6.86911 40.6741 6.85167C40.5695 6.80805 39.6885 5.49964 39.6885 5.39497C39.6885 5.34263 39.7234 5.29902 39.767 5.29902C39.8193 5.29902 40.1769 5.14201 40.5782 4.95011C40.9794 4.76693 41.3719 4.60992 41.4592 4.6012C41.5551 4.6012 41.9215 4.74948 42.2878 4.94138ZM32.6928 6.07534C33.3732 6.16257 33.9576 6.25852 34.0012 6.29341C34.0361 6.3283 34.071 7.95945 34.0885 9.92207L34.1146 13.4809L33.7919 13.542C33.1638 13.6554 30.0673 13.385 28.2878 13.0623C26.8922 12.8006 26.866 12.7919 26.866 12.6087C26.866 11.9981 30.9483 5.90089 31.3408 5.90961C31.4019 5.91833 32.0037 5.98811 32.6928 6.07534ZM38.8424 6.8255C39.985 8.29092 41.9825 11.3439 41.9825 11.6317C41.9825 11.6928 42.0436 11.7713 42.1047 11.7887C42.1744 11.8149 42.2006 11.876 42.1744 11.9283C42.1483 11.9719 42.1657 12.0155 42.2181 12.0155C42.2704 12.0155 42.2878 12.0504 42.2617 12.1028C42.2355 12.1464 42.2529 12.19 42.3053 12.19C42.3576 12.19 42.3751 12.2249 42.3489 12.2772C42.3227 12.3208 42.3402 12.3644 42.3925 12.3644C42.4448 12.3644 42.471 12.3993 42.4448 12.4429C42.41 12.4866 42.4448 12.5389 42.4972 12.5563C43.0991 12.757 39.261 13.4024 36.5832 13.5507L35.519 13.6031L35.4579 12.5302C35.3969 11.3613 35.4318 6.38936 35.5015 6.31958C35.5626 6.25852 37.7695 5.92706 37.9875 5.93578C38.0922 5.9445 38.4149 6.28469 38.8424 6.8255ZM56.1395 9.66911C56.6106 10.0616 57.5701 10.9514 58.2505 11.6579C59.4978 12.9227 59.5065 12.9314 59.2274 12.9576C59.0355 12.975 58.9047 12.9314 58.8 12.8093C58.6953 12.6872 58.5383 12.6261 58.329 12.6261C58.1632 12.6261 58.0062 12.5825 57.9888 12.5214C57.9626 12.4517 57.6573 12.4081 57.1252 12.3819C56.4448 12.3557 56.2704 12.3732 56.157 12.4866C56.0785 12.5651 55.9128 12.6261 55.7906 12.6261C55.6249 12.6261 55.5639 12.6697 55.5639 12.8006C55.5639 12.9052 55.5028 12.975 55.4243 12.975C55.1626 12.975 55.0405 13.2105 55.0405 13.7077C55.0405 14.1003 55.0143 14.1962 54.9009 14.1962C54.8224 14.1962 54.648 14.3096 54.5171 14.4579C54.3863 14.5975 54.2293 14.7196 54.1769 14.7196C54.0286 14.7196 53.6448 15.1295 53.6448 15.2866C53.6448 15.3912 53.5314 15.4174 53.1215 15.4174C52.6156 15.4174 52.5981 15.4087 52.5981 15.1993C52.5981 14.9202 52.066 14.3707 51.8131 14.3707C51.7084 14.3707 51.5688 14.423 51.4991 14.4928C51.3595 14.6323 51.3333 15.2429 51.4642 15.2429C51.5165 15.2429 51.5514 15.4 51.5514 15.5919C51.5514 15.7838 51.595 15.9408 51.6386 15.9408C51.691 15.9408 51.7258 16.0542 51.7258 16.2024C51.7258 16.342 51.7695 16.4641 51.8131 16.4641C51.8654 16.4641 51.9003 16.9875 51.9003 17.8598C51.9003 18.732 51.8654 19.2554 51.8131 19.2554C51.7695 19.2554 51.7258 19.3165 51.7258 19.395C51.7258 19.4647 51.5688 19.6828 51.3769 19.866C51.185 20.0492 51.028 20.2672 51.028 20.337C51.028 20.433 50.9495 20.4766 50.7663 20.4766C50.6268 20.4766 50.5047 20.5115 50.5047 20.5638C50.5047 20.6074 50.4262 20.651 50.3302 20.651C50.2343 20.651 50.1557 20.6859 50.1557 20.7383C50.1557 20.7819 50.0947 20.8255 50.0249 20.8255C49.8679 20.8255 49.4579 21.2093 49.4579 21.3489C49.4579 21.4797 48.8735 22.0467 48.7427 22.0467C48.6729 22.0467 48.5682 21.9682 48.4984 21.8722C48.2891 21.5844 48.0012 21.6542 47.5389 22.1339C47.129 22.5526 47.0941 22.57 46.6318 22.57C46.248 22.57 46.1433 22.5962 46.1433 22.7096C46.1433 22.8841 45.9339 23.0934 45.7595 23.0934C45.681 23.0934 45.6199 23.1632 45.6199 23.2504C45.6199 23.3376 45.5414 23.4598 45.4455 23.5295C45.3146 23.6255 45.271 23.7563 45.271 24.0704C45.271 24.4716 45.2797 24.489 45.524 24.489C45.6635 24.489 45.7944 24.5414 45.8205 24.6112C45.8816 24.7595 45.8118 24.838 45.6461 24.838C45.4804 24.838 45.271 25.056 45.271 25.2218C45.271 25.3003 45.2361 25.3613 45.1838 25.3613C45.1402 25.3613 45.0966 25.4224 45.0966 25.5009C45.0966 25.6579 44.8872 25.8847 44.7476 25.8847C44.6866 25.8847 44.5296 25.7626 44.3987 25.623C44.2156 25.4224 44.076 25.3613 43.8405 25.3613C43.666 25.3613 43.5265 25.3962 43.5265 25.4485C43.5265 25.4922 43.3346 25.5358 43.0903 25.5358C42.8548 25.5358 42.6542 25.5707 42.6542 25.623C42.6542 25.6666 42.5408 25.7102 42.3925 25.7102C42.2529 25.7102 42.1308 25.7451 42.1308 25.7975C42.1308 25.8411 41.9738 25.8847 41.7819 25.8847C41.59 25.8847 41.433 25.9196 41.433 25.9719C41.433 26.0155 41.3545 26.0591 41.2586 26.0591C41.1626 26.0591 41.0841 26.0155 41.0841 25.9719C41.0841 25.9196 40.7352 25.8847 40.2118 25.8847H39.3396V25.623C39.3396 25.4747 39.3832 25.3613 39.4268 25.3613C39.4791 25.3613 39.514 25.2392 39.514 25.0996C39.514 24.9514 39.4791 24.838 39.4268 24.838C39.3832 24.838 39.3396 24.7595 39.3396 24.6635C39.3396 24.5676 39.3047 24.489 39.2523 24.489C39.2087 24.489 39.1651 24.4105 39.1651 24.3146C39.1651 24.2012 39.104 24.1401 39.0081 24.1401C38.9209 24.1401 38.7987 24.0616 38.729 23.9657C38.6417 23.8436 38.5022 23.7912 38.2754 23.7912C38.0922 23.7912 37.9439 23.7476 37.9439 23.704C37.9439 23.6517 37.8654 23.6168 37.7695 23.6168C37.6386 23.6168 37.595 23.5557 37.595 23.3725C37.595 23.233 37.5252 23.076 37.4205 23.0062C37.3246 22.9364 37.2461 22.8143 37.2461 22.7271C37.2461 22.6398 37.185 22.57 37.1152 22.57C37.0367 22.57 36.8797 22.4741 36.7663 22.352C36.5744 22.1688 36.5483 22.0641 36.5483 21.5669V21H36.1994C36.0075 21 35.8505 20.9563 35.8505 20.9127C35.8505 20.8604 35.6149 20.8255 35.3271 20.8255C35.0392 20.8255 34.8037 20.7906 34.8037 20.7383C34.8037 20.6859 34.4548 20.651 33.9314 20.651H33.0592V21C33.0592 21.3052 33.0853 21.3489 33.2598 21.3576C33.3645 21.3576 33.3994 21.3838 33.347 21.4099C33.286 21.4274 33.2336 21.5844 33.2336 21.7501C33.2336 21.9856 33.2685 22.0467 33.4081 22.0467C33.5389 22.0467 33.5825 22.1077 33.5825 22.2735C33.5825 22.5264 33.7657 22.7445 33.9663 22.7445C34.0448 22.7445 34.1059 22.8056 34.1059 22.8841C34.1059 23.0585 34.3153 23.2679 34.4897 23.2679C34.5682 23.2679 34.6293 23.3028 34.6293 23.3551C34.6293 23.3987 34.7339 23.4423 34.8561 23.4423C35.1526 23.4423 35.3271 23.6342 35.3271 23.9657C35.3271 24.2623 35.1614 24.489 34.9433 24.489C34.8648 24.489 34.8037 24.5239 34.8037 24.5763C34.8037 24.6199 34.7339 24.6635 34.6467 24.6635C34.5595 24.6635 34.4374 24.742 34.3676 24.838C34.2978 24.9339 34.1757 25.0124 34.0885 25.0124C34.0012 25.0124 33.9314 25.0735 33.9314 25.1433C33.9314 25.3264 33.5389 25.7102 33.3557 25.7102C33.2424 25.7102 33.2249 25.7626 33.2685 25.9719C33.2947 26.1376 33.2772 26.2336 33.2162 26.2336C33.1638 26.2336 33.1377 26.2074 33.1726 26.1813C33.1987 26.1464 33.033 25.937 32.7888 25.7015C32.5533 25.4747 32.3614 25.2392 32.3614 25.1869C32.3614 24.995 32.1084 24.838 31.8031 24.838C31.4978 24.838 31.4891 24.8467 31.4891 25.1869C31.4891 25.3788 31.4542 25.5358 31.4019 25.5358C31.3495 25.5358 31.3146 25.7887 31.3146 26.1115C31.3146 26.7046 31.2012 26.9314 30.9221 26.9314C30.8174 26.9314 30.7825 26.9925 30.8087 27.1669C30.8262 27.3676 30.8 27.4199 30.643 27.4373C30.5296 27.4548 30.4424 27.4286 30.4424 27.3763C30.4424 27.3239 30.3638 27.2803 30.2679 27.2803C30.1719 27.2803 30.0934 27.2367 30.0934 27.1931C30.0934 27.1408 30.0237 27.1059 29.9364 27.1059C29.8492 27.1059 29.7271 27.0274 29.6573 26.9314C29.5875 26.8355 29.4654 26.757 29.3782 26.757C29.291 26.757 29.2212 26.7133 29.2212 26.6697C29.2212 26.5127 28.7414 26.5738 28.6106 26.757C28.5408 26.8529 28.4187 26.9314 28.3314 26.9314C28.2442 26.9314 28.1744 26.9663 28.1744 27.0186C28.1744 27.0623 28.1047 27.1059 28.0174 27.1059C27.9302 27.1059 27.8081 27.1844 27.7383 27.2803C27.6685 27.3763 27.5464 27.4548 27.4592 27.4548C27.3719 27.4548 27.3022 27.4897 27.3022 27.542C27.3022 27.5856 27.2237 27.6292 27.1277 27.6292C27.0143 27.6292 26.9533 27.6903 26.9533 27.8037C26.9533 27.952 26.8922 27.9781 26.6043 27.9781H26.2554V28.5015C26.2554 29.1383 26.142 29.1732 25.671 28.7109C25.4006 28.4405 25.357 28.3358 25.3657 28.0305C25.3744 27.8386 25.4268 27.6554 25.4704 27.6467C25.5227 27.6292 25.5576 27.542 25.5576 27.4461C25.5576 27.3588 25.6012 27.2803 25.6448 27.2803C25.6972 27.2803 25.7321 27.2193 25.7321 27.1495C25.7321 26.9925 26.4648 26.2336 26.6131 26.2336C26.6654 26.2336 26.8224 26.1115 26.9533 25.9719C27.1888 25.719 27.2324 25.7102 27.9302 25.7102C28.5582 25.7102 28.6804 25.6841 28.785 25.5358C28.8548 25.4398 29.0031 25.3613 29.1078 25.3613C29.2386 25.3613 29.509 25.1607 29.8754 24.7943C30.3551 24.3146 30.4424 24.1838 30.4424 23.9221V23.6168H29.919C29.6311 23.6168 29.3956 23.5819 29.3956 23.5295C29.3956 23.4772 29.0205 23.4423 28.4361 23.4423C27.8517 23.4423 27.4766 23.4772 27.4766 23.5295C27.4766 23.5732 27.3196 23.6168 27.1277 23.6168C26.9358 23.6168 26.7788 23.6517 26.7788 23.704C26.7788 23.7476 26.6392 23.7912 26.4648 23.7912C26.2293 23.7912 26.0897 23.8523 25.9065 24.0529C25.7757 24.1925 25.61 24.3146 25.5402 24.3146C25.4791 24.3146 25.3657 24.3931 25.2959 24.489C25.2262 24.585 25.1215 24.6635 25.0517 24.6635C24.8947 24.6635 24.5109 25.0648 24.5109 25.2305C24.5109 25.3003 24.476 25.3613 24.4237 25.3613C24.38 25.3613 24.3364 25.4224 24.3364 25.5009C24.3364 25.5707 24.1794 25.7887 23.9875 25.9719C23.7956 26.1551 23.6386 26.3732 23.6386 26.4429C23.6386 26.5214 23.5688 26.5825 23.4642 26.5825C23.3071 26.5825 23.2897 26.6436 23.2897 27.2803V27.9781H22.4523H21.6149L21.2835 27.6292C20.9869 27.3239 20.8997 27.2803 20.5508 27.2803C20.3327 27.2803 20.1495 27.2367 20.1495 27.1931C20.1495 27.1408 19.8878 27.1059 19.5389 27.1059H18.9283V26.5825C18.9283 26.2947 18.8934 26.0591 18.8411 26.0591C18.7975 26.0591 18.7539 25.9806 18.7539 25.8847C18.7539 25.7713 18.6928 25.7102 18.5794 25.7102C18.4224 25.7102 18.405 25.6492 18.405 25.1869C18.405 24.7246 18.4224 24.6635 18.5794 24.6635C18.719 24.6635 18.7539 24.6024 18.7539 24.4018C18.7539 24.2012 18.719 24.1401 18.5794 24.1401C18.4835 24.1401 18.405 24.0965 18.405 24.0529C18.405 24.0006 18.3352 23.9657 18.248 23.9657C18.1607 23.9657 18.0386 23.8872 17.9688 23.7912C17.899 23.6953 17.7857 23.6168 17.7071 23.6168C17.6286 23.6168 17.5152 23.5383 17.4455 23.4423C17.2361 23.1545 16.8 23.2155 16.4424 23.5732C16.2766 23.7389 16.1371 23.9133 16.1371 23.9657C16.1371 24.1489 15.5352 24.6635 15.3084 24.6635C15.1863 24.6635 15.0903 24.6984 15.0903 24.7507C15.0903 24.7943 14.9333 24.838 14.7414 24.838C14.5495 24.838 14.3925 24.8728 14.3925 24.9252C14.3925 24.9688 14.2791 25.0124 14.1308 25.0124C13.9389 25.0124 13.8691 25.056 13.8691 25.1694C13.8691 25.2566 13.7906 25.3788 13.6947 25.4485C13.5987 25.5183 13.5202 25.623 13.5202 25.6928C13.5202 25.8498 13.119 26.2336 12.9533 26.2336C12.8835 26.2336 12.8224 26.2685 12.8224 26.3208C12.8224 26.3644 12.7439 26.4081 12.648 26.4081C12.552 26.4081 12.4735 26.4429 12.4735 26.4953C12.4735 26.5476 12.1944 26.5825 11.8106 26.5825C11.1825 26.5825 11.1302 26.6 10.9034 26.8442C10.7726 26.9838 10.6068 27.1059 10.5371 27.1059C10.476 27.1059 10.3626 27.1844 10.2928 27.2803C10.223 27.3763 10.1184 27.4548 10.0486 27.4548C9.89157 27.4548 9.68223 27.6729 9.68223 27.8386C9.68223 27.9171 9.61244 27.9781 9.50777 27.9781C9.41182 27.9781 9.33332 28.013 9.33332 28.0654C9.33332 28.109 9.25481 28.1526 9.15886 28.1526C9.06291 28.1526 8.98441 28.1875 8.98441 28.2398C8.98441 28.2834 8.91462 28.3271 8.8274 28.3271C8.74017 28.3271 8.61805 28.4056 8.54827 28.5015C8.47849 28.5975 8.35637 28.676 8.26914 28.676C8.18191 28.676 8.11213 28.7109 8.11213 28.7632C8.11213 28.8068 8.05107 28.8504 7.98129 28.8504C7.81556 28.8504 7.23986 29.4087 7.23986 29.5657C7.23986 29.6355 7.16135 29.7401 7.0654 29.8099C6.96945 29.8797 6.89095 30.0367 6.89095 30.1588C6.89095 30.2809 6.81244 30.438 6.71649 30.5077C6.58565 30.6037 6.54204 30.7345 6.54204 31.0485C6.54204 31.2753 6.50715 31.4672 6.45481 31.4672C6.4112 31.4672 6.36758 31.5283 6.36758 31.6068C6.36758 31.7725 6.15824 31.9906 6.00123 31.9906C5.93145 31.9906 5.82677 32.0691 5.75699 32.1651C5.68721 32.261 5.58254 32.3395 5.51276 32.3395C5.27724 32.3395 5.1464 32.5838 5.1464 33.0548C5.1464 33.4211 5.18129 33.552 5.32086 33.6479C5.41681 33.7177 5.49531 33.8398 5.49531 33.9271C5.49531 34.0317 5.56509 34.0841 5.69593 34.0928C5.80061 34.0928 5.8355 34.119 5.78316 34.1451C5.59998 34.2149 5.65232 34.433 5.84422 34.433C6.00995 34.433 6.01867 34.494 6.01867 35.4797C6.01867 36.1165 6.05357 36.5264 6.1059 36.5264C6.15824 36.5264 6.19313 36.6834 6.19313 36.8666C6.19313 37.0585 6.23674 37.2417 6.28036 37.2679C6.33269 37.294 6.36758 37.5557 6.36758 37.8436C6.36758 38.1314 6.40247 38.3582 6.45481 38.3582C6.50715 38.3582 6.54204 38.4542 6.54204 38.5763C6.54204 38.8816 5.66976 39.7538 5.36447 39.7538C5.24235 39.7538 5.1464 39.7887 5.1464 39.8411C5.1464 39.8847 5.0679 39.9283 4.97195 39.9283C4.876 39.9283 4.79749 39.9632 4.79749 40.0155C4.79749 40.0591 4.68409 40.1028 4.53581 40.1028C4.33519 40.1028 4.27413 40.1376 4.27413 40.2772C4.27413 40.6 3.89033 40.4953 3.61992 40.1028C3.48908 39.9109 3.31462 39.7538 3.24484 39.7538C3.14017 39.7538 3.14889 39.7102 3.29718 39.5532C3.45419 39.3875 3.48908 39.2479 3.48908 38.7856C3.48908 38.3233 3.46291 38.2099 3.31462 38.114C3.17506 38.0267 3.10528 38.0267 2.96571 38.114C2.82615 38.2012 2.75637 38.1925 2.55575 38.0442C2.41618 37.9395 2.22428 37.8348 2.11961 37.8C1.87537 37.7214 1.75325 37.9133 1.95388 38.0616C2.04983 38.1314 2.06727 38.1838 2.01494 38.2274C1.9626 38.2535 1.91899 38.3931 1.91899 38.5414C1.91899 38.7507 1.88409 38.7943 1.70964 38.7943C1.42179 38.7943 1.28223 38.9862 1.3869 39.2392C1.49157 39.5183 1.91026 39.9283 2.08472 39.9283C2.16322 39.9283 2.32023 40.0068 2.44235 40.1028C2.56447 40.1987 2.7302 40.2772 2.80871 40.2772C2.88721 40.2772 3.00933 40.3819 3.07911 40.5127C3.14017 40.6523 3.23612 40.7482 3.27973 40.7395C3.32335 40.7308 3.34952 41.3065 3.33207 42.1526L3.3059 43.5831L4.23051 44.499C4.73643 45.0049 5.1464 45.476 5.1464 45.537C5.1464 45.5981 5.22491 45.7028 5.32086 45.7725C5.41681 45.8423 5.49531 45.9644 5.49531 46.0517C5.49531 46.1389 5.55637 46.2087 5.62615 46.2087C5.80061 46.2087 6.19313 46.6012 6.19313 46.7757C6.19313 46.8454 6.23674 46.9065 6.28036 46.9065C6.33269 46.9065 6.36758 47.0461 6.36758 47.2205C6.36758 47.5869 6.53332 47.7788 6.83861 47.7788C7.00434 47.7788 7.0654 47.8224 7.0654 47.9532C7.0654 48.0928 7.12646 48.1277 7.32709 48.1277C7.47537 48.1277 7.58877 48.1626 7.58877 48.2149C7.58877 48.3457 8.01618 48.3196 8.16447 48.18C8.23425 48.1102 8.28659 47.9881 8.28659 47.9183C8.28659 47.8398 8.3302 47.7788 8.37381 47.7788C8.42615 47.7788 8.46104 47.7003 8.46104 47.6043C8.46104 47.4909 8.5221 47.4299 8.6355 47.4299C8.74889 47.4299 8.80995 47.3688 8.80995 47.2554C8.80995 47.1595 8.85357 47.0809 8.89718 47.0809C8.94952 47.0809 8.98441 47.0024 8.98441 46.9065C8.98441 46.8105 9.02802 46.732 9.07163 46.732C9.12397 46.732 9.15886 46.6535 9.15886 46.5576C9.15886 46.4616 9.20247 46.3831 9.24609 46.3831C9.29842 46.3831 9.33332 46.1476 9.33332 45.8598C9.33332 45.3975 9.35076 45.3364 9.50777 45.3364C9.60372 45.3364 9.68223 45.2928 9.68223 45.2492C9.68223 45.1968 9.76073 45.1619 9.85668 45.1619C9.95263 45.1619 10.0311 45.1183 10.0311 45.0747C10.0311 45.0224 10.0922 44.9875 10.1707 44.9875C10.3452 44.9875 10.5545 44.7781 10.5545 44.6037C10.5545 44.5252 10.5981 44.4641 10.6417 44.4641C10.6941 44.4641 10.729 44.342 10.729 44.2024C10.729 44.0542 10.7726 43.9408 10.8162 43.9408C10.8685 43.9408 10.9034 43.618 10.9034 43.1557C10.9034 42.4317 10.9121 42.3707 11.0779 42.3707C11.1913 42.3707 11.2523 42.3096 11.2523 42.1962C11.2523 42.0828 11.3134 42.0218 11.4268 42.0218C11.5227 42.0218 11.6012 41.9781 11.6012 41.9345C11.6012 41.8822 11.6797 41.8473 11.7757 41.8473C11.8716 41.8473 11.9501 41.8037 11.9501 41.7601C11.9501 41.7077 12.2554 41.6728 12.7003 41.6728C13.4243 41.6728 13.4592 41.6816 13.6947 41.9345C13.8255 42.0828 13.9825 42.1962 14.0349 42.1962C14.1657 42.1962 14.7414 42.7719 14.7414 42.894C14.7414 43.0423 14.9682 43.2429 15.1252 43.2429C15.2037 43.2429 15.2648 43.2778 15.2648 43.3302C15.2648 43.3738 15.3433 43.4174 15.4392 43.4174C15.5352 43.4174 15.6137 43.4523 15.6137 43.5046C15.6137 43.5482 15.6922 43.5919 15.7881 43.5919C15.8841 43.5919 15.9626 43.6267 15.9626 43.6791C15.9626 43.7227 16.0411 43.7663 16.1371 43.7663C16.233 43.7663 16.3115 43.8012 16.3115 43.8535C16.3115 43.8972 16.39 43.9408 16.486 43.9408C16.5819 43.9408 16.6604 43.9757 16.6604 44.028C16.6604 44.0716 16.7389 44.1152 16.8349 44.1152C16.9308 44.1152 17.0093 44.1501 17.0093 44.2024C17.0093 44.2461 17.0878 44.2897 17.1838 44.2897C17.2797 44.2897 17.3582 44.3246 17.3582 44.3769C17.3582 44.4205 17.5414 44.4641 17.7595 44.4641C18.1695 44.4641 18.405 44.3246 18.405 44.0803C18.405 43.9931 18.4835 43.9408 18.5881 43.9408C18.7277 43.9408 18.7626 43.8972 18.7364 43.6965C18.719 43.5046 18.7452 43.4523 18.9109 43.4348C19.033 43.4174 19.1028 43.3476 19.1028 43.2342C19.1028 43.147 19.1464 43.0685 19.19 43.0685C19.2423 43.0685 19.2772 43.0074 19.2772 42.9376C19.2772 42.7457 19.7308 42.3009 19.7832 42.4405C19.8006 42.5102 20.0187 42.5451 20.4199 42.5451C20.7601 42.5451 21.0218 42.58 21.0218 42.6324C21.0218 42.6847 21.3881 42.7196 21.9464 42.7196C22.9495 42.7196 23.1152 42.7894 23.1152 43.1906C23.1152 43.3389 23.1676 43.4174 23.2548 43.4174C23.3246 43.4174 23.5776 43.618 23.8131 43.8535C24.0486 44.0891 24.3015 44.2897 24.3713 44.2897C24.4498 44.2897 24.5109 44.3246 24.5109 44.3769C24.5109 44.4205 24.633 44.4641 24.7726 44.4641C24.9209 44.4641 25.0343 44.499 25.0343 44.5514C25.0343 44.6037 25.3832 44.6386 25.9065 44.6386C26.7177 44.6386 26.7788 44.6473 26.7788 44.813C26.7788 44.909 26.8224 44.9875 26.866 44.9875C26.9184 44.9875 26.9533 45.1445 26.9533 45.3364C26.9533 45.5283 26.9969 45.6853 27.0405 45.6853C27.0928 45.6853 27.1277 45.8423 27.1277 46.0342C27.1277 46.2261 27.1713 46.3831 27.2149 46.3831C27.2673 46.3831 27.3022 46.5227 27.3022 46.6971C27.3022 47.0286 27.4592 47.2554 27.686 47.2554C27.7645 47.2554 27.8255 47.2903 27.8255 47.3426C27.8255 47.3862 27.9825 47.4299 28.1744 47.4299C28.3663 47.4299 28.5233 47.4648 28.5233 47.5171C28.5233 47.5607 28.6455 47.6043 28.785 47.6043C28.9333 47.6043 29.0467 47.6392 29.0467 47.6915C29.0467 47.7352 29.1688 47.7788 29.3084 47.7788C29.509 47.7788 29.5701 47.8137 29.5701 47.9532C29.5701 48.0666 29.6311 48.1277 29.7445 48.1277C29.8405 48.1277 29.919 48.1626 29.919 48.2149C29.919 48.2585 29.9975 48.3021 30.0847 48.3021C30.1807 48.3021 30.2679 48.3545 30.2941 48.4068C30.3202 48.494 30.7564 48.5202 32.0997 48.5202C33.443 48.5202 33.8791 48.494 33.914 48.4068C33.9314 48.3545 34.0623 48.3021 34.2019 48.3021C34.3414 48.3021 34.4548 48.2585 34.4548 48.2149C34.4548 48.1626 34.5333 48.1277 34.6293 48.1277C34.7427 48.1277 34.8037 48.0666 34.8037 47.9532C34.8037 47.8137 34.8648 47.7788 35.0654 47.7788C35.2137 47.7788 35.3271 47.7352 35.3271 47.6915C35.3271 47.6392 35.4056 47.6043 35.4928 47.6043C35.5888 47.6043 35.6847 47.552 35.7109 47.4909C35.7545 47.4037 35.7719 47.4037 35.8156 47.4909C35.8417 47.552 35.9813 47.6043 36.1209 47.6043C36.2604 47.6043 36.3738 47.6392 36.3738 47.6915C36.3738 47.7352 36.4959 47.7788 36.6355 47.7788C36.8361 47.7788 36.8972 47.8137 36.8972 47.9532C36.8972 48.0928 36.9582 48.1277 37.1589 48.1277C37.3071 48.1277 37.4205 48.1626 37.4205 48.2149C37.4205 48.2585 37.5427 48.3021 37.6822 48.3021C37.8305 48.3021 37.9439 48.2585 37.9439 48.2149C37.9439 48.1626 38.2056 48.1277 38.5545 48.1277C39.104 48.1277 39.1651 48.1102 39.1651 47.9532C39.1651 47.8486 39.2262 47.7788 39.3047 47.7788C39.3832 47.7788 39.5576 47.6567 39.6885 47.5171C39.8193 47.3688 39.9763 47.2554 40.0374 47.2554C40.0897 47.2554 40.3252 47.4473 40.5607 47.6915C40.7962 47.9271 41.0492 48.1277 41.119 48.1277C41.1975 48.1277 41.2586 48.1626 41.2586 48.2149C41.2586 48.3457 41.686 48.3196 41.8343 48.18C41.904 48.1102 41.9564 47.9881 41.9564 47.9183C41.9564 47.8398 42.0262 47.7788 42.1134 47.7788C42.2006 47.7788 42.3227 47.7003 42.3925 47.6043C42.4623 47.5084 42.5757 47.4299 42.6367 47.4299C42.7065 47.4299 42.8723 47.3077 43.0031 47.1682L43.2473 46.9065H44.6953C45.6025 46.9065 46.1433 46.8716 46.1433 46.8193C46.1433 46.7669 46.2218 46.732 46.3177 46.732C46.4137 46.732 46.4922 46.6884 46.4922 46.6448C46.4922 46.5925 46.6492 46.5576 46.8411 46.5576C47.033 46.5576 47.19 46.514 47.19 46.4704C47.19 46.418 47.2685 46.3831 47.3645 46.3831C47.4604 46.3831 47.5389 46.3395 47.5389 46.2959C47.5389 46.2436 47.8006 46.2087 48.1495 46.2087C48.4984 46.2087 48.7601 46.1738 48.7601 46.1214C48.7601 46.0691 49.0218 46.0342 49.3707 46.0342C49.7196 46.0342 49.9813 45.9993 49.9813 45.947C49.9813 45.8947 50.0424 45.8598 50.1209 45.8598C50.3476 45.8598 50.5047 45.633 50.5047 45.3015C50.5047 45.1271 50.5483 44.9875 50.5919 44.9875C50.6442 44.9875 50.6791 44.6124 50.6791 44.028C50.6791 43.4436 50.714 43.0685 50.7663 43.0685C50.8187 43.0685 50.8536 42.99 50.8536 42.894C50.8536 42.7806 50.9146 42.7196 51.0106 42.7196C51.0978 42.7196 51.2199 42.6411 51.2897 42.5451C51.4031 42.3881 51.5165 42.3707 52.4934 42.3707C53.514 42.3707 53.5751 42.3794 53.7757 42.5887C53.8978 42.7021 53.9938 42.8591 53.9938 42.9376C53.9938 43.0074 54.0374 43.0685 54.081 43.0685C54.1333 43.0685 54.1682 43.1295 54.1682 43.2081C54.1682 43.3825 54.3776 43.5919 54.552 43.5919C54.6305 43.5919 54.6916 43.6267 54.6916 43.6791C54.6916 43.7227 54.7701 43.7663 54.866 43.7663C54.962 43.7663 55.0405 43.8012 55.0405 43.8535C55.0405 43.8972 55.119 43.9408 55.2149 43.9408C55.3109 43.9408 55.3894 43.9757 55.3894 44.028C55.3894 44.0716 55.4679 44.1152 55.5639 44.1152C55.6598 44.1152 55.7383 44.1501 55.7383 44.2024C55.7383 44.2461 55.8168 44.2897 55.9128 44.2897C56.0087 44.2897 56.0872 44.3246 56.0872 44.3769C56.0872 44.4205 56.157 44.4641 56.2442 44.4641C56.3314 44.4641 56.4536 44.5426 56.5233 44.6386C56.5931 44.7345 56.6978 44.813 56.7676 44.813C56.9159 44.813 57.4829 45.38 57.4829 45.5283C57.4829 45.5981 57.5614 45.7028 57.6573 45.7725C57.7533 45.8423 57.8318 45.9644 57.8318 46.0517C57.8318 46.1389 57.8754 46.2087 57.919 46.2087C57.9713 46.2087 58.0062 46.2872 58.0062 46.3744C58.0062 46.4878 58.076 46.5576 58.2068 46.575C58.3638 46.5925 58.39 46.6448 58.3726 46.8367C58.3464 47.0199 58.3813 47.0809 58.486 47.0809C58.5645 47.0809 58.7476 47.1943 58.8785 47.3426C59.0966 47.5694 59.1838 47.6043 59.6112 47.6043C59.8816 47.6043 60.0997 47.6392 60.0997 47.6915C60.0997 47.7439 60.3614 47.7788 60.7103 47.7788C61.0592 47.7788 61.3209 47.7439 61.3209 47.6915C61.3209 47.6392 61.3994 47.6043 61.4953 47.6043C61.6087 47.6043 61.6698 47.5433 61.6698 47.4299C61.6698 47.3339 61.7134 47.2554 61.757 47.2554C61.8093 47.2554 61.8442 47.1769 61.8442 47.0809C61.8442 46.985 61.8878 46.9065 61.9314 46.9065C61.9838 46.9065 62.0187 46.7844 62.0187 46.6448C62.0187 46.4965 62.0623 46.3831 62.1059 46.3831C62.1582 46.3831 62.1931 46.3046 62.1931 46.2087C62.1931 46.1127 62.2367 46.0342 62.2804 46.0342C62.3327 46.0342 62.3676 45.7987 62.3676 45.5109C62.3676 45.223 62.4025 44.9875 62.4548 44.9875C62.5071 44.9875 62.542 44.8305 62.542 44.6386C62.542 44.4467 62.5857 44.2897 62.6293 44.2897C62.6816 44.2897 62.7165 44.0891 62.7165 43.8535C62.7165 43.6093 62.7601 43.4174 62.8037 43.4174C62.8561 43.4174 62.891 43.3389 62.891 43.2429C62.891 43.147 62.9346 43.0685 62.9782 43.0685C63.0305 43.0685 63.0654 43.0074 63.0654 42.9376C63.0654 42.7632 63.9813 41.8473 64.1557 41.8473C64.2691 41.8473 64.2866 41.6467 64.2866 40.4517C64.2866 39.5794 64.2517 39.056 64.1994 39.056C64.147 39.056 64.1121 38.6199 64.1121 37.9221V36.7881H63.8505C63.7109 36.7881 63.5888 36.7445 63.5888 36.7009C63.5888 36.6486 63.519 36.6137 63.4318 36.6137C63.3445 36.6137 63.2224 36.5352 63.1526 36.4392C63.0829 36.3433 62.9607 36.2648 62.8735 36.2648C62.7863 36.2648 62.7165 36.2211 62.7165 36.1775C62.7165 36.1252 62.6467 36.0903 62.5595 36.0903C62.4723 36.0903 62.3501 36.0118 62.2804 35.9158C62.2106 35.8199 62.0885 35.7414 62.0012 35.7414C61.914 35.7414 61.8442 35.6978 61.8442 35.6542C61.8442 35.6018 61.7657 35.5669 61.6698 35.5669C61.5738 35.5669 61.4953 35.5233 61.4953 35.4797C61.4953 35.4274 61.4168 35.3925 61.3209 35.3925C61.2075 35.3925 61.1464 35.3314 61.1464 35.218C61.1464 35.1133 61.033 35 60.8237 34.904C60.6405 34.8168 60.4224 34.6947 60.3439 34.6249C60.0561 34.3806 59.367 34.0841 59.0966 34.0841C58.9047 34.0841 58.7477 34.1626 58.5732 34.3457C58.4336 34.4853 58.2766 34.6074 58.2243 34.6074C58.076 34.6074 57.6573 35.0785 57.6573 35.2355C57.6573 35.3925 57.3869 35.4884 57.1339 35.4186C57.038 35.3925 56.9595 35.314 56.9595 35.2355C56.9595 35.061 56.7065 34.7819 56.5495 34.7819C56.4623 34.7819 56.4361 34.5551 56.4361 33.7352C56.4361 33.0984 56.471 32.6884 56.5233 32.6884C56.5757 32.6884 56.6106 32.5663 56.6106 32.4267C56.6106 32.2785 56.6542 32.1651 56.6978 32.1651C56.7501 32.1651 56.785 32.0866 56.785 31.9906C56.785 31.8947 56.8286 31.8162 56.8723 31.8162C56.9246 31.8162 56.9595 31.7551 56.9595 31.6766C56.9595 31.5196 57.1601 31.2928 57.3084 31.2928C57.3607 31.2928 57.5614 31.1358 57.7445 30.9439C57.9277 30.752 58.1458 30.595 58.2156 30.595C58.2941 30.595 58.3551 30.5339 58.3551 30.4641C58.3551 30.2548 58.9308 29.7227 59.1576 29.7227C59.271 29.7227 59.4193 29.6442 59.4891 29.5482C59.5589 29.4523 59.6635 29.3738 59.7333 29.3738C60.0386 29.3738 60.0997 29.147 60.0997 28.0305C60.0997 27.3588 60.0648 26.9314 60.0124 26.9314C59.9688 26.9314 59.9252 26.8529 59.9252 26.757C59.9252 26.661 59.8903 26.5825 59.838 26.5825C59.7944 26.5825 59.7508 26.504 59.7508 26.4081C59.7508 26.3121 59.7159 26.2336 59.6635 26.2336C59.6199 26.2336 59.5763 26.1551 59.5763 26.0679C59.5763 25.9806 59.524 25.8847 59.4629 25.8585C59.3844 25.8323 59.3582 25.7102 59.3844 25.5009C59.4193 25.1869 59.5763 24.9688 59.5763 25.2218C59.5763 25.3003 59.6199 25.3613 59.6635 25.3613C59.7159 25.3613 59.7508 25.4747 59.7508 25.623C59.7508 25.7626 59.7944 25.8847 59.838 25.8847C59.8903 25.8847 59.9252 25.9981 59.9252 26.1464C59.9252 26.2859 59.9688 26.4081 60.0124 26.4081C60.0648 26.4081 60.0997 26.4866 60.0997 26.5825C60.0997 26.6785 60.1433 26.757 60.1869 26.757C60.2392 26.757 60.2741 26.8355 60.2741 26.9314C60.2741 27.0274 60.3177 27.1059 60.3614 27.1059C60.4137 27.1059 60.4486 27.1757 60.4486 27.2629C60.4486 27.3501 60.5271 27.4722 60.623 27.542C60.7277 27.6118 60.7975 27.7688 60.7975 27.9084C60.7975 28.0915 60.8411 28.1526 60.9719 28.1526C61.0853 28.1526 61.1464 28.2137 61.1464 28.3271C61.1464 28.423 61.19 28.5015 61.2336 28.5015C61.286 28.5015 61.3209 28.58 61.3209 28.676C61.3209 28.7719 61.3645 28.8504 61.4081 28.8504C61.4604 28.8504 61.4953 28.9464 61.4953 29.0685C61.4953 29.3214 61.8442 29.7227 62.0623 29.7227C62.1321 29.7227 62.1931 29.7576 62.1931 29.8099C62.1931 29.8535 62.2629 29.8971 62.3501 29.8971C62.4374 29.8971 62.5595 29.9757 62.6293 30.0716C62.6991 30.1676 62.8212 30.2461 62.9084 30.2461C63.0043 30.2461 63.0654 30.3071 63.0654 30.4205C63.0654 30.5252 63.1265 30.595 63.205 30.595C63.2748 30.595 63.4928 30.752 63.676 30.9439C63.8592 31.1358 64.0772 31.2928 64.147 31.2928C64.2255 31.2928 64.2866 31.3277 64.2866 31.38C64.2866 31.4236 64.4087 31.4672 64.5483 31.4672C64.6966 31.4672 64.81 31.5021 64.81 31.5545C64.81 31.5981 64.9321 31.6417 65.0716 31.6417C65.2199 31.6417 65.3333 31.6766 65.3333 31.7289C65.3333 31.7725 65.4554 31.8162 65.595 31.8162C65.7433 31.8162 65.8567 31.851 65.8567 31.9034C65.8567 31.947 65.9962 31.9906 66.1707 31.9906H66.476L66.4673 31.4847C66.4586 31.2143 66.4324 30.6647 66.4062 30.2635C66.3626 29.6442 66.3364 29.5482 66.1969 29.5482C66.0922 29.5482 66.0311 29.4872 66.0311 29.3738C66.0311 29.2778 65.9962 29.1993 65.9439 29.1993C65.9003 29.1993 65.8567 29.0772 65.8567 28.9376C65.8567 28.7894 65.8218 28.676 65.7695 28.676C65.7258 28.676 65.6822 28.5975 65.6822 28.5015C65.6822 28.4056 65.6473 28.3271 65.595 28.3271C65.5514 28.3271 65.5078 28.1788 65.5078 27.9956C65.5078 27.7688 65.4554 27.6292 65.3333 27.542C65.2374 27.4722 65.1589 27.3588 65.1589 27.2803C65.1589 27.2018 65.0804 27.0884 64.9844 27.0186C64.8885 26.9489 64.81 26.8442 64.81 26.7744C64.81 26.5912 64.2255 26.0591 64.0162 26.0591C63.9202 26.0591 63.7196 25.937 63.5888 25.7975C63.4579 25.6492 63.3009 25.5358 63.2399 25.5358C63.1003 25.5358 62.891 25.309 62.891 25.152C62.891 25.0735 62.8299 25.0124 62.7514 25.0124C62.6729 25.0124 62.4984 24.8903 62.3676 24.7507C62.2367 24.6024 62.0623 24.489 61.9838 24.489C61.9053 24.489 61.8442 24.4193 61.8442 24.3146C61.8442 24.2186 61.8093 24.1401 61.757 24.1401C61.7134 24.1401 61.6698 24.018 61.6698 23.8785C61.6698 23.7302 61.6349 23.6168 61.5825 23.6168C61.5389 23.6168 61.4953 23.5383 61.4953 23.4423C61.4953 23.3289 61.4343 23.2679 61.3209 23.2679C61.2075 23.2679 61.1464 23.2068 61.1464 23.0934C61.1464 22.9975 61.1115 22.919 61.0592 22.919C61.0156 22.919 60.9719 22.7968 60.9719 22.6573C60.9719 22.509 60.9371 22.3956 60.8847 22.3956C60.8411 22.3956 60.7975 22.2996 60.7975 22.1862C60.7975 22.0728 60.7452 21.9507 60.6928 21.9333C60.6318 21.9071 60.6667 21.8809 60.78 21.8809C60.8847 21.8722 60.9719 21.8286 60.9719 21.785C60.9719 21.7327 61.0941 21.6978 61.2336 21.6978C61.4691 21.6978 61.4953 21.6716 61.4953 21.4361C61.4953 21.2878 61.5389 21.1744 61.5825 21.1744C61.6349 21.1744 61.6698 20.8255 61.6698 20.3021C61.6698 19.6567 61.6436 19.4299 61.5564 19.4299C61.4779 19.4299 61.4604 19.3252 61.4779 19.0809C61.5128 18.7757 61.4953 18.732 61.3296 18.732C61.19 18.732 61.1464 18.6797 61.1464 18.4878C61.1464 18.3482 61.0766 18.1912 60.9719 18.1214C60.876 18.0517 60.7975 17.947 60.7975 17.8859C60.7975 17.8249 60.466 17.4411 60.0561 17.0311L59.3146 16.2897H58.5732H57.8318V15.8099V15.3302L58.486 14.676C58.8436 14.3183 59.1751 14.0218 59.2274 14.0218C59.367 14.0218 59.7246 13.638 59.7682 13.4461C59.8031 13.2629 60.7103 14.3183 61.6087 15.6006L62.1495 16.3682L62.891 16.3769H63.6324L64.1645 17.2666C65.6473 19.7439 66.5458 21.7501 67.4791 24.6897C69.6685 31.5719 69.6685 38.428 67.4791 45.3102C66.5545 48.2149 65.6561 50.2299 64.2168 52.6548L63.7283 53.4747L63.1614 53.4224C62.8386 53.4049 62.5333 53.4049 62.4723 53.4224C62.3763 53.4573 61.1115 55.0797 60.6579 55.7514C60.2654 56.3271 57.4829 59.38 57.352 59.38C57.3171 59.38 57.2037 59.4934 57.0903 59.633C56.8374 59.9295 55.747 60.8193 55.5639 60.8803C55.433 60.9239 53.2174 59.694 53.104 59.5196C53.0604 59.4672 53.0343 59.4585 53.0343 59.5109C53.0343 59.5545 52.9819 59.537 52.9209 59.4672C52.8598 59.3975 52.6592 59.2579 52.476 59.1619C52.2841 59.066 52.1184 58.9352 52.0922 58.8741C52.0747 58.813 52.223 58.6037 52.4149 58.4118C52.6156 58.2112 52.7726 58.0193 52.7726 57.9757C52.7726 57.932 52.8685 57.8361 52.9906 57.7576C53.1128 57.6791 53.2087 57.5831 53.2087 57.5395C53.2087 57.5046 53.4529 57.147 53.7582 56.7457C54.6131 55.6031 55.8255 53.78 55.8255 53.6143C55.8255 53.4224 55.6511 53.3613 55.0579 53.3613C54.6567 53.37 54.5171 53.4049 54.3252 53.5794C54.1857 53.6928 54.081 53.8324 54.081 53.8847C54.081 53.9283 54.0461 53.9719 53.9938 53.9719C53.9501 53.9719 53.9065 54.0243 53.9065 54.094C53.9065 54.1638 53.8716 54.2336 53.8367 54.251C53.7408 54.2859 53.0779 55.2018 53.0081 55.385C52.9819 55.4722 52.9121 55.542 52.8598 55.542C52.8162 55.542 52.7726 55.5856 52.7726 55.638C52.7726 55.7514 51.7258 57.0685 51.1065 57.7489L50.7227 58.1676L49.9813 57.9146C49.4056 57.714 46.3439 56.6149 45.6199 56.3445C45.5501 56.3183 45.4716 56.2922 45.4455 56.2922C45.4193 56.2834 45.3233 56.2311 45.2274 56.1788C45.0617 56.0828 45.0617 56.0654 45.3495 55.4373C45.7246 54.6087 46.0124 53.6841 45.9427 53.5009C45.899 53.3962 45.7682 53.3613 45.4019 53.3613C45.1314 53.3613 44.8436 53.3962 44.7651 53.4398C44.6779 53.4834 44.3638 54.0243 44.0673 54.6436L43.5177 55.7688L42.8025 55.6205C42.41 55.542 41.9302 55.4461 41.7383 55.4199C41.5464 55.3937 40.8573 55.2978 40.2118 55.2018C39.5663 55.1059 38.5022 54.9838 37.8567 54.9314C35.929 54.7744 35.7371 54.757 35.6847 54.7046C35.6586 54.6785 35.6324 54.4342 35.6324 54.1551C35.6324 53.4747 35.519 53.3613 34.8997 53.3613C34.6293 53.3613 34.3589 53.4049 34.2978 53.466C34.2367 53.5271 34.1931 53.8324 34.1931 54.2074V54.8442L33.6523 54.8529C33.347 54.8529 32.9458 54.8704 32.7539 54.8878C32.562 54.9052 31.9514 54.9663 31.4019 55.0186C30.8523 55.071 29.8492 55.1931 29.1776 55.2891C27.9476 55.4635 27.843 55.4722 26.9184 55.638C26.6392 55.6903 26.4037 55.7165 26.3863 55.699C26.3688 55.6816 26.1159 55.1931 25.828 54.6087C25.5314 54.0243 25.2174 53.5009 25.1302 53.4486C24.8511 53.3003 23.9875 53.3352 23.9265 53.5009C23.8567 53.6928 24.0311 54.2336 24.4847 55.2105C24.8162 55.9171 24.8685 56.0828 24.7726 56.1962C24.7115 56.266 24.633 56.3009 24.5894 56.2834C24.5545 56.2573 24.4498 56.2747 24.3626 56.3271C24.2754 56.3707 23.4991 56.6498 22.6355 56.9464C21.7719 57.2342 20.9869 57.5046 20.891 57.5482C20.3763 57.7925 19.2249 58.2461 19.129 58.2461C19.0679 58.2461 18.6056 57.7489 18.0997 57.1383C17.1925 56.0392 16.9395 55.699 15.9539 54.2249C15.6747 53.8062 15.3869 53.4486 15.3084 53.4137C15.2299 53.3875 14.9333 53.3613 14.6629 53.3613C14.2704 53.3613 14.1221 53.3962 14 53.5358C13.9128 53.6317 13.8866 53.7102 13.9389 53.7102C14 53.7102 14.157 53.937 14.2966 54.2162C14.5582 54.7395 15.7271 56.423 16.3202 57.1295C16.5034 57.3563 16.6604 57.5482 16.6604 57.5744C16.6604 57.5919 16.8523 57.8186 17.0878 58.0716C17.6635 58.6996 17.7769 58.909 17.6112 59.0747C17.3844 59.3015 14.5582 60.9501 14.4012 60.9501C14.0785 60.9501 12.1682 59.2143 10.7551 57.6529C9.8654 56.676 9.52522 56.2486 8.19064 54.4778C7.43176 53.466 7.1788 53.3003 6.53332 53.3875L6.20185 53.4311L5.73082 52.6286C4.02989 49.785 2.7302 46.6099 1.87537 43.2604C0.314001 37.076 0.514624 30.8567 2.47724 24.6897C3.41057 21.7501 4.30902 19.7439 5.79188 17.2666L6.32397 16.3769H6.84733C7.34453 16.3769 7.38814 16.3595 7.52771 16.1152C7.79811 15.6704 8.99313 14.1962 9.08908 14.1962C9.14142 14.1962 9.15886 14.17 9.13269 14.1439C9.0978 14.109 9.35076 13.7775 9.68223 13.4112C10.0137 13.0448 10.2667 12.7221 10.2492 12.6959C10.1358 12.5825 13.9825 9.0498 14.2181 9.0498C14.2529 9.0498 14.8112 9.36382 15.4567 9.75634C16.0934 10.1489 16.8436 10.5763 17.1227 10.7158C17.3931 10.8554 17.6199 10.995 17.6199 11.0124C17.6199 11.0386 17.3408 11.3788 17.0006 11.78C16.4249 12.4342 14.7414 14.7196 14.7414 14.833C14.7414 14.8591 14.5495 15.2081 14.314 15.6093C14.0785 16.0018 13.904 16.3595 13.9215 16.3943C13.9476 16.438 14.2529 16.4641 14.6019 16.4641C15.3433 16.4641 15.3258 16.4816 16.2766 15.1295C17.271 13.7165 17.4542 13.4548 17.5589 13.3937C17.6199 13.3588 17.6635 13.289 17.6635 13.2454C17.6635 13.2018 17.7595 13.071 17.8816 12.9576C18.0037 12.8529 18.1084 12.7221 18.1171 12.6872C18.1258 12.6436 18.3177 12.4168 18.5445 12.1725C18.8498 11.8498 18.9981 11.7451 19.1377 11.78C19.3906 11.8324 21.8766 12.7744 22.1994 12.9314C22.3476 13.0099 22.9233 13.2193 23.4903 13.4024C24.0573 13.5856 24.5371 13.7601 24.5632 13.7775C24.5894 13.8037 24.3888 14.3358 24.1184 14.9551C23.8567 15.5744 23.6386 16.1763 23.6386 16.2809C23.6386 16.4641 23.6648 16.4729 24.3364 16.4467L25.0343 16.4205L25.4355 15.5482C25.6536 15.0685 25.8367 14.6236 25.8455 14.5626C25.8455 14.5102 25.8804 14.4579 25.924 14.4579C25.9676 14.4579 25.9763 14.4143 25.9501 14.3707C25.924 14.3183 25.9414 14.2834 25.9938 14.2834C26.0461 14.2834 26.0635 14.2398 26.0286 14.1788C25.985 14.109 26.0548 14.1003 26.2642 14.1352C29.2648 14.6585 30.7564 14.8504 32.7452 14.9551C33.3209 14.9813 33.8529 15.0423 33.914 15.0947C33.9751 15.1383 34.0187 15.3825 34.0187 15.6704C34.0274 16.0542 34.071 16.2112 34.2367 16.4205C34.4286 16.656 34.4984 16.6822 34.952 16.6822H35.4579L35.4841 15.9408C35.5015 15.5308 35.5452 15.1644 35.58 15.1295C35.6149 15.0947 36.3913 15.0074 37.3071 14.9376C38.7464 14.8243 39.767 14.7109 41.1277 14.5015C41.3196 14.4666 41.8255 14.3707 42.2617 14.2747C42.6891 14.1875 43.0903 14.109 43.1514 14.109C43.2648 14.109 44.1371 15.775 44.2417 16.185C44.2941 16.3595 44.3464 16.3769 45.0442 16.3769C45.4978 16.3769 45.7944 16.342 45.7944 16.2897C45.7944 16.185 45.2274 14.7021 45.0529 14.3707C44.9919 14.2486 44.9221 14.0479 44.8872 13.9171C44.8349 13.6903 44.8523 13.6816 45.8642 13.3676C46.4224 13.1931 46.9283 13.0186 46.9719 12.975C47.0243 12.9401 47.4168 12.7831 47.8442 12.6261C48.2804 12.4691 48.6729 12.3121 48.7165 12.2772C48.7688 12.2423 49.1875 12.0766 49.6673 11.9196L50.5221 11.623L51.1676 12.3208C51.5165 12.7046 51.8131 13.0623 51.8131 13.1233C51.8131 13.1757 51.8392 13.2367 51.8829 13.2542C51.9177 13.2629 52.1358 13.5333 52.38 13.856L52.8162 14.423L53.3396 14.0828C54.0635 13.6118 54.0461 13.6292 53.7931 13.3065C53.6623 13.1495 53.4355 12.8529 53.2785 12.6436C53.1215 12.4429 52.7638 12.0155 52.4934 11.7015C52.2143 11.3875 51.9875 11.0647 51.9963 10.9775C51.9963 10.8903 52.5719 10.4978 53.5838 9.8959C54.4561 9.38126 55.1888 8.96257 55.2237 8.96257C55.2498 8.96257 55.6598 9.28531 56.1395 9.66911ZM45.1053 30.2461C45.367 30.2984 45.7857 30.438 46.0386 30.5688L46.4922 30.7956V31.7464V32.7059L46.0822 32.3395C45.5065 31.8336 45.0966 31.6417 44.5906 31.6417C43.5701 31.6417 42.9159 32.6448 42.9159 34.2149C42.9159 35.7327 43.4916 36.6747 44.4685 36.7707C45.0442 36.823 45.4542 36.6747 46.0212 36.2124L46.4922 35.8286V36.7271V37.6255L46.0299 37.8523C44.6779 38.5152 43.2386 38.3408 42.3576 37.3987C41.6249 36.6137 41.3458 35.7588 41.3458 34.2236C41.3458 32.0691 42.1395 30.6996 43.6224 30.2984C44.1981 30.1414 44.4947 30.1327 45.1053 30.2461ZM51.9963 30.2461C52.2579 30.2984 52.6766 30.438 52.9296 30.5688L53.3832 30.7956V31.7464V32.7059L52.9732 32.3395C52.3975 31.8336 51.9875 31.6417 51.4816 31.6417C50.461 31.6417 49.8068 32.6448 49.8068 34.2149C49.8068 35.7327 50.3825 36.6747 51.3595 36.7707C51.9352 36.823 52.3452 36.6747 52.9121 36.2124L53.3832 35.8286V36.7271V37.6255L52.9209 37.8523C51.5688 38.5152 50.1296 38.3408 49.2486 37.3987C48.5159 36.6137 48.2367 35.7588 48.2367 34.2236C48.2367 32.0691 49.0305 30.6996 50.5134 30.2984C51.0891 30.1414 51.3857 30.1327 51.9963 30.2461ZM17.8816 31.0747V31.8162H16.5296H15.1776V34.9563V38.0965H14.4361H13.6947V34.2149V30.3333H15.7881H17.8816V31.0747ZM27.5638 33.4735V36.6137H28.6978H29.8318V33.4735V30.3333H30.5732H31.3146V33.4735V36.6137H31.6199H31.9252V38.2274V39.8411H31.2274H30.5296V38.9688V38.0965H28.3053H26.081V34.2149V30.3333H26.8224H27.5638V33.4735ZM35.3271 32.6623C35.3271 33.9532 35.362 34.9563 35.4056 34.904C35.4405 34.8604 35.9638 33.8137 36.557 32.5838L37.6386 30.3333H38.4498H39.2523V34.2149V38.0965H38.5109H37.7695V35.5669C37.7695 34.1713 37.7433 33.0373 37.7084 33.0373C37.6648 33.0373 37.1065 34.1713 36.4523 35.5495L35.2747 38.0529L34.5595 38.0791L33.8442 38.1052V34.2149V30.3333H34.5857H35.3271V32.6623ZM22.7925 32.4006C23.8916 33.0024 24.3713 34.8778 23.8654 36.57C23.499 37.7825 22.3476 38.4542 21.0828 38.1838C19.7744 37.9133 19.0941 36.666 19.2162 34.747C19.2598 34.0841 19.3121 33.866 19.5564 33.395C19.7134 33.0897 19.9925 32.7146 20.167 32.575C20.8473 32.0255 21.9638 31.9557 22.7925 32.4006ZM34.2367 59.9906C34.2367 62.0492 34.2367 63.7414 34.2367 63.7414C34.2367 63.7414 32.2654 64.0118 31.9165 64.0554L31.5065 64.1077L30.8436 63.2529C29.9975 62.1538 28.4623 59.8685 28.0436 59.0747C27.8604 58.7345 27.5638 58.1763 27.3719 57.8361L27.023 57.1993L27.2498 57.1208C28.1221 56.7806 31.1751 56.3881 33.9751 56.2486L34.2367 56.2398V59.9906ZM38.3364 56.423C39.6972 56.5364 40.9184 56.7109 41.9825 56.9464C42.9159 57.1557 42.9595 57.2081 42.6455 57.714C42.5495 57.8797 42.2529 58.4292 41.9825 58.9352C41.4592 59.947 40.3776 61.6043 39.2523 63.1308L38.5196 64.1165L37.9526 64.0554C37.2461 63.9943 36.147 63.8461 35.833 63.7763L35.5888 63.7239V60.0429C35.5888 58.0105 35.6149 56.3358 35.6411 56.3009C35.7022 56.2486 36.7925 56.2922 38.3364 56.423ZM26.1246 58.3943C26.3688 58.8654 26.8137 59.6591 27.119 60.1651C27.4243 60.671 27.747 61.2205 27.843 61.3862C27.9913 61.6305 29.4305 63.7763 29.9015 64.4305C29.9975 64.5788 29.9277 64.6224 29.038 65.0062C28.5059 65.2417 28.0262 65.4249 27.9651 65.4249C27.904 65.4249 27.3894 65.1457 26.8137 64.8056C25.1564 63.8024 23.0629 62.2236 21.2573 60.6012C20.1146 59.5806 20.0885 59.476 20.8735 59.1271C22.1645 58.5426 25.0343 57.557 25.4704 57.5482C25.6623 57.5482 25.7495 57.6529 26.1246 58.3943ZM45.9165 57.9582C47.4779 58.4118 49.4928 59.2143 49.5277 59.4149C49.6237 59.8772 45.4193 63.314 43.2212 64.57C42.9857 64.7096 42.7676 64.8492 42.7414 64.8753C42.7153 64.9015 42.5059 65.0324 42.2704 65.1632C41.8953 65.3725 41.8081 65.39 41.5115 65.3115C41.3283 65.2591 41.1626 65.1894 41.1364 65.1457C41.1103 65.1021 40.8486 64.98 40.5607 64.8753C40.2293 64.7532 40.0374 64.6311 40.0374 64.5439C40.0374 64.4741 40.1944 64.2037 40.3863 63.9507C40.5782 63.6978 40.7352 63.4448 40.7352 63.3925C40.7352 63.3489 40.7788 63.3053 40.8224 63.3053C40.8747 63.3053 40.9096 63.2442 40.9096 63.1744C40.9096 63.1046 40.9533 63.0436 40.9969 63.0436C41.0492 63.0436 41.0841 63.0087 41.0841 62.9563C41.0841 62.9127 41.276 62.59 41.5028 62.2411C42.1308 61.299 42.7676 60.2785 43.0903 59.6853C43.2473 59.3975 43.5875 58.8043 43.8492 58.3595C44.3987 57.4261 44.1894 57.461 45.9165 57.9582ZM19.9663 61.1943C21.2486 62.4853 22.9321 63.8461 24.7726 65.0498C25.5663 65.5732 26.3078 66.0791 26.4124 66.1838C26.6043 66.3582 26.6131 66.3844 26.4822 66.5239C26.4037 66.6112 26.2118 66.7507 26.0461 66.838L25.7582 66.995L24.2841 66.4891C21.4579 65.5383 19.5913 64.6398 17.0791 63.0174C15.6922 62.1277 15.5788 61.9794 16.076 61.7003C16.2243 61.6043 16.5296 61.4124 16.7476 61.2729C17.2972 60.9065 18.6841 60.1651 18.8324 60.1651C18.9022 60.1651 19.4168 60.6274 19.9663 61.1943ZM52.3277 60.7582C52.886 61.0897 53.5227 61.4648 53.7582 61.5956C53.985 61.7264 54.1682 61.8834 54.1682 61.9445C54.1682 62.1713 53.2872 62.7644 50.6791 64.2909C49.2573 65.1196 47.1377 66.0267 45.1925 66.6286C44.0411 66.9862 43.9713 66.9862 43.5526 66.5937C43.4392 66.4978 43.352 66.3669 43.352 66.3059C43.352 66.2448 43.919 65.8261 44.6081 65.3638C46.2392 64.2735 47.8704 63.0523 48.2106 62.6598C48.3676 62.494 49.0305 61.8573 49.6934 61.2641C50.5221 60.5052 50.9582 60.1651 51.1065 60.1651C51.2199 60.1651 51.7695 60.4355 52.3277 60.7582ZM37.7346 65.4423C39.2349 65.7476 40.7526 66.3408 41.7906 67.0299C42.471 67.4834 42.1134 67.623 39.2087 68.033C37.9962 68.1987 37.4467 68.2249 35.0218 68.2249C32.1084 68.2249 31.5414 68.1813 28.9769 67.7364C27.4766 67.4747 27.4592 67.3613 28.8461 66.6461C30.233 65.9221 31.7944 65.4423 33.4953 65.2243C34.4984 65.0934 36.5657 65.1981 37.7346 65.4423Z" fill="white"/>
<path d="M21.0654 33.7124C20.7863 33.9915 20.6729 34.4538 20.6729 35.2912C20.6729 36.5298 20.9607 37.0793 21.615 37.0793C22.3128 37.0793 22.653 36.3554 22.5745 35.0382C22.5221 34.2881 22.2953 33.66 22.0249 33.5554C21.7022 33.4332 21.2748 33.503 21.0654 33.7124Z" fill="white"/>
<circle cx="35" cy="35" r="34" stroke="white" stroke-width="2"/>
<path d="M109.103 7.54545V11.9826H97.5941V33H92.2124V7.54545H109.103ZM118.307 33.3729C116.376 33.3729 114.707 32.9627 113.298 32.1424C111.898 31.3138 110.816 30.1621 110.054 28.6871C109.292 27.204 108.911 25.4846 108.911 23.5291C108.911 21.5571 109.292 19.8336 110.054 18.3587C110.816 16.8755 111.898 15.7237 113.298 14.9034C114.707 14.0748 116.376 13.6605 118.307 13.6605C120.238 13.6605 121.903 14.0748 123.303 14.9034C124.712 15.7237 125.798 16.8755 126.56 18.3587C127.322 19.8336 127.703 21.5571 127.703 23.5291C127.703 25.4846 127.322 27.204 126.56 28.6871C125.798 30.1621 124.712 31.3138 123.303 32.1424C121.903 32.9627 120.238 33.3729 118.307 33.3729ZM118.332 29.2713C119.21 29.2713 119.943 29.0227 120.532 28.5256C121.12 28.0201 121.563 27.3324 121.862 26.4624C122.168 25.5923 122.322 24.6022 122.322 23.4918C122.322 22.3815 122.168 21.3913 121.862 20.5213C121.563 19.6513 121.12 18.9635 120.532 18.4581C119.943 17.9527 119.21 17.6999 118.332 17.6999C117.445 17.6999 116.7 17.9527 116.095 18.4581C115.498 18.9635 115.046 19.6513 114.74 20.5213C114.442 21.3913 114.292 22.3815 114.292 23.4918C114.292 24.6022 114.442 25.5923 114.74 26.4624C115.046 27.3324 115.498 28.0201 116.095 28.5256C116.7 29.0227 117.445 29.2713 118.332 29.2713ZM155.768 28.6996L155.457 39.0156H150.336V33H148.547V28.6996H155.768ZM131.246 33V7.54545H136.416V28.6747H147.006V7.54545H152.238V33H131.246ZM159.034 7.54545H164.403V23.554H164.614L175.614 7.54545H180.324V33H174.943V16.979H174.756L163.695 33H159.034V7.54545ZM207.23 16.457H201.786C201.687 15.7527 201.484 15.1271 201.177 14.5803C200.871 14.0251 200.477 13.5528 199.996 13.1634C199.516 12.7739 198.961 12.4756 198.331 12.2685C197.71 12.0613 197.034 11.9577 196.305 11.9577C194.988 11.9577 193.84 12.285 192.862 12.9396C191.884 13.5859 191.126 14.5305 190.588 15.7734C190.049 17.008 189.78 18.5078 189.78 20.2727C189.78 22.0874 190.049 23.612 190.588 24.8466C191.135 26.0812 191.897 27.0134 192.875 27.6431C193.852 28.2728 194.983 28.5877 196.268 28.5877C196.989 28.5877 197.656 28.4924 198.269 28.3018C198.89 28.1113 199.441 27.8337 199.922 27.4691C200.402 27.0962 200.8 26.6446 201.115 26.1143C201.438 25.584 201.662 24.9792 201.786 24.2997L207.23 24.3246C207.089 25.4929 206.737 26.6198 206.174 27.7053C205.618 28.7824 204.869 29.7478 203.924 30.6012C202.988 31.4464 201.869 32.1175 200.568 32.6147C199.276 33.1036 197.813 33.348 196.181 33.348C193.91 33.348 191.88 32.8343 190.091 31.8068C188.309 30.7794 186.9 29.292 185.865 27.3448C184.837 25.3976 184.324 23.0402 184.324 20.2727C184.324 17.4969 184.846 15.1354 185.89 13.1882C186.934 11.241 188.35 9.75781 190.14 8.73864C191.93 7.71117 193.944 7.19744 196.181 7.19744C197.656 7.19744 199.023 7.40459 200.282 7.81889C201.55 8.23319 202.673 8.83807 203.651 9.63352C204.628 10.4207 205.424 11.386 206.037 12.5295C206.658 13.6729 207.056 14.9821 207.23 16.457ZM233.548 16.457H228.105C228.005 15.7527 227.802 15.1271 227.496 14.5803C227.189 14.0251 226.795 13.5528 226.315 13.1634C225.834 12.7739 225.279 12.4756 224.649 12.2685C224.028 12.0613 223.353 11.9577 222.623 11.9577C221.306 11.9577 220.158 12.285 219.181 12.9396C218.203 13.5859 217.445 14.5305 216.906 15.7734C216.367 17.008 216.098 18.5078 216.098 20.2727C216.098 22.0874 216.367 23.612 216.906 24.8466C217.453 26.0812 218.215 27.0134 219.193 27.6431C220.171 28.2728 221.302 28.5877 222.586 28.5877C223.307 28.5877 223.974 28.4924 224.587 28.3018C225.209 28.1113 225.76 27.8337 226.24 27.4691C226.721 27.0962 227.119 26.6446 227.433 26.1143C227.757 25.584 227.98 24.9792 228.105 24.2997L233.548 24.3246C233.408 25.4929 233.055 26.6198 232.492 27.7053C231.937 28.7824 231.187 29.7478 230.242 30.6012C229.306 31.4464 228.187 32.1175 226.887 32.6147C225.594 33.1036 224.131 33.348 222.499 33.348C220.229 33.348 218.199 32.8343 216.409 31.8068C214.627 30.7794 213.219 29.292 212.183 27.3448C211.156 25.3976 210.642 23.0402 210.642 20.2727C210.642 17.4969 211.164 15.1354 212.208 13.1882C213.252 11.241 214.669 9.75781 216.459 8.73864C218.248 7.71117 220.262 7.19744 222.499 7.19744C223.974 7.19744 225.341 7.40459 226.601 7.81889C227.868 8.23319 228.991 8.83807 229.969 9.63352C230.947 10.4207 231.742 11.386 232.355 12.5295C232.977 13.6729 233.374 14.9821 233.548 16.457Z" fill="white"/>
<path d="M95.2131 46.7273V47.3239H91.63V54H90.9659V46.7273H95.2131ZM97.9057 54.1136C97.4346 54.1136 97.0179 53.9941 96.6557 53.755C96.2959 53.5159 96.0141 53.1856 95.8105 52.7642C95.6069 52.3404 95.5051 51.8516 95.5051 51.2976C95.5051 50.7389 95.6069 50.2476 95.8105 49.8239C96.0141 49.3977 96.2959 49.0663 96.6557 48.8295C97.0179 48.5904 97.4346 48.4709 97.9057 48.4709C98.3768 48.4709 98.7923 48.5904 99.1522 48.8295C99.512 49.0687 99.7937 49.4001 99.9973 49.8239C100.203 50.2476 100.306 50.7389 100.306 51.2976C100.306 51.8516 100.204 52.3404 100.001 52.7642C99.7973 53.1856 99.5144 53.5159 99.1522 53.755C98.7923 53.9941 98.3768 54.1136 97.9057 54.1136ZM97.9057 53.5348C98.2845 53.5348 98.6053 53.433 98.8681 53.2294C99.1309 53.0258 99.3297 52.7547 99.4647 52.4162C99.602 52.0777 99.6706 51.7048 99.6706 51.2976C99.6706 50.8904 99.602 50.5163 99.4647 50.1754C99.3297 49.8345 99.1309 49.5611 98.8681 49.3551C98.6053 49.1491 98.2845 49.0462 97.9057 49.0462C97.5293 49.0462 97.2085 49.1491 96.9434 49.3551C96.6806 49.5611 96.4805 49.8345 96.3432 50.1754C96.2083 50.5163 96.1408 50.8904 96.1408 51.2976C96.1408 51.7048 96.2083 52.0777 96.3432 52.4162C96.4805 52.7547 96.6806 53.0258 96.9434 53.2294C97.2061 53.433 97.5269 53.5348 97.9057 53.5348ZM101.158 54V53.4034H101.328C101.522 53.4034 101.679 53.3679 101.797 53.2969C101.918 53.2235 102.011 53.1004 102.077 52.9276C102.144 52.7547 102.193 52.5192 102.227 52.2209C102.26 51.9226 102.286 51.5485 102.305 51.0987L102.422 48.5455H105.888V54H105.252V49.142H103.022L102.919 51.3118C102.898 51.7545 102.862 52.1439 102.812 52.4801C102.765 52.8163 102.687 53.0968 102.578 53.3217C102.472 53.5466 102.322 53.7159 102.131 53.8295C101.941 53.9432 101.693 54 101.385 54H101.158ZM109.683 54.1136C109.212 54.1136 108.795 53.9941 108.433 53.755C108.073 53.5159 107.791 53.1856 107.588 52.7642C107.384 52.3404 107.282 51.8516 107.282 51.2976C107.282 50.7389 107.384 50.2476 107.588 49.8239C107.791 49.3977 108.073 49.0663 108.433 48.8295C108.795 48.5904 109.212 48.4709 109.683 48.4709C110.154 48.4709 110.57 48.5904 110.93 48.8295C111.289 49.0687 111.571 49.4001 111.775 49.8239C111.981 50.2476 112.084 50.7389 112.084 51.2976C112.084 51.8516 111.982 52.3404 111.778 52.7642C111.575 53.1856 111.292 53.5159 110.93 53.755C110.57 53.9941 110.154 54.1136 109.683 54.1136ZM109.683 53.5348C110.062 53.5348 110.383 53.433 110.645 53.2294C110.908 53.0258 111.107 52.7547 111.242 52.4162C111.379 52.0777 111.448 51.7048 111.448 51.2976C111.448 50.8904 111.379 50.5163 111.242 50.1754C111.107 49.8345 110.908 49.5611 110.645 49.3551C110.383 49.1491 110.062 49.0462 109.683 49.0462C109.307 49.0462 108.986 49.1491 108.721 49.3551C108.458 49.5611 108.258 49.8345 108.121 50.1754C107.986 50.5163 107.918 50.8904 107.918 51.2976C107.918 51.7048 107.986 52.0777 108.121 52.4162C108.258 52.7547 108.458 53.0258 108.721 53.2294C108.983 53.433 109.304 53.5348 109.683 53.5348ZM113.471 54V48.5455H115.62C116.2 48.5455 116.657 48.6709 116.99 48.9219C117.327 49.1728 117.495 49.5114 117.495 49.9375C117.495 50.2618 117.401 50.5211 117.214 50.7152C117.027 50.9093 116.776 51.0466 116.461 51.1271C116.672 51.1626 116.867 51.2396 117.047 51.358C117.23 51.4763 117.377 51.6326 117.491 51.8267C117.605 52.0208 117.662 52.2528 117.662 52.5227C117.662 52.8068 117.591 53.0601 117.449 53.2827C117.306 53.5052 117.106 53.6804 116.848 53.8082C116.59 53.9361 116.285 54 115.932 54H113.471ZM114.075 53.4141H115.932C116.266 53.4141 116.53 53.3288 116.724 53.1584C116.918 52.9856 117.015 52.7559 117.015 52.4695C117.015 52.1641 116.923 51.9202 116.738 51.7379C116.556 51.5533 116.311 51.4609 116.003 51.4609H114.075V53.4141ZM114.075 50.8999H115.659C115.905 50.8999 116.118 50.862 116.298 50.7862C116.478 50.7105 116.616 50.6039 116.713 50.4666C116.813 50.3269 116.861 50.1636 116.859 49.9766C116.859 49.709 116.75 49.5019 116.532 49.3551C116.315 49.206 116.01 49.1314 115.62 49.1314H114.075V50.8999ZM122.73 50.978V51.5746H119.523V50.978H122.73ZM119.68 48.5455V54H119.047V48.5455H119.68ZM123.195 48.5455V54H122.563V48.5455H123.195ZM126.998 54.1136C126.526 54.1136 126.11 53.9941 125.748 53.755C125.388 53.5159 125.106 53.1856 124.902 52.7642C124.699 52.3404 124.597 51.8516 124.597 51.2976C124.597 50.7389 124.699 50.2476 124.902 49.8239C125.106 49.3977 125.388 49.0663 125.748 48.8295C126.11 48.5904 126.526 48.4709 126.998 48.4709C127.469 48.4709 127.884 48.5904 128.244 48.8295C128.604 49.0687 128.886 49.4001 129.089 49.8239C129.295 50.2476 129.398 50.7389 129.398 51.2976C129.398 51.8516 129.296 52.3404 129.093 52.7642C128.889 53.1856 128.606 53.5159 128.244 53.755C127.884 53.9941 127.469 54.1136 126.998 54.1136ZM126.998 53.5348C127.376 53.5348 127.697 53.433 127.96 53.2294C128.223 53.0258 128.422 52.7547 128.556 52.4162C128.694 52.0777 128.762 51.7048 128.762 51.2976C128.762 50.8904 128.694 50.5163 128.556 50.1754C128.422 49.8345 128.223 49.5611 127.96 49.3551C127.697 49.1491 127.376 49.0462 126.998 49.0462C126.621 49.0462 126.3 49.1491 126.035 49.3551C125.772 49.5611 125.572 49.8345 125.435 50.1754C125.3 50.5163 125.233 50.8904 125.233 51.2976C125.233 51.7048 125.3 52.0777 125.435 52.4162C125.572 52.7547 125.772 53.0258 126.035 53.2294C126.298 53.433 126.619 53.5348 126.998 53.5348ZM131.418 53.1016L134.298 48.5455H135.054V54H134.422V49.4439L131.553 54H130.786V48.5455H131.418V53.1016ZM133.573 46.7273H134.17C134.17 47.0658 134.057 47.3404 133.833 47.5511C133.61 47.7618 133.306 47.8672 132.92 47.8672C132.539 47.8672 132.237 47.7618 132.014 47.5511C131.792 47.3404 131.681 47.0658 131.681 46.7273H132.277C132.277 46.9119 132.327 47.0682 132.426 47.196C132.528 47.3215 132.693 47.3842 132.92 47.3842C133.147 47.3842 133.313 47.3215 133.417 47.196C133.521 47.0682 133.573 46.9119 133.573 46.7273ZM143.673 48.5455V53.3999H144.252V55.7649H143.619V54H139.543V48.5455H140.178V53.4034H143.037V48.5455H143.673ZM147.747 54.1136C147.238 54.1136 146.797 53.9953 146.426 53.7585C146.054 53.5194 145.766 53.1892 145.563 52.7678C145.362 52.344 145.261 51.8563 145.261 51.3047C145.261 50.7554 145.362 50.2678 145.563 49.8416C145.766 49.4131 146.047 49.0781 146.404 48.8366C146.764 48.5928 147.18 48.4709 147.651 48.4709C147.947 48.4709 148.232 48.5253 148.507 48.6342C148.781 48.7408 149.028 48.9053 149.245 49.1278C149.466 49.348 149.64 49.6262 149.767 49.9624C149.895 50.2962 149.959 50.6915 149.959 51.1484V51.4609H145.698V50.9034H149.313C149.313 50.553 149.242 50.2382 149.1 49.9588C148.96 49.6771 148.765 49.4545 148.514 49.2912C148.265 49.1278 147.978 49.0462 147.651 49.0462C147.305 49.0462 147.001 49.1385 146.738 49.3232C146.475 49.5078 146.27 49.7517 146.12 50.0547C145.974 50.3577 145.899 50.6892 145.897 51.049V51.3828C145.897 51.8161 145.971 52.1948 146.12 52.5192C146.272 52.8411 146.486 53.0909 146.763 53.2685C147.04 53.446 147.368 53.5348 147.747 53.5348C148.005 53.5348 148.231 53.4946 148.425 53.4141C148.622 53.3336 148.786 53.2259 148.919 53.0909C149.054 52.9536 149.155 52.8033 149.224 52.6399L149.824 52.8352C149.741 53.0649 149.605 53.2768 149.416 53.4709C149.229 53.665 148.994 53.8213 148.713 53.9396C148.433 54.0556 148.111 54.1136 147.747 54.1136ZM155.035 50.978V51.5746H151.828V50.978H155.035ZM151.984 48.5455V54H151.352V48.5455H151.984ZM155.5 48.5455V54H154.868V48.5455H155.5ZM156.419 49.142V48.5455H160.68V49.142H158.876V54H158.244V49.142H156.419ZM162.016 56.0455V48.5455H162.631V49.5859H162.705C162.781 49.4226 162.885 49.2557 163.018 49.0852C163.15 48.9124 163.325 48.7668 163.543 48.6484C163.763 48.5301 164.04 48.4709 164.374 48.4709C164.824 48.4709 165.217 48.5893 165.553 48.826C165.892 49.0604 166.154 49.3894 166.341 49.8132C166.531 50.2346 166.626 50.7259 166.626 51.2869C166.626 51.8504 166.531 52.344 166.341 52.7678C166.154 53.1915 165.892 53.5218 165.553 53.7585C165.217 53.9953 164.826 54.1136 164.381 54.1136C164.052 54.1136 163.776 54.0545 163.554 53.9361C163.334 53.8177 163.155 53.6721 163.018 53.4993C162.883 53.3241 162.778 53.1536 162.705 52.9879H162.648V56.0455H162.016ZM162.641 51.2763C162.641 51.7166 162.706 52.1072 162.836 52.4482C162.969 52.7867 163.158 53.053 163.405 53.2472C163.653 53.4389 163.954 53.5348 164.307 53.5348C164.669 53.5348 164.974 53.4354 165.223 53.2365C165.474 53.0353 165.664 52.7642 165.795 52.4233C165.927 52.0824 165.993 51.7 165.993 51.2763C165.993 50.8572 165.928 50.4796 165.798 50.1435C165.67 49.8073 165.481 49.541 165.23 49.3445C164.979 49.1456 164.671 49.0462 164.307 49.0462C163.952 49.0462 163.65 49.142 163.401 49.3338C163.153 49.5232 162.963 49.786 162.833 50.1222C162.705 50.456 162.641 50.8407 162.641 51.2763ZM171.457 53.1016L174.337 48.5455H175.093V54H174.461V49.4439L171.592 54H170.825V48.5455H171.457V53.1016ZM178.893 54.1136C178.405 54.1136 177.98 53.9917 177.618 53.7479C177.258 53.504 176.979 53.1702 176.78 52.7464C176.581 52.3227 176.482 51.8397 176.482 51.2976C176.482 50.7507 176.582 50.2642 176.784 49.8381C176.987 49.4119 177.269 49.0781 177.629 48.8366C177.989 48.5928 178.406 48.4709 178.882 48.4709C179.247 48.4709 179.577 48.5419 179.873 48.6839C180.169 48.8236 180.413 49.0213 180.605 49.277C180.799 49.5303 180.921 49.8262 180.97 50.1648H180.331C180.265 49.857 180.105 49.5942 179.852 49.3764C179.601 49.1562 179.281 49.0462 178.893 49.0462C178.545 49.0462 178.237 49.1409 177.97 49.3303C177.702 49.5173 177.493 49.7789 177.341 50.1151C177.192 50.4489 177.117 50.8359 177.117 51.2763C177.117 51.719 177.191 52.1108 177.338 52.4517C177.484 52.7902 177.69 53.0554 177.955 53.2472C178.223 53.4389 178.535 53.5348 178.893 53.5348C179.134 53.5348 179.355 53.4898 179.553 53.3999C179.755 53.3075 179.923 53.1773 180.058 53.0092C180.195 52.8411 180.287 52.6411 180.335 52.4091H180.974C180.927 52.7382 180.809 53.0317 180.622 53.2898C180.438 53.5455 180.197 53.7467 179.901 53.8935C179.608 54.0402 179.272 54.1136 178.893 54.1136ZM182.336 54V48.5455H186.466V54H185.83V49.142H182.971V54H182.336ZM188.672 50.6513H190.27C190.883 50.6513 191.357 50.8004 191.69 51.0987C192.024 51.397 192.191 51.8007 192.191 52.3097C192.191 52.6482 192.115 52.9441 191.964 53.1974C191.815 53.4508 191.597 53.6484 191.31 53.7905C191.024 53.9302 190.677 54 190.27 54H188.146V48.5455H188.782V53.4034H190.27C190.656 53.4034 190.966 53.3111 191.2 53.1264C191.437 52.9418 191.555 52.679 191.555 52.3381C191.555 51.9901 191.437 51.7214 191.2 51.532C190.966 51.3426 190.656 51.2479 190.27 51.2479H188.672V50.6513ZM193.111 54V48.5455H193.743V54H193.111ZM195.091 49.142V48.5455H199.352V49.142H197.548V54H196.916V49.142H195.091ZM201.928 54.1243C201.599 54.1243 201.299 54.0604 201.026 53.9325C200.754 53.8023 200.537 53.6153 200.376 53.3714C200.215 53.1252 200.135 52.8269 200.135 52.4766C200.135 52.2067 200.186 51.9794 200.288 51.7947C200.389 51.6101 200.534 51.4586 200.721 51.3402C200.908 51.2218 201.129 51.1283 201.385 51.0597C201.641 50.991 201.922 50.9377 202.23 50.8999C202.536 50.862 202.794 50.8288 203.004 50.8004C203.217 50.772 203.379 50.727 203.491 50.6655C203.602 50.6039 203.658 50.5045 203.658 50.3672V50.2393C203.658 49.8677 203.546 49.5753 203.324 49.3622C203.104 49.1468 202.786 49.0391 202.372 49.0391C201.979 49.0391 201.658 49.1255 201.41 49.2983C201.164 49.4711 200.991 49.6747 200.891 49.9091L200.291 49.6925C200.414 49.3942 200.585 49.1562 200.803 48.9787C201.02 48.7988 201.264 48.6697 201.534 48.5916C201.804 48.5111 202.077 48.4709 202.354 48.4709C202.563 48.4709 202.779 48.4981 203.004 48.5526C203.232 48.607 203.442 48.7017 203.636 48.8366C203.83 48.9692 203.988 49.1551 204.109 49.3942C204.229 49.6309 204.29 49.9316 204.29 50.2962V54H203.658V53.1371H203.619C203.543 53.2981 203.43 53.4543 203.281 53.6058C203.132 53.7573 202.945 53.8816 202.72 53.9787C202.495 54.0758 202.231 54.1243 201.928 54.1243ZM202.013 53.5455C202.35 53.5455 202.641 53.4709 202.887 53.3217C203.133 53.1726 203.323 52.9749 203.455 52.7287C203.59 52.4801 203.658 52.2067 203.658 51.9084V51.12C203.61 51.165 203.531 51.2053 203.42 51.2408C203.311 51.2763 203.184 51.3082 203.04 51.3366C202.898 51.3627 202.756 51.3852 202.614 51.4041C202.472 51.4231 202.344 51.4396 202.23 51.4538C201.922 51.4917 201.66 51.5509 201.442 51.6314C201.224 51.7119 201.057 51.8232 200.941 51.9652C200.825 52.1049 200.767 52.2848 200.767 52.505C200.767 52.8364 200.885 53.0933 201.122 53.2756C201.359 53.4555 201.656 53.5455 202.013 53.5455ZM209.654 50.978V51.5746H206.447V50.978H209.654ZM206.603 48.5455V54H205.971V48.5455H206.603ZM210.119 48.5455V54H209.487V48.5455H210.119ZM212.433 53.1016L215.313 48.5455H216.07V54H215.438V49.4439L212.568 54H211.801V48.5455H212.433V53.1016ZM218.371 53.1016L221.251 48.5455H222.007V54H221.375V49.4439L218.506 54H217.739V48.5455H218.371V53.1016ZM220.526 46.7273H221.123C221.123 47.0658 221.011 47.3404 220.786 47.5511C220.563 47.7618 220.259 47.8672 219.873 47.8672C219.492 47.8672 219.19 47.7618 218.968 47.5511C218.745 47.3404 218.634 47.0658 218.634 46.7273H219.23C219.23 46.9119 219.28 47.0682 219.379 47.196C219.481 47.3215 219.646 47.3842 219.873 47.3842C220.1 47.3842 220.266 47.3215 220.37 47.196C220.474 47.0682 220.526 46.9119 220.526 46.7273ZM224.727 53.0057L224.664 53.3857C224.623 53.6413 224.566 53.9231 224.493 54.2308C224.42 54.5386 224.344 54.831 224.266 55.108C224.188 55.3849 224.12 55.6075 224.063 55.7756H223.577C223.608 55.6146 223.647 55.4098 223.694 55.1612C223.744 54.9126 223.795 54.6368 223.847 54.3338C223.899 54.0331 223.946 53.723 223.989 53.4034L224.039 53.0057H224.727ZM92.9652 64.1136C92.4775 64.1136 92.0526 63.9917 91.6903 63.7479C91.3305 63.504 91.0511 63.1702 90.8523 62.7464C90.6534 62.3227 90.554 61.8397 90.554 61.2976C90.554 60.7507 90.6546 60.2642 90.8558 59.8381C91.0594 59.4119 91.3411 59.0781 91.701 58.8366C92.0608 58.5928 92.4787 58.4709 92.9545 58.4709C93.3191 58.4709 93.6494 58.5419 93.9453 58.6839C94.2412 58.8236 94.4851 59.0213 94.6768 59.277C94.871 59.5303 94.9929 59.8262 95.0426 60.1648H94.4034C94.3371 59.857 94.1773 59.5942 93.924 59.3764C93.6731 59.1562 93.3535 59.0462 92.9652 59.0462C92.6172 59.0462 92.3094 59.1409 92.0419 59.3303C91.7744 59.5173 91.5649 59.7789 91.4134 60.1151C91.2642 60.4489 91.1896 60.8359 91.1896 61.2763C91.1896 61.719 91.263 62.1108 91.4098 62.4517C91.5566 62.7902 91.7625 63.0554 92.0277 63.2472C92.2952 63.4389 92.6077 63.5348 92.9652 63.5348C93.2067 63.5348 93.4268 63.4898 93.6257 63.3999C93.8269 63.3075 93.995 63.1773 94.13 63.0092C94.2673 62.8411 94.3596 62.6411 94.407 62.4091H95.0462C94.9988 62.7382 94.8816 63.0317 94.6946 63.2898C94.5099 63.5455 94.2696 63.7467 93.9737 63.8935C93.6802 64.0402 93.344 64.1136 92.9652 64.1136ZM98.6062 64.1136C98.0972 64.1136 97.6568 63.9953 97.2852 63.7585C96.9135 63.5194 96.6258 63.1892 96.4222 62.7678C96.221 62.344 96.1204 61.8563 96.1204 61.3047C96.1204 60.7554 96.221 60.2678 96.4222 59.8416C96.6258 59.4131 96.9064 59.0781 97.2638 58.8366C97.6237 58.5928 98.0392 58.4709 98.5103 58.4709C98.8062 58.4709 99.0915 58.5253 99.3661 58.6342C99.6407 58.7408 99.887 58.9053 100.105 59.1278C100.325 59.348 100.499 59.6262 100.627 59.9624C100.755 60.2962 100.819 60.6915 100.819 61.1484V61.4609H96.5572V60.9034H100.172C100.172 60.553 100.101 60.2382 99.9592 59.9588C99.8195 59.6771 99.6242 59.4545 99.3732 59.2912C99.1246 59.1278 98.837 59.0462 98.5103 59.0462C98.1647 59.0462 97.8604 59.1385 97.5977 59.3232C97.3349 59.5078 97.1289 59.7517 96.9798 60.0547C96.833 60.3577 96.7584 60.6892 96.756 61.049V61.3828C96.756 61.8161 96.8306 62.1948 96.9798 62.5192C97.1313 62.8411 97.3455 63.0909 97.6225 63.2685C97.8995 63.446 98.2274 63.5348 98.6062 63.5348C98.8642 63.5348 99.0903 63.4946 99.2844 63.4141C99.4809 63.3336 99.6455 63.2259 99.7781 63.0909C99.913 62.9536 100.015 62.8033 100.083 62.6399L100.684 62.8352C100.601 63.0649 100.465 63.2768 100.275 63.4709C100.088 63.665 99.8538 63.8213 99.5721 63.9396C99.2927 64.0556 98.9708 64.1136 98.6062 64.1136ZM102.211 66.0455V58.5455H102.826V59.5859H102.9C102.976 59.4226 103.08 59.2557 103.213 59.0852C103.345 58.9124 103.521 58.7668 103.738 58.6484C103.959 58.5301 104.236 58.4709 104.569 58.4709C105.019 58.4709 105.412 58.5893 105.748 58.826C106.087 59.0604 106.35 59.3894 106.537 59.8132C106.726 60.2346 106.821 60.7259 106.821 61.2869C106.821 61.8504 106.726 62.344 106.537 62.7678C106.35 63.1915 106.087 63.5218 105.748 63.7585C105.412 63.9953 105.022 64.1136 104.577 64.1136C104.247 64.1136 103.972 64.0545 103.749 63.9361C103.529 63.8177 103.35 63.6721 103.213 63.4993C103.078 63.3241 102.974 63.1536 102.9 62.9879H102.844V66.0455H102.211ZM102.836 61.2763C102.836 61.7166 102.902 62.1072 103.032 62.4482C103.164 62.7867 103.354 63.053 103.6 63.2472C103.849 63.4389 104.149 63.5348 104.502 63.5348C104.864 63.5348 105.17 63.4354 105.418 63.2365C105.669 63.0353 105.86 62.7642 105.99 62.4233C106.122 62.0824 106.189 61.7 106.189 61.2763C106.189 60.8572 106.124 60.4796 105.993 60.1435C105.866 59.8073 105.676 59.541 105.425 59.3445C105.174 59.1456 104.867 59.0462 104.502 59.0462C104.147 59.0462 103.845 59.142 103.596 59.3338C103.348 59.5232 103.158 59.786 103.028 60.1222C102.9 60.456 102.836 60.8407 102.836 61.2763ZM107.473 59.142V58.5455H111.735V59.142H109.931V64H109.299V59.142H107.473ZM113.703 63.1016L116.583 58.5455H117.339V64H116.707V59.4439L113.838 64H113.071V58.5455H113.703V63.1016ZM121.313 65.8608V56.7273H121.949V65.8608H121.313ZM121.313 64.1136C120.937 64.1136 120.591 64.045 120.276 63.9077C119.961 63.7704 119.688 63.5762 119.456 63.3253C119.226 63.072 119.047 62.7737 118.92 62.4304C118.792 62.0871 118.728 61.7107 118.728 61.3011C118.728 60.8868 118.792 60.5069 118.92 60.1612C119.047 59.8156 119.226 59.5173 119.456 59.2663C119.688 59.0154 119.961 58.8213 120.276 58.6839C120.591 58.5443 120.937 58.4744 121.313 58.4744H121.501V64.1136H121.313ZM121.313 63.5348H121.416V59.0533H121.313C121.008 59.0533 120.734 59.1136 120.493 59.2344C120.251 59.3527 120.046 59.5161 119.878 59.7244C119.71 59.9328 119.582 60.1719 119.495 60.4418C119.407 60.7116 119.363 60.9981 119.363 61.3011C119.363 61.7036 119.44 62.0741 119.594 62.4126C119.751 62.7512 119.974 63.0234 120.265 63.2294C120.557 63.4354 120.906 63.5372 121.313 63.5348ZM121.949 64.1136H121.757V58.4744H121.949C122.323 58.4744 122.667 58.5443 122.982 58.6839C123.299 58.8213 123.573 59.0154 123.802 59.2663C124.034 59.5173 124.214 59.8156 124.342 60.1612C124.47 60.5069 124.534 60.8868 124.534 61.3011C124.534 61.7107 124.47 62.0871 124.342 62.4304C124.214 62.7737 124.034 63.072 123.802 63.3253C123.573 63.5762 123.299 63.7704 122.982 63.9077C122.667 64.045 122.323 64.1136 121.949 64.1136ZM121.949 63.5348C122.254 63.5348 122.526 63.4768 122.765 63.3608C123.007 63.2424 123.212 63.0791 123.38 62.8707C123.55 62.6624 123.679 62.4245 123.767 62.157C123.854 61.8871 123.898 61.6018 123.898 61.3011C123.898 60.8987 123.82 60.527 123.664 60.1861C123.51 59.8452 123.287 59.5717 122.996 59.3658C122.705 59.1574 122.356 59.0533 121.949 59.0533H121.842V63.5348H121.949ZM126.555 63.1016L129.434 58.5455H130.191V64H129.559V59.4439L126.689 64H125.922V58.5455H126.555V63.1016ZM131.86 64V58.5455H132.492V60.9993H133.085L135.113 58.5455H135.93L133.742 61.1697L135.979 64H135.162L133.28 61.5959H132.492V64H131.86ZM138.54 64.1243C138.211 64.1243 137.91 64.0604 137.638 63.9325C137.365 63.8023 137.149 63.6153 136.988 63.3714C136.827 63.1252 136.746 62.8269 136.746 62.4766C136.746 62.2067 136.797 61.9794 136.899 61.7947C137.001 61.6101 137.145 61.4586 137.332 61.3402C137.519 61.2218 137.741 61.1283 137.996 61.0597C138.252 60.991 138.534 60.9377 138.841 60.8999C139.147 60.862 139.405 60.8288 139.616 60.8004C139.829 60.772 139.991 60.727 140.102 60.6655C140.213 60.6039 140.269 60.5045 140.269 60.3672V60.2393C140.269 59.8677 140.158 59.5753 139.935 59.3622C139.715 59.1468 139.398 59.0391 138.983 59.0391C138.59 59.0391 138.27 59.1255 138.021 59.2983C137.775 59.4711 137.602 59.6747 137.503 59.9091L136.903 59.6925C137.026 59.3942 137.196 59.1562 137.414 58.9787C137.632 58.7988 137.876 58.6697 138.145 58.5916C138.415 58.5111 138.689 58.4709 138.966 58.4709C139.174 58.4709 139.391 58.4981 139.616 58.5526C139.843 58.607 140.054 58.7017 140.248 58.8366C140.442 58.9692 140.599 59.1551 140.72 59.3942C140.841 59.6309 140.901 59.9316 140.901 60.2962V64H140.269V63.1371H140.23C140.154 63.2981 140.042 63.4543 139.893 63.6058C139.743 63.7573 139.556 63.8816 139.331 63.9787C139.107 64.0758 138.843 64.1243 138.54 64.1243ZM138.625 63.5455C138.961 63.5455 139.252 63.4709 139.498 63.3217C139.745 63.1726 139.934 62.9749 140.067 62.7287C140.202 62.4801 140.269 62.2067 140.269 61.9084V61.12C140.222 61.165 140.142 61.2053 140.031 61.2408C139.922 61.2763 139.796 61.3082 139.651 61.3366C139.509 61.3627 139.367 61.3852 139.225 61.4041C139.083 61.4231 138.955 61.4396 138.841 61.4538C138.534 61.4917 138.271 61.5509 138.053 61.6314C137.835 61.7119 137.668 61.8232 137.552 61.9652C137.436 62.1049 137.378 62.2848 137.378 62.505C137.378 62.8364 137.497 63.0933 137.733 63.2756C137.97 63.4555 138.267 63.5455 138.625 63.5455ZM146.72 58.5455V63.3999H147.298V65.7649H146.666V64H142.59V58.5455H143.225V63.4034H146.084V58.5455H146.72ZM149.279 63.1016L152.159 58.5455H152.915V64H152.283V59.4439L149.414 64H148.647V58.5455H149.279V63.1016ZM155.217 63.1016L158.097 58.5455H158.853V64H158.221V59.4439L155.352 64H154.585V58.5455H155.217V63.1016ZM163.967 63.1016L166.847 58.5455H167.603V64H166.971V59.4439L164.102 64H163.335V58.5455H163.967V63.1016ZM174.215 64.1136C173.728 64.1136 173.303 63.9917 172.94 63.7479C172.58 63.504 172.301 63.1702 172.102 62.7464C171.903 62.3227 171.804 61.8397 171.804 61.2976C171.804 60.7507 171.905 60.2642 172.106 59.8381C172.309 59.4119 172.591 59.0781 172.951 58.8366C173.311 58.5928 173.729 58.4709 174.205 58.4709C174.569 58.4709 174.899 58.5419 175.195 58.6839C175.491 58.8236 175.735 59.0213 175.927 59.277C176.121 59.5303 176.243 59.8262 176.293 60.1648H175.653C175.587 59.857 175.427 59.5942 175.174 59.3764C174.923 59.1562 174.603 59.0462 174.215 59.0462C173.867 59.0462 173.559 59.1409 173.292 59.3303C173.024 59.5173 172.815 59.7789 172.663 60.1151C172.514 60.4489 172.44 60.8359 172.44 61.2763C172.44 61.719 172.513 62.1108 172.66 62.4517C172.807 62.7902 173.013 63.0554 173.278 63.2472C173.545 63.4389 173.858 63.5348 174.215 63.5348C174.457 63.5348 174.677 63.4898 174.876 63.3999C175.077 63.3075 175.245 63.1773 175.38 63.0092C175.517 62.8411 175.61 62.6411 175.657 62.4091H176.296C176.249 62.7382 176.132 63.0317 175.945 63.2898C175.76 63.5455 175.52 63.7467 175.224 63.8935C174.93 64.0402 174.594 64.1136 174.215 64.1136ZM177.2 59.142V58.5455H181.461V59.142H179.657V64H179.025V59.142H177.2ZM184.038 64.1243C183.709 64.1243 183.408 64.0604 183.136 63.9325C182.863 63.8023 182.647 63.6153 182.486 63.3714C182.325 63.1252 182.244 62.8269 182.244 62.4766C182.244 62.2067 182.295 61.9794 182.397 61.7947C182.499 61.6101 182.643 61.4586 182.83 61.3402C183.017 61.2218 183.239 61.1283 183.494 61.0597C183.75 60.991 184.032 60.9377 184.339 60.8999C184.645 60.862 184.903 60.8288 185.114 60.8004C185.327 60.772 185.489 60.727 185.6 60.6655C185.711 60.6039 185.767 60.5045 185.767 60.3672V60.2393C185.767 59.8677 185.656 59.5753 185.433 59.3622C185.213 59.1468 184.896 59.0391 184.482 59.0391C184.089 59.0391 183.768 59.1255 183.519 59.2983C183.273 59.4711 183.1 59.6747 183.001 59.9091L182.401 59.6925C182.524 59.3942 182.694 59.1562 182.912 58.9787C183.13 58.7988 183.374 58.6697 183.643 58.5916C183.913 58.5111 184.187 58.4709 184.464 58.4709C184.672 58.4709 184.889 58.4981 185.114 58.5526C185.341 58.607 185.552 58.7017 185.746 58.8366C185.94 58.9692 186.097 59.1551 186.218 59.3942C186.339 59.6309 186.399 59.9316 186.399 60.2962V64H185.767V63.1371H185.728C185.652 63.2981 185.54 63.4543 185.391 63.6058C185.241 63.7573 185.054 63.8816 184.83 63.9787C184.605 64.0758 184.341 64.1243 184.038 64.1243ZM184.123 63.5455C184.459 63.5455 184.75 63.4709 184.996 63.3217C185.243 63.1726 185.432 62.9749 185.565 62.7287C185.7 62.4801 185.767 62.2067 185.767 61.9084V61.12C185.72 61.165 185.64 61.2053 185.529 61.2408C185.42 61.2763 185.294 61.3082 185.149 61.3366C185.007 61.3627 184.865 61.3852 184.723 61.4041C184.581 61.4231 184.453 61.4396 184.339 61.4538C184.032 61.4917 183.769 61.5509 183.551 61.6314C183.333 61.7119 183.166 61.8232 183.05 61.9652C182.934 62.1049 182.876 62.2848 182.876 62.505C182.876 62.8364 182.995 63.0933 183.232 63.2756C183.468 63.4555 183.765 63.5455 184.123 63.5455ZM191.763 60.978V61.5746H188.556V60.978H191.763ZM188.713 58.5455V64H188.081V58.5455H188.713ZM192.228 58.5455V64H191.596V58.5455H192.228ZM193.264 65.5518V63.4034H193.737C193.855 63.2708 193.958 63.1276 194.046 62.9737C194.133 62.8198 194.209 62.6446 194.273 62.4482C194.339 62.2493 194.395 62.0185 194.44 61.7557C194.485 61.4905 194.523 61.1816 194.553 60.8288L194.752 58.5455H197.98V63.4034H198.79V65.5518H198.158V64H193.9V65.5518H193.264ZM194.465 63.4034H197.348V59.142H195.342L195.178 60.8288C195.122 61.4018 195.041 61.9013 194.937 62.3274C194.833 62.7536 194.675 63.1122 194.465 63.4034ZM201.518 64.1243C201.189 64.1243 200.888 64.0604 200.616 63.9325C200.344 63.8023 200.127 63.6153 199.966 63.3714C199.805 63.1252 199.725 62.8269 199.725 62.4766C199.725 62.2067 199.776 61.9794 199.877 61.7947C199.979 61.6101 200.124 61.4586 200.311 61.3402C200.498 61.2218 200.719 61.1283 200.975 61.0597C201.23 60.991 201.512 60.9377 201.82 60.8999C202.125 60.862 202.383 60.8288 202.594 60.8004C202.807 60.772 202.969 60.727 203.081 60.6655C203.192 60.6039 203.248 60.5045 203.248 60.3672V60.2393C203.248 59.8677 203.136 59.5753 202.914 59.3622C202.694 59.1468 202.376 59.0391 201.962 59.0391C201.569 59.0391 201.248 59.1255 201 59.2983C200.753 59.4711 200.581 59.6747 200.481 59.9091L199.881 59.6925C200.004 59.3942 200.175 59.1562 200.392 58.9787C200.61 58.7988 200.854 58.6697 201.124 58.5916C201.394 58.5111 201.667 58.4709 201.944 58.4709C202.153 58.4709 202.369 58.4981 202.594 58.5526C202.821 58.607 203.032 58.7017 203.226 58.8366C203.42 58.9692 203.578 59.1551 203.699 59.3942C203.819 59.6309 203.88 59.9316 203.88 60.2962V64H203.248V63.1371H203.208C203.133 63.2981 203.02 63.4543 202.871 63.6058C202.722 63.7573 202.535 63.8816 202.31 63.9787C202.085 64.0758 201.821 64.1243 201.518 64.1243ZM201.603 63.5455C201.94 63.5455 202.231 63.4709 202.477 63.3217C202.723 63.1726 202.913 62.9749 203.045 62.7287C203.18 62.4801 203.248 62.2067 203.248 61.9084V61.12C203.2 61.165 203.121 61.2053 203.01 61.2408C202.901 61.2763 202.774 61.3082 202.63 61.3366C202.488 61.3627 202.346 61.3852 202.203 61.4041C202.061 61.4231 201.934 61.4396 201.82 61.4538C201.512 61.4917 201.249 61.5509 201.032 61.6314C200.814 61.7119 200.647 61.8232 200.531 61.9652C200.415 62.1049 200.357 62.2848 200.357 62.505C200.357 62.8364 200.475 63.0933 200.712 63.2756C200.949 63.4555 201.246 63.5455 201.603 63.5455ZM205.561 66.0455V58.5455H206.175V59.5859H206.25C206.326 59.4226 206.43 59.2557 206.562 59.0852C206.695 58.9124 206.87 58.7668 207.088 58.6484C207.308 58.5301 207.585 58.4709 207.919 58.4709C208.369 58.4709 208.762 58.5893 209.098 58.826C209.437 59.0604 209.699 59.3894 209.886 59.8132C210.076 60.2346 210.17 60.7259 210.17 61.2869C210.17 61.8504 210.076 62.344 209.886 62.7678C209.699 63.1915 209.437 63.5218 209.098 63.7585C208.762 63.9953 208.371 64.1136 207.926 64.1136C207.597 64.1136 207.321 64.0545 207.099 63.9361C206.879 63.8177 206.7 63.6721 206.562 63.4993C206.428 63.3241 206.323 63.1536 206.25 62.9879H206.193V66.0455H205.561ZM206.186 61.2763C206.186 61.7166 206.251 62.1072 206.381 62.4482C206.514 62.7867 206.703 63.053 206.95 63.2472C207.198 63.4389 207.499 63.5348 207.852 63.5348C208.214 63.5348 208.519 63.4354 208.768 63.2365C209.019 63.0353 209.209 62.7642 209.339 62.4233C209.472 62.0824 209.538 61.7 209.538 61.2763C209.538 60.8572 209.473 60.4796 209.343 60.1435C209.215 59.8073 209.026 59.541 208.775 59.3445C208.524 59.1456 208.216 59.0462 207.852 59.0462C207.496 59.0462 207.195 59.142 206.946 59.3338C206.697 59.5232 206.508 59.786 206.378 60.1222C206.25 60.456 206.186 60.8407 206.186 61.2763ZM210.823 59.142V58.5455H215.084V59.142H213.28V64H212.648V59.142H210.823ZM217.053 63.1016L219.933 58.5455H220.689V64H220.057V59.4439L217.188 64H216.42V58.5455H217.053V63.1016ZM222.006 62.608H222.678C222.696 62.8991 222.822 63.1264 223.054 63.2898C223.286 63.4531 223.591 63.5348 223.97 63.5348C224.363 63.5348 224.688 63.4472 224.943 63.272C225.199 63.0945 225.327 62.8364 225.327 62.4979C225.327 62.2919 225.278 62.1132 225.181 61.9616C225.086 61.8101 224.956 61.6918 224.79 61.6065C224.627 61.5189 224.441 61.474 224.233 61.4716H223.281V60.8928H224.222C224.547 60.8738 224.793 60.7862 224.961 60.63C225.129 60.4714 225.213 60.2642 225.213 60.0085C225.213 59.7173 225.11 59.4841 224.904 59.3089C224.698 59.1314 224.419 59.0426 224.066 59.0426C223.709 59.0426 223.411 59.1302 223.175 59.3054C222.938 59.4806 222.813 59.7055 222.798 59.9801H222.134C222.146 59.6842 222.235 59.4238 222.401 59.1989C222.566 58.9716 222.79 58.794 223.072 58.6662C223.356 58.5384 223.678 58.4744 224.038 58.4744C224.407 58.4744 224.728 58.5407 225 58.6733C225.272 58.8059 225.483 58.987 225.632 59.2166C225.781 59.4439 225.856 59.7019 225.856 59.9908C225.856 60.2914 225.773 60.5388 225.607 60.733C225.444 60.9247 225.234 61.0597 224.979 61.1378V61.1911C225.173 61.2124 225.343 61.2834 225.49 61.4041C225.639 61.5249 225.756 61.6799 225.842 61.8693C225.927 62.0587 225.969 62.2682 225.969 62.4979C225.969 62.8198 225.885 63.1027 225.717 63.3466C225.549 63.5881 225.315 63.7763 225.014 63.9112C224.716 64.0462 224.371 64.1136 223.981 64.1136C223.604 64.1136 223.269 64.0509 222.976 63.9254C222.682 63.7976 222.449 63.6212 222.276 63.3963C222.106 63.169 222.016 62.9062 222.006 62.608ZM228.794 64.1243C228.464 64.1243 228.164 64.0604 227.892 63.9325C227.619 63.8023 227.403 63.6153 227.242 63.3714C227.081 63.1252 227 62.8269 227 62.4766C227 62.2067 227.051 61.9794 227.153 61.7947C227.255 61.6101 227.399 61.4586 227.586 61.3402C227.773 61.2218 227.994 61.1283 228.25 61.0597C228.506 60.991 228.788 60.9377 229.095 60.8999C229.401 60.862 229.659 60.8288 229.869 60.8004C230.083 60.772 230.245 60.727 230.356 60.6655C230.467 60.6039 230.523 60.5045 230.523 60.3672V60.2393C230.523 59.8677 230.412 59.5753 230.189 59.3622C229.969 59.1468 229.652 59.0391 229.237 59.0391C228.844 59.0391 228.524 59.1255 228.275 59.2983C228.029 59.4711 227.856 59.6747 227.757 59.9091L227.156 59.6925C227.28 59.3942 227.45 59.1562 227.668 58.9787C227.886 58.7988 228.129 58.6697 228.399 58.5916C228.669 58.5111 228.943 58.4709 229.22 58.4709C229.428 58.4709 229.645 58.4981 229.869 58.5526C230.097 58.607 230.307 58.7017 230.502 58.8366C230.696 58.9692 230.853 59.1551 230.974 59.3942C231.095 59.6309 231.155 59.9316 231.155 60.2962V64H230.523V63.1371H230.484C230.408 63.2981 230.296 63.4543 230.146 63.6058C229.997 63.7573 229.81 63.8816 229.585 63.9787C229.36 64.0758 229.097 64.1243 228.794 64.1243ZM228.879 63.5455C229.215 63.5455 229.506 63.4709 229.752 63.3217C229.999 63.1726 230.188 62.9749 230.32 62.7287C230.455 62.4801 230.523 62.2067 230.523 61.9084V61.12C230.476 61.165 230.396 61.2053 230.285 61.2408C230.176 61.2763 230.049 61.3082 229.905 61.3366C229.763 61.3627 229.621 61.3852 229.479 61.4041C229.337 61.4231 229.209 61.4396 229.095 61.4538C228.788 61.4917 228.525 61.5509 228.307 61.6314C228.089 61.7119 227.922 61.8232 227.806 61.9652C227.69 62.1049 227.632 62.2848 227.632 62.505C227.632 62.8364 227.751 63.0933 227.987 63.2756C228.224 63.4555 228.521 63.5455 228.879 63.5455ZM236.974 58.5455V63.3999H237.552V65.7649H236.92V64H232.844V58.5455H233.479V63.4034H236.338V58.5455H236.974ZM239.533 63.1016L242.413 58.5455H243.169V64H242.537V59.4439L239.668 64H238.901V58.5455H239.533V63.1016ZM245.471 63.1016L248.35 58.5455H249.107V64H248.475V59.4439L245.605 64H244.838V58.5455H245.471V63.1016Z" fill="white"/>
</svg>
