<svg width="212" height="52" viewBox="0 0 212 52" fill="none" xmlns="http://www.w3.org/2000/svg">
<path d="M18.4579 2.07477L18.4018 2.08466L18.3645 2.09229C18.2371 2.13084 18.2991 2.11838 18.243 2.13084C16.729 2.57321 14.7227 3.35826 13.6137 3.93769C10.7975 5.41433 8.13083 7.53894 6.16198 9.86293C2.99064 13.6199 1.15263 17.7321 0.436122 22.6791C0.261668 23.9065 0.249207 24.0748 0.249207 26C0.249207 27.9252 0.261668 28.0935 0.436122 29.3209C0.841107 32.1122 1.60123 34.6231 2.78503 37.0343C4.06852 39.6698 6.2679 42.5607 8.39874 44.4299C10.7476 46.486 12.9408 47.8754 15.3582 48.8536C17.676 49.7944 19.5452 50.2928 21.9003 50.6106C22.891 50.7477 23.2523 50.7664 24.9906 50.7664C27.0467 50.7664 27.6075 50.7165 29.4704 50.3925C32.1931 49.9065 35.3458 48.729 37.6947 47.3084C39.4517 46.2492 41.5327 44.5857 42.866 43.1776C46.542 39.3022 48.7539 34.7103 49.5327 29.3209C49.7072 28.0935 49.7196 27.9252 49.7196 26C49.7196 24.0748 49.7072 23.9065 49.5327 22.6791C49.1277 19.8878 48.3676 17.3769 47.1838 14.9657C45.9003 12.3302 43.7009 9.43925 41.5701 7.5701C39.2212 5.51402 37.028 4.12461 34.6106 3.14642C32.3053 2.21184 30.567 1.74454 28.081 1.3894C27.0779 1.24611 26.785 1.23365 24.9844 1.23365C23.19 1.23365 22.8847 1.24611 21.8878 1.3894C20.7975 1.54517 19.6075 1.76947 18.9533 1.94392C18.7788 1.99377 18.4813 1.95795 18.4813 2.00467C18.4346 1.95795 18.4081 2.37383 18.4579 2.07477C18.5078 1.76947 19.0623 1.99159 19.081 1.92929C19.1184 1.81091 18.8069 1.98131 18.4579 2.07477ZM26.9782 2.32399C28.4673 2.46729 29.9065 2.72897 29.9065 2.85358C29.9065 3.03427 28.6916 3.67601 27.7819 3.97508C26.7601 4.3053 25.9003 4.43613 24.704 4.43613C23.5202 4.43613 22.704 4.31152 21.7445 3.98131C20.6916 3.62617 19.6635 3.06542 19.7009 2.86604C19.7196 2.75389 19.7944 2.7352 20.9346 2.54206C22.6916 2.23676 25.1838 2.1433 26.9782 2.32399ZM32.2367 3.45794C33.7882 3.93769 35.4143 4.67913 36.729 5.50156C37.9252 6.24922 38.4424 6.60436 38.4424 6.68536C38.4424 6.77259 36.4237 7.96262 36.2804 7.96262C36.2367 7.96262 35.7632 7.5514 35.2336 7.05296C33.9314 5.81308 32.6791 4.85358 31.3271 4.04361C30.6729 3.65109 30.6542 3.59502 31.0592 3.30841C31.271 3.15265 31.2586 3.15265 32.2367 3.45794ZM18.6417 3.41433C18.7663 3.51402 18.8598 3.64486 18.8536 3.6947C18.8473 3.74455 18.648 3.90654 18.405 4.04984C17.0779 4.84735 15.1713 6.31776 14.1121 7.35202C13.7072 7.75078 13.3769 8.02492 13.3022 8.02492C13.2336 8.02492 12.9657 7.90031 12.7103 7.75078C12.4548 7.59502 12.0124 7.34579 11.7383 7.1838C11.0779 6.8162 11.0467 6.77882 11.2648 6.57944C11.4455 6.40498 12.5732 5.65109 13.0218 5.39564C14.0498 4.80997 15.838 3.99377 16.9782 3.59501C17.2523 3.50156 17.5888 3.37695 17.7258 3.3271C18.1246 3.17757 18.38 3.20249 18.6417 3.41433ZM20.8224 4.6729C21.0716 4.77259 21.1838 4.85358 21.1838 4.92835C21.1838 4.99065 21.0218 5.25233 20.8224 5.52025C20.3489 6.1433 19.8131 6.94081 19.8131 7.02804C19.8131 7.05919 19.7881 7.09034 19.7508 7.09034C19.7196 7.09034 19.6885 7.13396 19.6885 7.1838C19.6885 7.23365 19.6635 7.27726 19.6262 7.27726C19.595 7.27726 19.5638 7.32087 19.5638 7.37072C19.5638 7.42056 19.5389 7.46418 19.5015 7.46418C19.4704 7.46418 19.4268 7.53271 19.4019 7.61994C19.3832 7.70716 19.3396 7.7757 19.3146 7.7757C19.2835 7.7757 19.2399 7.83801 19.2149 7.91277C19.19 7.99377 19.1464 8.07476 19.1153 8.09346C19.0841 8.11215 19.0529 8.16822 19.0405 8.21807C19.0343 8.26791 18.8349 8.64798 18.5981 9.06542C18.324 9.55763 18.1308 9.83178 18.0623 9.83178C17.9128 9.83178 15.838 9.14019 15.0654 8.83489C14.6916 8.68536 14.3925 8.53583 14.3925 8.49221C14.3925 8.33645 16.0934 6.85981 17.2274 6.03115C17.5701 5.7757 17.8629 5.5514 17.8816 5.52648C17.9314 5.46418 18.5919 5.04673 19.2772 4.64797L19.8941 4.29284L20.1807 4.41121C20.3364 4.47352 20.6293 4.5919 20.8224 4.6729ZM30.2056 4.52959C30.81 4.83489 32.2866 5.82555 33.1464 6.49844C33.9252 7.10904 35.0592 8.12461 35.19 8.31776C35.2772 8.45483 35.2648 8.46729 34.8536 8.65421C33.8629 9.09657 31.8629 9.76947 31.5202 9.76947C31.4517 9.76947 31.3022 9.58255 31.1153 9.25234C30.947 8.97196 30.5857 8.37383 30.3053 7.919C30.0249 7.4704 29.8131 7.08411 29.8318 7.06542C29.8505 7.04673 29.8318 7.02804 29.7944 7.02804C29.7508 7.02804 29.7196 6.98442 29.7196 6.93458C29.7196 6.88474 29.6947 6.84112 29.6573 6.84112C29.6262 6.84112 29.595 6.79751 29.595 6.74766C29.595 6.69782 29.5701 6.65421 29.5327 6.65421C29.5015 6.65421 29.4704 6.61059 29.4704 6.56075C29.4704 6.5109 29.4455 6.46729 29.4081 6.46729C29.3769 6.46729 29.3458 6.42368 29.3458 6.37383C29.3458 6.32399 29.3209 6.28037 29.2835 6.28037C29.2523 6.28037 29.2212 6.23676 29.2212 6.18692C29.2212 6.13707 29.1962 6.09346 29.1589 6.09346C29.1277 6.09346 29.0966 6.05608 29.0966 6.00623C29.0966 5.95639 29.0779 5.90654 29.0529 5.89408C28.9782 5.86293 28.3489 4.92835 28.3489 4.85358C28.3489 4.8162 28.3738 4.78505 28.405 4.78505C28.4424 4.78505 28.6978 4.6729 28.9844 4.53582C29.271 4.40498 29.5514 4.29283 29.6137 4.2866C29.6822 4.2866 29.9439 4.39252 30.2056 4.52959ZM23.352 5.33957C23.838 5.40187 24.2554 5.47041 24.2866 5.49533C24.3115 5.52025 24.3364 6.68536 24.3489 8.08723L24.3676 10.6293L24.1371 10.6729C23.6885 10.7539 21.4766 10.5607 20.2056 10.3302C19.2087 10.1433 19.19 10.1371 19.19 10.0062C19.19 9.57009 22.1059 5.21495 22.3863 5.22118C22.4299 5.22742 22.8598 5.27726 23.352 5.33957ZM27.7445 5.87539C28.5607 6.92212 29.9875 9.1028 29.9875 9.30841C29.9875 9.35202 30.0311 9.4081 30.0748 9.42056C30.1246 9.43925 30.1433 9.48287 30.1246 9.52025C30.1059 9.5514 30.1184 9.58255 30.1558 9.58255C30.1931 9.58255 30.2056 9.60748 30.1869 9.64486C30.1682 9.67601 30.1807 9.70716 30.2181 9.70716C30.2554 9.70716 30.2679 9.73209 30.2492 9.76947C30.2305 9.80062 30.243 9.83178 30.2804 9.83178C30.3177 9.83178 30.3364 9.8567 30.3177 9.88785C30.2928 9.919 30.3177 9.95639 30.3551 9.96885C30.785 10.1121 28.0436 10.5732 26.1308 10.6791L25.3707 10.7165L25.3271 9.95015C25.2835 9.11526 25.3084 5.56386 25.3582 5.51402C25.4019 5.47041 26.9782 5.23364 27.1339 5.23988C27.2087 5.24611 27.4392 5.4891 27.7445 5.87539ZM40.0997 7.90654C40.4361 8.18691 41.1215 8.82243 41.6075 9.3271C42.4984 10.2305 42.5047 10.2368 42.3053 10.2555C42.1682 10.2679 42.0748 10.2368 42 10.1495C41.9252 10.0623 41.8131 10.0187 41.6635 10.0187C41.5452 10.0187 41.433 9.98754 41.4205 9.94392C41.4019 9.89408 41.1838 9.86293 40.8037 9.84423C40.3177 9.82554 40.1931 9.83801 40.1121 9.919C40.0561 9.97508 39.9377 10.0187 39.8505 10.0187C39.7321 10.0187 39.6885 10.0498 39.6885 10.1433C39.6885 10.2181 39.6448 10.2679 39.5888 10.2679C39.4019 10.2679 39.3146 10.4361 39.3146 10.7913C39.3146 11.0717 39.2959 11.1402 39.2149 11.1402C39.1589 11.1402 39.0343 11.2212 38.9408 11.3271C38.8473 11.4268 38.7352 11.514 38.6978 11.514C38.5919 11.514 38.3177 11.8069 38.3177 11.919C38.3177 11.9938 38.2367 12.0125 37.9439 12.0125C37.5825 12.0125 37.5701 12.0062 37.5701 11.8567C37.5701 11.6573 37.19 11.2648 37.0093 11.2648C36.9346 11.2648 36.8349 11.3022 36.785 11.352C36.6853 11.4517 36.6667 11.8878 36.7601 11.8878C36.7975 11.8878 36.8224 12 36.8224 12.1371C36.8224 12.2741 36.8536 12.3863 36.8847 12.3863C36.9221 12.3863 36.947 12.4673 36.947 12.5732C36.947 12.6729 36.9782 12.7601 37.0093 12.7601C37.0467 12.7601 37.0716 13.134 37.0716 13.757C37.0716 14.3801 37.0467 14.7539 37.0093 14.7539C36.9782 14.7539 36.947 14.7975 36.947 14.8536C36.947 14.9034 36.8349 15.0592 36.6978 15.19C36.5607 15.3209 36.4486 15.4766 36.4486 15.5265C36.4486 15.595 36.3925 15.6262 36.2617 15.6262C36.162 15.6262 36.0748 15.6511 36.0748 15.6885C36.0748 15.7196 36.0187 15.7508 35.9501 15.7508C35.8816 15.7508 35.8255 15.7757 35.8255 15.8131C35.8255 15.8442 35.7819 15.8754 35.7321 15.8754C35.6199 15.8754 35.3271 16.1495 35.3271 16.2492C35.3271 16.3427 34.9096 16.7477 34.8162 16.7477C34.7663 16.7477 34.6916 16.6916 34.6417 16.6231C34.4922 16.4174 34.2866 16.4673 33.9564 16.81C33.6635 17.109 33.6386 17.1215 33.3084 17.1215C33.0343 17.1215 32.9595 17.1402 32.9595 17.2212C32.9595 17.3458 32.81 17.4953 32.6853 17.4953C32.6293 17.4953 32.5857 17.5452 32.5857 17.6075C32.5857 17.6698 32.5296 17.757 32.461 17.8069C32.3676 17.8754 32.3364 17.9688 32.3364 18.1931C32.3364 18.4798 32.3427 18.4922 32.5171 18.4922C32.6168 18.4922 32.7103 18.5296 32.729 18.5794C32.7726 18.6854 32.7227 18.7414 32.6043 18.7414C32.486 18.7414 32.3364 18.8972 32.3364 19.0156C32.3364 19.0717 32.3115 19.1153 32.2741 19.1153C32.243 19.1153 32.2118 19.1589 32.2118 19.215C32.2118 19.3271 32.0623 19.4891 31.9626 19.4891C31.919 19.4891 31.8068 19.4019 31.7134 19.3022C31.5825 19.1589 31.4829 19.1153 31.3146 19.1153C31.19 19.1153 31.0903 19.1402 31.0903 19.1776C31.0903 19.2087 30.9533 19.2399 30.7788 19.2399C30.6106 19.2399 30.4673 19.2648 30.4673 19.3022C30.4673 19.3333 30.3863 19.3645 30.2804 19.3645C30.1807 19.3645 30.0934 19.3894 30.0934 19.4268C30.0934 19.4579 29.9813 19.4891 29.8442 19.4891C29.7072 19.4891 29.595 19.514 29.595 19.5514C29.595 19.5826 29.5389 19.6137 29.4704 19.6137C29.4019 19.6137 29.3458 19.5826 29.3458 19.5514C29.3458 19.514 29.0966 19.4891 28.7227 19.4891H28.0997V19.3022C28.0997 19.1963 28.1308 19.1153 28.162 19.1153C28.1994 19.1153 28.2243 19.028 28.2243 18.9283C28.2243 18.8224 28.1994 18.7414 28.162 18.7414C28.1308 18.7414 28.0997 18.6854 28.0997 18.6168C28.0997 18.5483 28.0748 18.4922 28.0374 18.4922C28.0062 18.4922 27.9751 18.4361 27.9751 18.3676C27.9751 18.2866 27.9314 18.243 27.8629 18.243C27.8006 18.243 27.7134 18.1869 27.6635 18.1184C27.6012 18.0312 27.5015 17.9938 27.3396 17.9938C27.2087 17.9938 27.1028 17.9626 27.1028 17.9315C27.1028 17.8941 27.0467 17.8692 26.9782 17.8692C26.8847 17.8692 26.8536 17.8255 26.8536 17.6947C26.8536 17.595 26.8037 17.4829 26.729 17.433C26.6604 17.3832 26.6043 17.296 26.6043 17.2336C26.6043 17.1713 26.5607 17.1215 26.5109 17.1215C26.4548 17.1215 26.3427 17.053 26.2617 16.9657C26.1246 16.8349 26.1059 16.7601 26.1059 16.405V16H25.8567C25.7196 16 25.6075 15.9688 25.6075 15.9377C25.6075 15.9003 25.4392 15.8754 25.2336 15.8754C25.028 15.8754 24.8598 15.8505 24.8598 15.8131C24.8598 15.7757 24.6106 15.7508 24.2367 15.7508H23.6137V16C23.6137 16.2181 23.6324 16.2492 23.757 16.2555C23.8318 16.2555 23.8567 16.2741 23.8193 16.2928C23.7757 16.3053 23.7383 16.4174 23.7383 16.5358C23.7383 16.704 23.7632 16.7477 23.8629 16.7477C23.9564 16.7477 23.9875 16.7913 23.9875 16.9097C23.9875 17.0903 24.1184 17.2461 24.2617 17.2461C24.3177 17.2461 24.3614 17.2897 24.3614 17.3458C24.3614 17.4704 24.5109 17.6199 24.6355 17.6199C24.6916 17.6199 24.7352 17.6449 24.7352 17.6822C24.7352 17.7134 24.81 17.7445 24.8972 17.7445C25.109 17.7445 25.2336 17.8816 25.2336 18.1184C25.2336 18.3302 25.1153 18.4922 24.9595 18.4922C24.9034 18.4922 24.8598 18.5171 24.8598 18.5545C24.8598 18.5857 24.81 18.6168 24.7477 18.6168C24.6853 18.6168 24.5981 18.6729 24.5483 18.7414C24.4984 18.81 24.4112 18.866 24.3489 18.866C24.2866 18.866 24.2367 18.9097 24.2367 18.9595C24.2367 19.0903 23.9564 19.3645 23.8255 19.3645C23.7445 19.3645 23.7321 19.4019 23.7632 19.5514C23.7819 19.6698 23.7695 19.7383 23.7258 19.7383C23.6885 19.7383 23.6698 19.7196 23.6947 19.7009C23.7134 19.676 23.595 19.5265 23.4205 19.3583C23.2523 19.1963 23.1153 19.028 23.1153 18.9907C23.1153 18.8536 22.9346 18.7414 22.7165 18.7414C22.4984 18.7414 22.4922 18.7477 22.4922 18.9907C22.4922 19.1277 22.4673 19.2399 22.4299 19.2399C22.3925 19.2399 22.3676 19.4206 22.3676 19.6511C22.3676 20.0748 22.2866 20.2368 22.0872 20.2368C22.0124 20.2368 21.9875 20.2804 22.0062 20.405C22.0187 20.5483 22 20.5857 21.8878 20.5981C21.8068 20.6106 21.7445 20.5919 21.7445 20.5545C21.7445 20.5171 21.6885 20.486 21.6199 20.486C21.5514 20.486 21.4953 20.4548 21.4953 20.4237C21.4953 20.3863 21.4455 20.3614 21.3832 20.3614C21.3209 20.3614 21.2336 20.3053 21.1838 20.2368C21.1339 20.1682 21.0467 20.1121 20.9844 20.1121C20.9221 20.1121 20.8723 20.081 20.8723 20.0498C20.8723 19.9377 20.5296 19.9813 20.4361 20.1121C20.3863 20.1807 20.2991 20.2368 20.2367 20.2368C20.1744 20.2368 20.1246 20.2617 20.1246 20.2991C20.1246 20.3302 20.0748 20.3614 20.0124 20.3614C19.9501 20.3614 19.8629 20.4174 19.8131 20.486C19.7632 20.5545 19.676 20.6106 19.6137 20.6106C19.5514 20.6106 19.5015 20.6355 19.5015 20.6729C19.5015 20.704 19.4455 20.7352 19.3769 20.7352C19.2959 20.7352 19.2523 20.7788 19.2523 20.8598C19.2523 20.9657 19.2087 20.9844 19.0031 20.9844H18.7539V21.3583C18.7539 21.8131 18.6729 21.838 18.3364 21.5078C18.1433 21.3146 18.1121 21.2399 18.1184 21.0218C18.1246 20.8847 18.162 20.7539 18.1931 20.7477C18.2305 20.7352 18.2554 20.6729 18.2554 20.6044C18.2554 20.5421 18.2866 20.486 18.3177 20.486C18.3551 20.486 18.38 20.4424 18.38 20.3925C18.38 20.2804 18.9034 19.7383 19.0093 19.7383C19.0467 19.7383 19.1589 19.6511 19.2523 19.5514C19.4205 19.3707 19.4517 19.3645 19.9501 19.3645C20.3987 19.3645 20.486 19.3458 20.5607 19.2399C20.6106 19.1713 20.7165 19.1153 20.7913 19.1153C20.8847 19.1153 21.0779 18.972 21.3396 18.7103C21.6822 18.3676 21.7445 18.2741 21.7445 18.0872V17.8692H21.3707C21.1651 17.8692 20.9969 17.8442 20.9969 17.8069C20.9969 17.7695 20.729 17.7445 20.3115 17.7445C19.8941 17.7445 19.6262 17.7695 19.6262 17.8069C19.6262 17.838 19.514 17.8692 19.3769 17.8692C19.2399 17.8692 19.1277 17.8941 19.1277 17.9315C19.1277 17.9626 19.028 17.9938 18.9034 17.9938C18.7352 17.9938 18.6355 18.0374 18.5047 18.1807C18.4112 18.2804 18.2928 18.3676 18.243 18.3676C18.1994 18.3676 18.1184 18.4237 18.0685 18.4922C18.0187 18.5607 17.9439 18.6168 17.8941 18.6168C17.7819 18.6168 17.5078 18.9034 17.5078 19.0218C17.5078 19.0717 17.4829 19.1153 17.4455 19.1153C17.4143 19.1153 17.3832 19.1589 17.3832 19.215C17.3832 19.2648 17.271 19.4206 17.1339 19.5514C16.9969 19.6822 16.8847 19.838 16.8847 19.8878C16.8847 19.9439 16.8349 19.9875 16.7601 19.9875C16.648 19.9875 16.6355 20.0312 16.6355 20.486V20.9844H16.0374H15.4392L15.2025 20.7352C14.9906 20.5171 14.9283 20.486 14.6791 20.486C14.5234 20.486 14.3925 20.4548 14.3925 20.4237C14.3925 20.3863 14.2056 20.3614 13.9564 20.3614H13.5202V19.9875C13.5202 19.7819 13.4953 19.6137 13.4579 19.6137C13.4268 19.6137 13.3956 19.5576 13.3956 19.4891C13.3956 19.4081 13.352 19.3645 13.271 19.3645C13.1589 19.3645 13.1464 19.3209 13.1464 18.9907C13.1464 18.6604 13.1589 18.6168 13.271 18.6168C13.3707 18.6168 13.3956 18.5732 13.3956 18.4299C13.3956 18.2866 13.3707 18.243 13.271 18.243C13.2025 18.243 13.1464 18.2118 13.1464 18.1807C13.1464 18.1433 13.0966 18.1184 13.0343 18.1184C12.9719 18.1184 12.8847 18.0623 12.8349 17.9938C12.785 17.9252 12.704 17.8692 12.648 17.8692C12.5919 17.8692 12.5109 17.8131 12.461 17.7445C12.3115 17.5389 12 17.5826 11.7445 17.838C11.6262 17.9564 11.5265 18.081 11.5265 18.1184C11.5265 18.2492 11.0966 18.6168 10.9346 18.6168C10.8473 18.6168 10.7788 18.6417 10.7788 18.6791C10.7788 18.7103 10.6667 18.7414 10.5296 18.7414C10.3925 18.7414 10.2804 18.7664 10.2804 18.8037C10.2804 18.8349 10.1994 18.866 10.0934 18.866C9.95637 18.866 9.90653 18.8972 9.90653 18.9782C9.90653 19.0405 9.85045 19.1277 9.78192 19.1776C9.71338 19.2274 9.65731 19.3022 9.65731 19.352C9.65731 19.4642 9.3707 19.7383 9.25232 19.7383C9.20248 19.7383 9.15886 19.7632 9.15886 19.8006C9.15886 19.8318 9.10279 19.8629 9.03425 19.8629C8.96572 19.8629 8.90964 19.8878 8.90964 19.9252C8.90964 19.9626 8.71027 19.9875 8.43612 19.9875C7.98752 19.9875 7.95014 20 7.78815 20.1745C7.69469 20.2741 7.57631 20.3614 7.52647 20.3614C7.48285 20.3614 7.40186 20.4174 7.35201 20.486C7.30217 20.5545 7.2274 20.6106 7.17756 20.6106C7.06541 20.6106 6.91587 20.7664 6.91587 20.8847C6.91587 20.9408 6.86603 20.9844 6.79126 20.9844C6.72273 20.9844 6.66665 21.0093 6.66665 21.0467C6.66665 21.0779 6.61058 21.109 6.54204 21.109C6.47351 21.109 6.41743 21.134 6.41743 21.1713C6.41743 21.2025 6.36759 21.2336 6.30528 21.2336C6.24298 21.2336 6.15575 21.2897 6.10591 21.3583C6.05606 21.4268 5.96883 21.4829 5.90653 21.4829C5.84422 21.4829 5.79438 21.5078 5.79438 21.5452C5.79438 21.5763 5.75076 21.6075 5.70092 21.6075C5.58254 21.6075 5.17133 22.0062 5.17133 22.1184C5.17133 22.1682 5.11525 22.243 5.04671 22.2928C4.97818 22.3427 4.9221 22.4548 4.9221 22.5421C4.9221 22.6293 4.86603 22.7414 4.79749 22.7913C4.70404 22.8598 4.67288 22.9533 4.67288 23.1776C4.67288 23.3396 4.64796 23.4766 4.61058 23.4766C4.57942 23.4766 4.54827 23.5203 4.54827 23.5763C4.54827 23.6947 4.39874 23.8505 4.28659 23.8505C4.23675 23.8505 4.16198 23.9065 4.11214 23.9751C4.06229 24.0436 3.98752 24.0997 3.93768 24.0997C3.76946 24.0997 3.676 24.2741 3.676 24.6106C3.676 24.8723 3.70092 24.9657 3.80061 25.0343C3.86914 25.0841 3.92522 25.1713 3.92522 25.2336C3.92522 25.3084 3.97506 25.3458 4.06852 25.352C4.14329 25.352 4.16821 25.3707 4.13083 25.3894C3.99999 25.4393 4.03737 25.595 4.17444 25.595C4.29282 25.595 4.29905 25.6386 4.29905 26.3427C4.29905 26.7975 4.32397 27.0903 4.36136 27.0903C4.39874 27.0903 4.42366 27.2025 4.42366 27.3333C4.42366 27.4704 4.45481 27.6012 4.48597 27.6199C4.52335 27.6386 4.54827 27.8255 4.54827 28.0312C4.54827 28.2368 4.57319 28.3988 4.61058 28.3988C4.64796 28.3988 4.67288 28.4673 4.67288 28.5545C4.67288 28.7726 4.04983 29.3956 3.83176 29.3956C3.74453 29.3956 3.676 29.4206 3.676 29.4579C3.676 29.4891 3.61992 29.5203 3.55139 29.5203C3.48285 29.5203 3.42678 29.5452 3.42678 29.5826C3.42678 29.6137 3.34578 29.6449 3.23986 29.6449C3.09656 29.6449 3.05295 29.6698 3.05295 29.7695C3.05295 30 2.7788 29.9252 2.58566 29.6449C2.4922 29.5078 2.36759 29.3956 2.31774 29.3956C2.24298 29.3956 2.24921 29.3645 2.35513 29.2523C2.46728 29.134 2.4922 29.0343 2.4922 28.7041C2.4922 28.3738 2.47351 28.2928 2.36759 28.2243C2.2679 28.162 2.21805 28.162 2.11837 28.2243C2.01868 28.2866 1.96883 28.2804 1.82553 28.1745C1.72584 28.0997 1.58877 28.0249 1.514 28C1.33955 27.9439 1.25232 28.081 1.39562 28.1869C1.46416 28.2368 1.47662 28.2741 1.43924 28.3053C1.40185 28.324 1.3707 28.4237 1.3707 28.5296C1.3707 28.6791 1.34578 28.7103 1.22117 28.7103C1.01556 28.7103 0.915873 28.8474 0.99064 29.028C1.06541 29.2274 1.36447 29.5203 1.48908 29.5203C1.54516 29.5203 1.65731 29.5763 1.74453 29.6449C1.83176 29.7134 1.95014 29.7695 2.00622 29.7695C2.06229 29.7695 2.14952 29.8442 2.19936 29.9377C2.24298 30.0374 2.31151 30.1059 2.34266 30.0997C2.37382 30.0935 2.39251 30.5047 2.38005 31.109L2.36136 32.1308L3.02179 32.785C3.38316 33.1464 3.676 33.4829 3.676 33.5265C3.676 33.5701 3.73207 33.6449 3.80061 33.6947C3.86914 33.7446 3.92522 33.8318 3.92522 33.8941C3.92522 33.9564 3.96883 34.0062 4.01868 34.0062C4.14329 34.0062 4.42366 34.2866 4.42366 34.4112C4.42366 34.4611 4.45481 34.5047 4.48597 34.5047C4.52335 34.5047 4.54827 34.6044 4.54827 34.729C4.54827 34.9907 4.66665 35.1277 4.88472 35.1277C5.0031 35.1277 5.04671 35.1589 5.04671 35.2523C5.04671 35.352 5.09033 35.3769 5.23363 35.3769C5.33955 35.3769 5.42055 35.4019 5.42055 35.4393C5.42055 35.5327 5.72584 35.514 5.83176 35.4143C5.88161 35.3645 5.91899 35.2773 5.91899 35.2274C5.91899 35.1713 5.95014 35.1277 5.98129 35.1277C6.01868 35.1277 6.0436 35.0717 6.0436 35.0031C6.0436 34.9221 6.08721 34.8785 6.16821 34.8785C6.24921 34.8785 6.29282 34.8349 6.29282 34.7539C6.29282 34.6854 6.32397 34.6293 6.35513 34.6293C6.39251 34.6293 6.41743 34.5732 6.41743 34.5047C6.41743 34.4361 6.44858 34.3801 6.47974 34.3801C6.51712 34.3801 6.54204 34.324 6.54204 34.2555C6.54204 34.1869 6.57319 34.1308 6.60435 34.1308C6.64173 34.1308 6.66665 33.9626 6.66665 33.757C6.66665 33.4268 6.67911 33.3832 6.79126 33.3832C6.8598 33.3832 6.91587 33.352 6.91587 33.3209C6.91587 33.2835 6.97195 33.2586 7.04048 33.2586C7.10902 33.2586 7.1651 33.2274 7.1651 33.1963C7.1651 33.1589 7.20871 33.134 7.26478 33.134C7.38939 33.134 7.53893 32.9844 7.53893 32.8598C7.53893 32.8037 7.57008 32.7601 7.60123 32.7601C7.63862 32.7601 7.66354 32.6729 7.66354 32.5732C7.66354 32.4673 7.69469 32.3863 7.72584 32.3863C7.76323 32.3863 7.78815 32.1558 7.78815 31.8255C7.78815 31.3084 7.79438 31.2648 7.91276 31.2648C7.99376 31.2648 8.03737 31.2212 8.03737 31.1402C8.03737 31.0592 8.08098 31.0156 8.16198 31.0156C8.23052 31.0156 8.28659 30.9844 8.28659 30.9533C8.28659 30.9159 8.34266 30.891 8.4112 30.891C8.47974 30.891 8.53581 30.8598 8.53581 30.8287C8.53581 30.7913 8.75388 30.7664 9.07164 30.7664C9.58877 30.7664 9.61369 30.7726 9.78192 30.9533C9.87538 31.0592 9.98752 31.1402 10.0249 31.1402C10.1184 31.1402 10.5296 31.5514 10.5296 31.6386C10.5296 31.7446 10.6916 31.8879 10.8037 31.8879C10.8598 31.8879 10.9034 31.9128 10.9034 31.9502C10.9034 31.9813 10.9595 32.0125 11.028 32.0125C11.0966 32.0125 11.1526 32.0374 11.1526 32.0748C11.1526 32.1059 11.2087 32.1371 11.2772 32.1371C11.3458 32.1371 11.4019 32.162 11.4019 32.1994C11.4019 32.2305 11.4579 32.2617 11.5265 32.2617C11.595 32.2617 11.6511 32.2866 11.6511 32.324C11.6511 32.3551 11.7072 32.3863 11.7757 32.3863C11.8442 32.3863 11.9003 32.4112 11.9003 32.4486C11.9003 32.4798 11.9564 32.5109 12.0249 32.5109C12.0934 32.5109 12.1495 32.5358 12.1495 32.5732C12.1495 32.6044 12.2056 32.6355 12.2741 32.6355C12.3427 32.6355 12.3987 32.6604 12.3987 32.6978C12.3987 32.729 12.5296 32.7601 12.6853 32.7601C12.9782 32.7601 13.1464 32.6604 13.1464 32.486C13.1464 32.4237 13.2025 32.3863 13.2772 32.3863C13.3769 32.3863 13.4019 32.3551 13.3832 32.2118C13.3707 32.0748 13.3894 32.0374 13.5078 32.0249C13.595 32.0125 13.6448 31.9626 13.6448 31.8816C13.6448 31.8193 13.676 31.7632 13.7072 31.7632C13.7445 31.7632 13.7695 31.7196 13.7695 31.6698C13.7695 31.5327 14.0934 31.215 14.1308 31.3146C14.1433 31.3645 14.2991 31.3894 14.5857 31.3894C14.8286 31.3894 15.0156 31.4143 15.0156 31.4517C15.0156 31.4891 15.2772 31.514 15.676 31.514C16.3925 31.514 16.5109 31.5639 16.5109 31.8505C16.5109 31.9564 16.5483 32.0125 16.6106 32.0125C16.6604 32.0125 16.8411 32.1558 17.0093 32.324C17.1776 32.4922 17.3582 32.6355 17.4081 32.6355C17.4642 32.6355 17.5078 32.6604 17.5078 32.6978C17.5078 32.729 17.595 32.7601 17.6947 32.7601C17.8006 32.7601 17.8816 32.785 17.8816 32.8224C17.8816 32.8598 18.1308 32.8847 18.5047 32.8847C19.0841 32.8847 19.1277 32.891 19.1277 33.0093C19.1277 33.0779 19.1589 33.134 19.19 33.134C19.2274 33.134 19.2523 33.2461 19.2523 33.3832C19.2523 33.5203 19.2835 33.6324 19.3146 33.6324C19.352 33.6324 19.3769 33.7446 19.3769 33.8816C19.3769 34.0187 19.4081 34.1308 19.4392 34.1308C19.4766 34.1308 19.5015 34.2305 19.5015 34.3551C19.5015 34.5919 19.6137 34.7539 19.7757 34.7539C19.8318 34.7539 19.8754 34.7788 19.8754 34.8162C19.8754 34.8474 19.9875 34.8785 20.1246 34.8785C20.2617 34.8785 20.3738 34.9034 20.3738 34.9408C20.3738 34.972 20.461 35.0031 20.5607 35.0031C20.6667 35.0031 20.7477 35.028 20.7477 35.0654C20.7477 35.0966 20.8349 35.1277 20.9346 35.1277C21.0779 35.1277 21.1215 35.1526 21.1215 35.2523C21.1215 35.3333 21.1651 35.3769 21.2461 35.3769C21.3146 35.3769 21.3707 35.4019 21.3707 35.4393C21.3707 35.4704 21.4268 35.5016 21.4891 35.5016C21.5576 35.5016 21.6199 35.5389 21.6386 35.5763C21.6573 35.6386 21.9688 35.6573 22.9283 35.6573C23.8878 35.6573 24.1994 35.6386 24.2243 35.5763C24.2367 35.5389 24.3302 35.5016 24.4299 35.5016C24.5296 35.5016 24.6106 35.4704 24.6106 35.4393C24.6106 35.4019 24.6667 35.3769 24.7352 35.3769C24.8162 35.3769 24.8598 35.3333 24.8598 35.2523C24.8598 35.1526 24.9034 35.1277 25.0467 35.1277C25.1526 35.1277 25.2336 35.0966 25.2336 35.0654C25.2336 35.028 25.2897 35.0031 25.352 35.0031C25.4205 35.0031 25.4891 34.9657 25.5078 34.9221C25.5389 34.8598 25.5514 34.8598 25.5825 34.9221C25.6012 34.9657 25.7009 35.0031 25.8006 35.0031C25.9003 35.0031 25.9813 35.028 25.9813 35.0654C25.9813 35.0966 26.0685 35.1277 26.1682 35.1277C26.3115 35.1277 26.3551 35.1526 26.3551 35.2523C26.3551 35.352 26.3987 35.3769 26.542 35.3769C26.648 35.3769 26.729 35.4019 26.729 35.4393C26.729 35.4704 26.8162 35.5016 26.9159 35.5016C27.0218 35.5016 27.1028 35.4704 27.1028 35.4393C27.1028 35.4019 27.2897 35.3769 27.5389 35.3769C27.9314 35.3769 27.9751 35.3645 27.9751 35.2523C27.9751 35.1776 28.0187 35.1277 28.0748 35.1277C28.1308 35.1277 28.2554 35.0405 28.3489 34.9408C28.4424 34.8349 28.5545 34.7539 28.5981 34.7539C28.6355 34.7539 28.8037 34.891 28.9719 35.0654C29.1402 35.2336 29.3209 35.3769 29.3707 35.3769C29.4268 35.3769 29.4704 35.4019 29.4704 35.4393C29.4704 35.5327 29.7757 35.514 29.8816 35.4143C29.9315 35.3645 29.9688 35.2773 29.9688 35.2274C29.9688 35.1713 30.0187 35.1277 30.081 35.1277C30.1433 35.1277 30.2305 35.0717 30.2804 35.0031C30.3302 34.9346 30.4112 34.8785 30.4548 34.8785C30.5047 34.8785 30.623 34.7913 30.7165 34.6916L30.891 34.5047H31.9252C32.5732 34.5047 32.9595 34.4798 32.9595 34.4424C32.9595 34.405 33.0156 34.3801 33.0841 34.3801C33.1526 34.3801 33.2087 34.3489 33.2087 34.3178C33.2087 34.2804 33.3209 34.2555 33.4579 34.2555C33.595 34.2555 33.7072 34.2243 33.7072 34.1931C33.7072 34.1558 33.7632 34.1308 33.8318 34.1308C33.9003 34.1308 33.9564 34.0997 33.9564 34.0685C33.9564 34.0312 34.1433 34.0062 34.3925 34.0062C34.6417 34.0062 34.8286 33.9813 34.8286 33.9439C34.8286 33.9065 35.0156 33.8816 35.2648 33.8816C35.514 33.8816 35.7009 33.8567 35.7009 33.8193C35.7009 33.7819 35.7445 33.757 35.8006 33.757C35.9626 33.757 36.0748 33.595 36.0748 33.3583C36.0748 33.2336 36.1059 33.134 36.1371 33.134C36.1744 33.134 36.1994 32.866 36.1994 32.4486C36.1994 32.0312 36.2243 31.7632 36.2617 31.7632C36.2991 31.7632 36.324 31.7072 36.324 31.6386C36.324 31.5576 36.3676 31.514 36.4361 31.514C36.4984 31.514 36.5857 31.4579 36.6355 31.3894C36.7165 31.2773 36.7975 31.2648 37.4953 31.2648C38.2243 31.2648 38.2679 31.271 38.4112 31.4206C38.4984 31.5016 38.567 31.6137 38.567 31.6698C38.567 31.7196 38.5981 31.7632 38.6293 31.7632C38.6667 31.7632 38.6916 31.8069 38.6916 31.8629C38.6916 31.9875 38.8411 32.1371 38.9657 32.1371C39.0218 32.1371 39.0654 32.162 39.0654 32.1994C39.0654 32.2305 39.1215 32.2617 39.19 32.2617C39.2586 32.2617 39.3146 32.2866 39.3146 32.324C39.3146 32.3551 39.3707 32.3863 39.4392 32.3863C39.5078 32.3863 39.5639 32.4112 39.5639 32.4486C39.5639 32.4798 39.6199 32.5109 39.6885 32.5109C39.757 32.5109 39.8131 32.5358 39.8131 32.5732C39.8131 32.6044 39.8691 32.6355 39.9377 32.6355C40.0062 32.6355 40.0623 32.6604 40.0623 32.6978C40.0623 32.729 40.1121 32.7601 40.1744 32.7601C40.2367 32.7601 40.324 32.8162 40.3738 32.8847C40.4237 32.9533 40.4984 33.0093 40.5483 33.0093C40.6542 33.0093 41.0592 33.4143 41.0592 33.5203C41.0592 33.5701 41.1153 33.6449 41.1838 33.6947C41.2523 33.7446 41.3084 33.8318 41.3084 33.8941C41.3084 33.9564 41.3396 34.0062 41.3707 34.0062C41.4081 34.0062 41.433 34.0623 41.433 34.1246C41.433 34.2056 41.4829 34.2555 41.5763 34.2679C41.6885 34.2804 41.7072 34.3178 41.6947 34.4548C41.676 34.5857 41.7009 34.6293 41.7757 34.6293C41.8318 34.6293 41.9626 34.7103 42.0561 34.8162C42.2118 34.9782 42.2741 35.0031 42.5794 35.0031C42.7726 35.0031 42.9283 35.028 42.9283 35.0654C42.9283 35.1028 43.1152 35.1277 43.3645 35.1277C43.6137 35.1277 43.8006 35.1028 43.8006 35.0654C43.8006 35.028 43.8567 35.0031 43.9252 35.0031C44.0062 35.0031 44.0498 34.9595 44.0498 34.8785C44.0498 34.81 44.081 34.7539 44.1121 34.7539C44.1495 34.7539 44.1744 34.6978 44.1744 34.6293C44.1744 34.5607 44.2056 34.5047 44.2367 34.5047C44.2741 34.5047 44.2991 34.4174 44.2991 34.3178C44.2991 34.2118 44.3302 34.1308 44.3614 34.1308C44.3987 34.1308 44.4237 34.0748 44.4237 34.0062C44.4237 33.9377 44.4548 33.8816 44.486 33.8816C44.5233 33.8816 44.5483 33.7134 44.5483 33.5078C44.5483 33.3022 44.5732 33.134 44.6106 33.134C44.648 33.134 44.6729 33.0218 44.6729 32.8847C44.6729 32.7477 44.704 32.6355 44.7352 32.6355C44.7726 32.6355 44.7975 32.4922 44.7975 32.324C44.7975 32.1495 44.8286 32.0125 44.8598 32.0125C44.8972 32.0125 44.9221 31.9564 44.9221 31.8879C44.9221 31.8193 44.9533 31.7632 44.9844 31.7632C45.0218 31.7632 45.0467 31.7196 45.0467 31.6698C45.0467 31.5452 45.7009 30.891 45.8255 30.891C45.9065 30.891 45.919 30.7477 45.919 29.8941C45.919 29.271 45.8941 28.8972 45.8567 28.8972C45.8193 28.8972 45.7944 28.5857 45.7944 28.0872V27.2773H45.6075C45.5078 27.2773 45.4205 27.2461 45.4205 27.215C45.4205 27.1776 45.3707 27.1526 45.3084 27.1526C45.2461 27.1526 45.1589 27.0966 45.109 27.028C45.0592 26.9595 44.972 26.9034 44.9096 26.9034C44.8473 26.9034 44.7975 26.8723 44.7975 26.8411C44.7975 26.8037 44.7477 26.7788 44.6853 26.7788C44.623 26.7788 44.5358 26.7227 44.486 26.6542C44.4361 26.5857 44.3489 26.5296 44.2866 26.5296C44.2243 26.5296 44.1744 26.4984 44.1744 26.4673C44.1744 26.4299 44.1184 26.405 44.0498 26.405C43.9813 26.405 43.9252 26.3738 43.9252 26.3427C43.9252 26.3053 43.8691 26.2804 43.8006 26.2804C43.7196 26.2804 43.676 26.2368 43.676 26.1558C43.676 26.081 43.595 26 43.4455 25.9315C43.3146 25.8692 43.1589 25.7819 43.1028 25.7321C42.8972 25.5576 42.405 25.3458 42.2118 25.3458C42.0748 25.3458 41.9626 25.4019 41.838 25.5327C41.7383 25.6324 41.6262 25.7196 41.5888 25.7196C41.4829 25.7196 41.1838 26.0561 41.1838 26.1682C41.1838 26.2804 40.9906 26.3489 40.81 26.2991C40.7414 26.2804 40.6853 26.2243 40.6853 26.1682C40.6853 26.0436 40.5047 25.8442 40.3925 25.8442C40.3302 25.8442 40.3115 25.6822 40.3115 25.0966C40.3115 24.6417 40.3364 24.3489 40.3738 24.3489C40.4112 24.3489 40.4361 24.2617 40.4361 24.162C40.4361 24.0561 40.4673 23.9751 40.4984 23.9751C40.5358 23.9751 40.5607 23.919 40.5607 23.8505C40.5607 23.7819 40.5919 23.7259 40.623 23.7259C40.6604 23.7259 40.6853 23.6822 40.6853 23.6262C40.6853 23.514 40.8286 23.352 40.9346 23.352C40.972 23.352 41.1153 23.2399 41.2461 23.1028C41.3769 22.9657 41.5327 22.8536 41.5825 22.8536C41.6386 22.8536 41.6822 22.81 41.6822 22.7601C41.6822 22.6106 42.0934 22.2305 42.2554 22.2305C42.3364 22.2305 42.4424 22.1745 42.4922 22.1059C42.542 22.0374 42.6168 21.9813 42.6667 21.9813C42.8847 21.9813 42.9283 21.8193 42.9283 21.0218C42.9283 20.5421 42.9034 20.2368 42.866 20.2368C42.8349 20.2368 42.8037 20.1807 42.8037 20.1121C42.8037 20.0436 42.7788 19.9875 42.7414 19.9875C42.7103 19.9875 42.6791 19.9315 42.6791 19.8629C42.6791 19.7944 42.6542 19.7383 42.6168 19.7383C42.5857 19.7383 42.5545 19.6822 42.5545 19.6199C42.5545 19.5576 42.5171 19.4891 42.4735 19.4704C42.4174 19.4517 42.3987 19.3645 42.4174 19.215C42.4424 18.9907 42.5545 18.8349 42.5545 19.0156C42.5545 19.0717 42.5857 19.1153 42.6168 19.1153C42.6542 19.1153 42.6791 19.1963 42.6791 19.3022C42.6791 19.4019 42.7103 19.4891 42.7414 19.4891C42.7788 19.4891 42.8037 19.5701 42.8037 19.676C42.8037 19.7757 42.8349 19.8629 42.866 19.8629C42.9034 19.8629 42.9283 19.919 42.9283 19.9875C42.9283 20.0561 42.9595 20.1121 42.9906 20.1121C43.028 20.1121 43.0529 20.1682 43.0529 20.2368C43.0529 20.3053 43.0841 20.3614 43.1153 20.3614C43.1526 20.3614 43.1776 20.4112 43.1776 20.4735C43.1776 20.5358 43.2336 20.6231 43.3022 20.6729C43.3769 20.7227 43.4268 20.8349 43.4268 20.9346C43.4268 21.0654 43.4579 21.109 43.5514 21.109C43.6324 21.109 43.676 21.1526 43.676 21.2336C43.676 21.3022 43.7072 21.3583 43.7383 21.3583C43.7757 21.3583 43.8006 21.4143 43.8006 21.4829C43.8006 21.5514 43.8318 21.6075 43.8629 21.6075C43.9003 21.6075 43.9252 21.676 43.9252 21.7632C43.9252 21.9439 44.1744 22.2305 44.3302 22.2305C44.3801 22.2305 44.4237 22.2555 44.4237 22.2928C44.4237 22.324 44.4735 22.3551 44.5358 22.3551C44.5981 22.3551 44.6853 22.4112 44.7352 22.4798C44.785 22.5483 44.8723 22.6044 44.9346 22.6044C45.0031 22.6044 45.0467 22.648 45.0467 22.729C45.0467 22.8037 45.0903 22.8536 45.1464 22.8536C45.1963 22.8536 45.352 22.9657 45.4829 23.1028C45.6137 23.2399 45.7695 23.352 45.8193 23.352C45.8754 23.352 45.919 23.3769 45.919 23.4143C45.919 23.4455 46.0062 23.4766 46.1059 23.4766C46.2118 23.4766 46.2928 23.5016 46.2928 23.5389C46.2928 23.5701 46.3801 23.6012 46.4797 23.6012C46.5857 23.6012 46.6667 23.6262 46.6667 23.6636C46.6667 23.6947 46.7539 23.7259 46.8536 23.7259C46.9595 23.7259 47.0405 23.7508 47.0405 23.7882C47.0405 23.8193 47.1402 23.8505 47.2648 23.8505H47.4829L47.4766 23.4891C47.4704 23.296 47.4517 22.9034 47.433 22.6168C47.4019 22.1745 47.3832 22.1059 47.2835 22.1059C47.2087 22.1059 47.1651 22.0623 47.1651 21.9813C47.1651 21.9128 47.1402 21.8567 47.1028 21.8567C47.0716 21.8567 47.0405 21.7695 47.0405 21.6698C47.0405 21.5639 47.0156 21.4829 46.9782 21.4829C46.947 21.4829 46.9159 21.4268 46.9159 21.3583C46.9159 21.2897 46.891 21.2336 46.8536 21.2336C46.8224 21.2336 46.7913 21.1277 46.7913 20.9969C46.7913 20.8349 46.7539 20.7352 46.6667 20.6729C46.5981 20.6231 46.542 20.5421 46.542 20.486C46.542 20.4299 46.486 20.3489 46.4174 20.2991C46.3489 20.2492 46.2928 20.1745 46.2928 20.1246C46.2928 19.9938 45.8754 19.6137 45.7258 19.6137C45.6573 19.6137 45.514 19.5265 45.4205 19.4268C45.3271 19.3209 45.2149 19.2399 45.1713 19.2399C45.0716 19.2399 44.9221 19.0779 44.9221 18.9657C44.9221 18.9097 44.8785 18.866 44.8224 18.866C44.7663 18.866 44.6417 18.7788 44.5483 18.6791C44.4548 18.5732 44.3302 18.4922 44.2741 18.4922C44.2181 18.4922 44.1744 18.4424 44.1744 18.3676C44.1744 18.2991 44.1495 18.243 44.1121 18.243C44.081 18.243 44.0498 18.1558 44.0498 18.0561C44.0498 17.9502 44.0249 17.8692 43.9875 17.8692C43.9564 17.8692 43.9252 17.8131 43.9252 17.7445C43.9252 17.6636 43.8816 17.6199 43.8006 17.6199C43.7196 17.6199 43.676 17.5763 43.676 17.4953C43.676 17.4268 43.6511 17.3707 43.6137 17.3707C43.5825 17.3707 43.5514 17.2835 43.5514 17.1838C43.5514 17.0779 43.5265 16.9969 43.4891 16.9969C43.4579 16.9969 43.4268 16.9283 43.4268 16.8474C43.4268 16.7664 43.3894 16.6791 43.352 16.6667C43.3084 16.648 43.3333 16.6293 43.4143 16.6293C43.4891 16.6231 43.5514 16.5919 43.5514 16.5607C43.5514 16.5234 43.6386 16.4984 43.7383 16.4984C43.9065 16.4984 43.9252 16.4798 43.9252 16.3115C43.9252 16.2056 43.9564 16.1246 43.9875 16.1246C44.0249 16.1246 44.0498 15.8754 44.0498 15.5016C44.0498 15.0405 44.0311 14.8785 43.9688 14.8785C43.9128 14.8785 43.9003 14.8037 43.9128 14.6293C43.9377 14.4112 43.9252 14.3801 43.8068 14.3801C43.7072 14.3801 43.676 14.3427 43.676 14.2056C43.676 14.1059 43.6262 13.9938 43.5514 13.9439C43.4829 13.8941 43.4268 13.8193 43.4268 13.7757C43.4268 13.7321 43.19 13.4579 42.8972 13.1651L42.3676 12.6355H41.838H41.3084V12.2928V11.9502L41.7757 11.4829C42.0311 11.2274 42.2679 11.0156 42.3053 11.0156C42.405 11.0156 42.6604 10.7414 42.6916 10.6044C42.7165 10.4735 43.3645 11.2274 44.0062 12.1433L44.3925 12.6916L44.9221 12.6978H45.4517L45.8318 13.3333C46.891 15.1028 47.5327 16.5358 48.1994 18.6355C49.7632 23.5514 49.7632 28.4486 48.1994 33.3645C47.5389 35.4393 46.8972 36.8785 45.8691 38.6106L45.5202 39.1963L45.1153 39.1589C44.8847 39.1464 44.6667 39.1464 44.623 39.1589C44.5545 39.1838 43.6511 40.3427 43.3271 40.8224C43.0467 41.2336 41.0592 43.4143 40.9657 43.4143C40.9408 43.4143 40.8598 43.4953 40.7788 43.595C40.5981 43.8069 39.8193 44.4424 39.6885 44.486C39.595 44.5171 38.0124 43.6386 37.9314 43.514C37.9003 43.4766 37.8816 43.4704 37.8816 43.5078C37.8816 43.5389 37.8442 43.5265 37.8006 43.4766C37.757 43.4268 37.6137 43.3271 37.4829 43.2586C37.3458 43.19 37.2274 43.0966 37.2087 43.053C37.1962 43.0093 37.3022 42.8598 37.4392 42.7227C37.5825 42.5794 37.6947 42.4424 37.6947 42.4112C37.6947 42.3801 37.7632 42.3115 37.8505 42.2555C37.9377 42.1994 38.0062 42.1308 38.0062 42.0997C38.0062 42.0748 38.1807 41.8193 38.3987 41.5327C39.0093 40.7165 39.8754 39.4143 39.8754 39.296C39.8754 39.1589 39.7508 39.1153 39.3271 39.1153C39.0405 39.1215 38.9408 39.1464 38.8037 39.271C38.704 39.352 38.6293 39.4517 38.6293 39.4891C38.6293 39.5203 38.6044 39.5514 38.567 39.5514C38.5358 39.5514 38.5047 39.5888 38.5047 39.6386C38.5047 39.6885 38.4797 39.7383 38.4548 39.7508C38.3863 39.7757 37.9128 40.4299 37.8629 40.5607C37.8442 40.6231 37.7944 40.6729 37.757 40.6729C37.7258 40.6729 37.6947 40.7041 37.6947 40.7414C37.6947 40.8224 36.947 41.7632 36.5047 42.2492L36.2305 42.5483L35.7009 42.3676C35.2897 42.2243 33.1028 41.4393 32.5857 41.2461C32.5358 41.2274 32.4797 41.2087 32.461 41.2087C32.4424 41.2025 32.3738 41.1651 32.3053 41.1277C32.1869 41.0592 32.1869 41.0467 32.3925 40.5981C32.6604 40.0062 32.866 39.3458 32.8162 39.215C32.785 39.1402 32.6916 39.1153 32.4299 39.1153C32.2367 39.1153 32.0311 39.1402 31.9751 39.1713C31.9128 39.2025 31.6885 39.5888 31.4766 40.0312L31.0841 40.8349L30.5732 40.729C30.2928 40.6729 29.9501 40.6044 29.8131 40.5857C29.676 40.567 29.1838 40.4984 28.7227 40.4299C28.2617 40.3614 27.5015 40.2741 27.0405 40.2368C25.6635 40.1246 25.5265 40.1122 25.4891 40.0748C25.4704 40.0561 25.4517 39.8816 25.4517 39.6822C25.4517 39.1963 25.3707 39.1153 24.9283 39.1153C24.7352 39.1153 24.542 39.1464 24.4984 39.19C24.4548 39.2336 24.4237 39.4517 24.4237 39.7196V40.1745L24.0374 40.1807C23.8193 40.1807 23.5327 40.1931 23.3956 40.2056C23.2586 40.2181 22.8224 40.2617 22.4299 40.2991C22.0374 40.3364 21.3209 40.4237 20.8411 40.4922C19.9626 40.6168 19.8878 40.6231 19.2274 40.7414C19.028 40.7788 18.8598 40.7975 18.8473 40.785C18.8349 40.7726 18.6542 40.4237 18.4486 40.0062C18.2367 39.5888 18.0124 39.215 17.9501 39.1776C17.7508 39.0717 17.1339 39.0966 17.0903 39.215C17.0405 39.352 17.1651 39.7383 17.4891 40.4361C17.7258 40.9408 17.7632 41.0592 17.6947 41.1402C17.6511 41.19 17.595 41.215 17.5639 41.2025C17.5389 41.1838 17.4642 41.1963 17.4019 41.2336C17.3396 41.2648 16.785 41.4642 16.1682 41.676C15.5514 41.8816 14.9906 42.0748 14.9221 42.1059C14.5545 42.2804 13.7321 42.6044 13.6635 42.6044C13.6199 42.6044 13.2897 42.2492 12.9283 41.8131C12.2804 41.028 12.0997 40.785 11.3956 39.7321C11.1962 39.433 10.9906 39.1776 10.9346 39.1526C10.8785 39.134 10.6667 39.1153 10.4735 39.1153C10.1931 39.1153 10.0872 39.1402 9.99999 39.2399C9.93768 39.3084 9.91899 39.3645 9.95637 39.3645C9.99999 39.3645 10.1121 39.5265 10.2118 39.7259C10.3987 40.0997 11.2336 41.3022 11.6573 41.8069C11.7881 41.9688 11.9003 42.1059 11.9003 42.1246C11.9003 42.1371 12.0374 42.2991 12.2056 42.4798C12.6168 42.9284 12.6978 43.0779 12.5794 43.1963C12.4174 43.3583 10.3987 44.5358 10.2866 44.5358C10.0561 44.5358 8.69158 43.296 7.68223 42.1807C7.04672 41.4829 6.80372 41.1776 5.85045 39.9128C5.3084 39.19 5.12771 39.0717 4.66665 39.134L4.42989 39.1651L4.09344 38.5919C2.87849 36.5607 1.95014 34.2928 1.33955 31.9003C0.224284 27.4829 0.367587 23.0405 1.76946 18.6355C2.43612 16.5358 3.07787 15.1028 4.13706 13.3333L4.51712 12.6978H4.89095C5.24609 12.6978 5.27724 12.6854 5.37693 12.5109C5.57008 12.1931 6.42366 11.1402 6.4922 11.1402C6.52958 11.1402 6.54204 11.1215 6.52335 11.1028C6.49843 11.0779 6.67911 10.8411 6.91587 10.5794C7.15263 10.3178 7.33332 10.0872 7.32086 10.0685C7.23986 9.98754 9.98752 7.46418 10.1557 7.46418C10.1807 7.46418 10.5794 7.68847 11.0405 7.96885C11.4953 8.24922 12.0311 8.55452 12.2305 8.65421C12.4237 8.75389 12.5857 8.85358 12.5857 8.86604C12.5857 8.88474 12.3863 9.12773 12.1433 9.41433C11.7321 9.88162 10.5296 11.514 10.5296 11.595C10.5296 11.6137 10.3925 11.8629 10.2243 12.1495C10.0561 12.4299 9.93145 12.6854 9.94391 12.7103C9.9626 12.7414 10.1807 12.7601 10.4299 12.7601C10.9595 12.7601 10.947 12.7726 11.6262 11.8069C12.3364 10.7975 12.4673 10.6106 12.542 10.567C12.5857 10.5421 12.6168 10.4922 12.6168 10.4611C12.6168 10.4299 12.6853 10.3364 12.7726 10.2555C12.8598 10.1807 12.9346 10.0872 12.9408 10.0623C12.947 10.0312 13.0841 9.86916 13.2461 9.69471C13.4642 9.46418 13.5701 9.38941 13.6698 9.41433C13.8505 9.45171 15.6262 10.1246 15.8567 10.2368C15.9626 10.2928 16.3738 10.4424 16.7788 10.5732C17.1838 10.7041 17.5265 10.8287 17.5452 10.8411C17.5639 10.8598 17.4205 11.2399 17.2274 11.6822C17.0405 12.1246 16.8847 12.5545 16.8847 12.6293C16.8847 12.7601 16.9034 12.7664 17.3832 12.7477L17.8816 12.729L18.1682 12.1059C18.324 11.7632 18.4548 11.4455 18.461 11.4019C18.461 11.3645 18.486 11.3271 18.5171 11.3271C18.5483 11.3271 18.5545 11.296 18.5358 11.2648C18.5171 11.2274 18.5296 11.2025 18.567 11.2025C18.6043 11.2025 18.6168 11.1713 18.5919 11.1277C18.5607 11.0779 18.6106 11.0717 18.7601 11.0966C20.9034 11.4704 21.9688 11.6075 23.3894 11.6822C23.8006 11.7009 24.1807 11.7445 24.2243 11.7819C24.2679 11.8131 24.2991 11.9875 24.2991 12.1931C24.3053 12.4673 24.3364 12.5794 24.4548 12.729C24.5919 12.8972 24.6417 12.9159 24.9657 12.9159H25.3271L25.3458 12.3863C25.3582 12.0935 25.3894 11.8318 25.4143 11.8069C25.4392 11.7819 25.9938 11.7196 26.648 11.6698C27.676 11.5888 28.405 11.5078 29.3769 11.3583C29.514 11.3333 29.8754 11.2648 30.1869 11.1963C30.4922 11.134 30.7788 11.0779 30.8224 11.0779C30.9034 11.0779 31.5265 12.2679 31.6012 12.5607C31.6386 12.6854 31.676 12.6978 32.1744 12.6978C32.4984 12.6978 32.7103 12.6729 32.7103 12.6355C32.7103 12.5607 32.3053 11.5016 32.1807 11.2648C32.1371 11.1776 32.0872 11.0343 32.0623 10.9408C32.0249 10.7788 32.0374 10.7726 32.7601 10.5483C33.1589 10.4237 33.5202 10.2991 33.5514 10.2679C33.5888 10.243 33.8691 10.1308 34.1744 10.0187C34.486 9.90654 34.7663 9.79439 34.7975 9.76947C34.8349 9.74455 35.1339 9.62617 35.4766 9.51402L36.0872 9.30218L36.5483 9.80062C36.7975 10.0748 37.0093 10.3302 37.0093 10.3738C37.0093 10.4112 37.028 10.4548 37.0592 10.4673C37.0841 10.4735 37.2399 10.6667 37.4143 10.8972L37.7258 11.3022L38.0997 11.0592C38.6168 10.7227 38.6043 10.7352 38.4237 10.5047C38.3302 10.3925 38.1682 10.1807 38.0561 10.0312C37.9439 9.88785 37.6885 9.58255 37.4953 9.35826C37.2959 9.13396 37.1339 8.90343 37.1402 8.84112C37.1402 8.77882 37.5514 8.49844 38.2741 8.06853C38.8972 7.70093 39.4205 7.40187 39.4455 7.40187C39.4642 7.40187 39.757 7.6324 40.0997 7.90654ZM32.2181 22.6044C32.405 22.6417 32.704 22.7414 32.8847 22.8349L33.2087 22.9969V23.676V24.3614L32.9159 24.0997C32.5047 23.7383 32.2118 23.6012 31.8505 23.6012C31.1215 23.6012 30.6542 24.3178 30.6542 25.4393C30.6542 26.5234 31.0654 27.1963 31.7632 27.2648C32.1744 27.3022 32.4673 27.1963 32.8723 26.866L33.2087 26.5919V27.2336V27.8754L32.8785 28.0374C31.9128 28.5109 30.8847 28.3863 30.2554 27.7134C29.7321 27.1526 29.5327 26.5421 29.5327 25.4455C29.5327 23.9065 30.0997 22.9283 31.1589 22.6417C31.5701 22.5296 31.7819 22.5234 32.2181 22.6044ZM37.1402 22.6044C37.3271 22.6417 37.6262 22.7414 37.8068 22.8349L38.1308 22.9969V23.676V24.3614L37.838 24.0997C37.4268 23.7383 37.1339 23.6012 36.7726 23.6012C36.0436 23.6012 35.5763 24.3178 35.5763 25.4393C35.5763 26.5234 35.9875 27.1963 36.6853 27.2648C37.0966 27.3022 37.3894 27.1963 37.7944 26.866L38.1308 26.5919V27.2336V27.8754L37.8006 28.0374C36.8349 28.5109 35.8068 28.3863 35.1776 27.7134C34.6542 27.1526 34.4548 26.5421 34.4548 25.4455C34.4548 23.9065 35.0218 22.9283 36.081 22.6417C36.4922 22.5296 36.704 22.5234 37.1402 22.6044ZM12.7726 23.1963V23.7259H11.8068H10.8411V25.9688V28.2118H10.3115H9.78192V25.4393V22.6667H11.2772H12.7726V23.1963ZM19.6885 24.9097V27.1526H20.4984H21.3084V24.9097V22.6667H21.838H22.3676V24.9097V27.1526H22.5857H22.8037V28.3053V29.4579H22.3053H21.8068V28.8349V28.2118H20.2181H18.6293V25.4393V22.6667H19.1589H19.6885V24.9097ZM25.2336 24.3302C25.2336 25.2523 25.2586 25.9688 25.2897 25.9315C25.3146 25.9003 25.6885 25.1526 26.1121 24.2741L26.8847 22.6667H27.4642H28.0374V25.4393V28.2118H27.5078H26.9782V26.405C26.9782 25.4081 26.9595 24.5981 26.9346 24.5981C26.9034 24.5981 26.5047 25.4081 26.0374 26.3925L25.1962 28.1807L24.6853 28.1994L24.1744 28.2181V25.4393V22.6667H24.704H25.2336V24.3302ZM16.2804 24.1433C17.0654 24.5732 17.4081 25.9128 17.0467 27.1215C16.785 27.9875 15.9626 28.4673 15.0592 28.2741C14.1246 28.081 13.6386 27.19 13.7258 25.8193C13.757 25.3458 13.7944 25.19 13.9688 24.8536C14.081 24.6355 14.2804 24.3676 14.405 24.2679C14.891 23.8754 15.6885 23.8255 16.2804 24.1433ZM24.4548 43.8505C24.4548 45.3209 24.4548 46.5296 24.4548 46.5296C24.4548 46.5296 23.0467 46.7227 22.7975 46.7539L22.5047 46.7913L22.0311 46.1807C21.4268 45.3956 20.3302 43.7632 20.0311 43.1963C19.9003 42.9533 19.6885 42.5545 19.5514 42.3115L19.3022 41.8567L19.4642 41.8006C20.0872 41.5576 22.2679 41.2773 24.2679 41.1776L24.4548 41.1713V43.8505ZM27.3832 41.3022C28.3551 41.3832 29.2274 41.5078 29.9875 41.676C30.6542 41.8255 30.6853 41.8629 30.461 42.2243C30.3925 42.3427 30.1807 42.7352 29.9875 43.0966C29.6137 43.8193 28.8411 45.0031 28.0374 46.0935L27.514 46.7975L27.109 46.7539C26.6043 46.7103 25.8193 46.6044 25.595 46.5545L25.4205 46.5171V43.8879C25.4205 42.4361 25.4392 41.2399 25.4579 41.215C25.5015 41.1776 26.2804 41.2087 27.3832 41.3022ZM18.6604 42.7103C18.8349 43.0467 19.1526 43.6137 19.3707 43.9751C19.5888 44.3365 19.8193 44.729 19.8878 44.8474C19.9938 45.0218 21.0218 46.5545 21.3582 47.0218C21.4268 47.1277 21.3769 47.1589 20.7414 47.433C20.3614 47.6012 20.0187 47.7321 19.9751 47.7321C19.9315 47.7321 19.5639 47.5327 19.1526 47.2897C17.9688 46.5732 16.4735 45.4455 15.1838 44.2866C14.3676 43.5576 14.3489 43.4829 14.9096 43.2336C15.8318 42.8162 17.8816 42.1122 18.1931 42.1059C18.3302 42.1059 18.3925 42.1807 18.6604 42.7103ZM32.7975 42.3988C33.9128 42.7227 35.352 43.296 35.3769 43.4393C35.4455 43.7695 32.4424 46.2243 30.8723 47.1215C30.704 47.2212 30.5483 47.3209 30.5296 47.3396C30.5109 47.3583 30.3614 47.4517 30.1931 47.5452C29.9252 47.6947 29.8629 47.7072 29.6511 47.6511C29.5202 47.6137 29.4019 47.5639 29.3832 47.5327C29.3645 47.5016 29.1776 47.4143 28.9719 47.3396C28.7352 47.2523 28.5981 47.1651 28.5981 47.1028C28.5981 47.053 28.7103 46.8598 28.8473 46.6791C28.9844 46.4984 29.0966 46.3178 29.0966 46.2804C29.0966 46.2492 29.1277 46.2181 29.1589 46.2181C29.1962 46.2181 29.2212 46.1745 29.2212 46.1246C29.2212 46.0748 29.2523 46.0312 29.2835 46.0312C29.3209 46.0312 29.3458 46.0062 29.3458 45.9688C29.3458 45.9377 29.4829 45.7072 29.6448 45.4579C30.0934 44.785 30.5483 44.0561 30.7788 43.6324C30.891 43.4268 31.1339 43.0031 31.3209 42.6854C31.7134 42.0187 31.5639 42.0436 32.7975 42.3988ZM14.2617 44.7103C15.1776 45.6324 16.38 46.6044 17.6947 47.4642C18.2617 47.838 18.7913 48.1994 18.866 48.2741C19.0031 48.3988 19.0093 48.4174 18.9159 48.5171C18.8598 48.5794 18.7227 48.6791 18.6043 48.7414L18.3987 48.8536L17.3458 48.4922C15.3271 47.8131 13.9938 47.1713 12.1994 46.0125C11.2087 45.3769 11.1277 45.271 11.4829 45.0717C11.5888 45.0031 11.8068 44.866 11.9626 44.7664C12.3551 44.5047 13.3458 43.9751 13.4517 43.9751C13.5015 43.9751 13.8691 44.3053 14.2617 44.7103ZM37.3769 44.3988C37.7757 44.6355 38.2305 44.9034 38.3987 44.9969C38.5607 45.0903 38.6916 45.2025 38.6916 45.2461C38.6916 45.4081 38.0623 45.8318 36.1994 46.9221C35.1838 47.514 33.6698 48.162 32.2804 48.5919C31.4579 48.8474 31.4081 48.8474 31.109 48.567C31.028 48.4984 30.9657 48.405 30.9657 48.3614C30.9657 48.3178 31.3707 48.0187 31.8629 47.6885C33.028 46.9097 34.1931 46.0374 34.4361 45.757C34.5483 45.6386 35.0218 45.1838 35.4953 44.7601C36.0872 44.2181 36.3987 43.9751 36.5047 43.9751C36.5857 43.9751 36.9782 44.1682 37.3769 44.3988ZM26.9533 47.7446C28.0249 47.9626 29.109 48.3863 29.8505 48.8785C30.3364 49.2025 30.081 49.3022 28.0062 49.595C27.1402 49.7134 26.7477 49.7321 25.0156 49.7321C22.9346 49.7321 22.5296 49.7009 20.6978 49.3832C19.6262 49.1963 19.6137 49.1153 20.6043 48.6044C21.595 48.0872 22.7103 47.7446 23.9252 47.5888C24.6417 47.4953 26.1184 47.5701 26.9533 47.7446Z" fill="#051945"/>
<path d="M15.0467 25.0804C14.8474 25.2797 14.7664 25.61 14.7664 26.2081C14.7664 27.0928 14.972 27.4854 15.4393 27.4854C15.9377 27.4854 16.1807 26.9682 16.1246 26.0274C16.0872 25.4916 15.9252 25.043 15.7321 24.9682C15.5016 24.881 15.1963 24.9308 15.0467 25.0804Z" fill="#051945"/>
<circle cx="25" cy="26" r="24" stroke="#051945" stroke-width="2"/>
<path d="M83.6452 5.81818V8.98757H75.4244V24H71.5803V5.81818H83.6452ZM90.2193 24.2663C88.8403 24.2663 87.6477 23.9734 86.6415 23.3874C85.6413 22.7956 84.8689 21.9729 84.3244 20.9194C83.7799 19.86 83.5076 18.6319 83.5076 17.2351C83.5076 15.8265 83.7799 14.5954 84.3244 13.5419C84.8689 12.4825 85.6413 11.6598 86.6415 11.0739C87.6477 10.482 88.8403 10.1861 90.2193 10.1861C91.5983 10.1861 92.7879 10.482 93.7882 11.0739C94.7943 11.6598 95.5697 12.4825 96.1142 13.5419C96.6587 14.5954 96.9309 15.8265 96.9309 17.2351C96.9309 18.6319 96.6587 19.86 96.1142 20.9194C95.5697 21.9729 94.7943 22.7956 93.7882 23.3874C92.7879 23.9734 91.5983 24.2663 90.2193 24.2663ZM90.237 21.3366C90.8644 21.3366 91.3882 21.1591 91.8084 20.804C92.2286 20.4429 92.5453 19.9517 92.7583 19.3303C92.9773 18.7088 93.0868 18.0015 93.0868 17.2085C93.0868 16.4154 92.9773 15.7081 92.7583 15.0866C92.5453 14.4652 92.2286 13.974 91.8084 13.6129C91.3882 13.2519 90.8644 13.0714 90.237 13.0714C89.6038 13.0714 89.0711 13.2519 88.639 13.6129C88.2129 13.974 87.8903 14.4652 87.6713 15.0866C87.4583 15.7081 87.3517 16.4154 87.3517 17.2085C87.3517 18.0015 87.4583 18.7088 87.6713 19.3303C87.8903 19.9517 88.2129 20.4429 88.639 20.804C89.0711 21.1591 89.6038 21.3366 90.237 21.3366ZM116.977 20.9283L116.755 28.2969H113.097V24H111.819V20.9283H116.977ZM99.4611 24V5.81818H103.154V20.9105H110.718V5.81818H114.456V24H99.4611ZM119.31 5.81818H123.145V17.2528H123.296L131.153 5.81818H134.517V24H130.673V12.5565H130.54L122.639 24H119.31V5.81818ZM153.736 12.1836H149.847C149.776 11.6805 149.631 11.2337 149.412 10.843C149.193 10.4465 148.912 10.1091 148.569 9.83097C148.226 9.55279 147.829 9.33972 147.379 9.19176C146.935 9.0438 146.453 8.96982 145.932 8.96982C144.991 8.96982 144.171 9.2036 143.473 9.67116C142.775 10.1328 142.233 10.8075 141.848 11.6953C141.464 12.5772 141.271 13.6484 141.271 14.9091C141.271 16.2053 141.464 17.2943 141.848 18.1761C142.239 19.058 142.783 19.7238 143.482 20.1737C144.18 20.6235 144.988 20.8484 145.906 20.8484C146.42 20.8484 146.897 20.7803 147.335 20.6442C147.779 20.508 148.172 20.3098 148.516 20.0494C148.859 19.783 149.143 19.4605 149.368 19.0817C149.599 18.7029 149.759 18.2708 149.847 17.7855L153.736 17.8033C153.635 18.6378 153.384 19.4427 152.981 20.218C152.585 20.9875 152.049 21.677 151.374 22.2866C150.705 22.8903 149.906 23.3697 148.977 23.7248C148.054 24.074 147.009 24.2486 145.843 24.2486C144.222 24.2486 142.772 23.8816 141.493 23.1477C140.221 22.4138 139.215 21.3514 138.475 19.9606C137.741 18.5697 137.374 16.8859 137.374 14.9091C137.374 12.9264 137.747 11.2396 138.493 9.84872C139.238 8.45786 140.25 7.39844 141.529 6.67045C142.807 5.93655 144.245 5.5696 145.843 5.5696C146.897 5.5696 147.873 5.71757 148.773 6.01349C149.679 6.30942 150.481 6.74148 151.179 7.30966C151.877 7.87192 152.446 8.56143 152.884 9.3782C153.327 10.195 153.612 11.1301 153.736 12.1836ZM172.535 12.1836H168.646C168.575 11.6805 168.43 11.2337 168.211 10.843C167.992 10.4465 167.711 10.1091 167.368 9.83097C167.024 9.55279 166.628 9.33972 166.178 9.19176C165.734 9.0438 165.252 8.96982 164.731 8.96982C163.79 8.96982 162.97 9.2036 162.272 9.67116C161.573 10.1328 161.032 10.8075 160.647 11.6953C160.262 12.5772 160.07 13.6484 160.07 14.9091C160.07 16.2053 160.262 17.2943 160.647 18.1761C161.038 19.058 161.582 19.7238 162.281 20.1737C162.979 20.6235 163.787 20.8484 164.704 20.8484C165.219 20.8484 165.696 20.7803 166.134 20.6442C166.578 20.508 166.971 20.3098 167.314 20.0494C167.658 19.783 167.942 19.4605 168.167 19.0817C168.398 18.7029 168.557 18.2708 168.646 17.7855L172.535 17.8033C172.434 18.6378 172.182 19.4427 171.78 20.218C171.383 20.9875 170.848 21.677 170.173 22.2866C169.504 22.8903 168.705 23.3697 167.776 23.7248C166.853 24.074 165.808 24.2486 164.642 24.2486C163.021 24.2486 161.57 23.8816 160.292 23.1477C159.02 22.4138 158.013 21.3514 157.274 19.9606C156.54 18.5697 156.173 16.8859 156.173 14.9091C156.173 12.9264 156.546 11.2396 157.291 9.84872C158.037 8.45786 159.049 7.39844 160.328 6.67045C161.606 5.93655 163.044 5.5696 164.642 5.5696C165.696 5.5696 166.672 5.71757 167.572 6.01349C168.477 6.30942 169.279 6.74148 169.978 7.30966C170.676 7.87192 171.244 8.56143 171.682 9.3782C172.126 10.195 172.41 11.1301 172.535 12.1836Z" fill="#051945"/>
<path d="M75.1705 30.1818V30.6591H72.304V36H71.7727V30.1818H75.1705ZM77.3246 36.0909C76.9477 36.0909 76.6143 35.9953 76.3246 35.804C76.0367 35.6127 75.8113 35.3485 75.6484 35.0114C75.4856 34.6723 75.4041 34.2812 75.4041 33.8381C75.4041 33.3911 75.4856 32.9981 75.6484 32.6591C75.8113 32.3182 76.0367 32.053 76.3246 31.8636C76.6143 31.6723 76.9477 31.5767 77.3246 31.5767C77.7015 31.5767 78.0339 31.6723 78.3217 31.8636C78.6096 32.0549 78.835 32.3201 78.9979 32.6591C79.1626 32.9981 79.245 33.3911 79.245 33.8381C79.245 34.2812 79.1636 34.6723 79.0007 35.0114C78.8378 35.3485 78.6115 35.6127 78.3217 35.804C78.0339 35.9953 77.7015 36.0909 77.3246 36.0909ZM77.3246 35.6278C77.6276 35.6278 77.8842 35.5464 78.0945 35.3835C78.3047 35.2206 78.4638 35.0038 78.5717 34.733C78.6816 34.4621 78.7365 34.1638 78.7365 33.8381C78.7365 33.5123 78.6816 33.2131 78.5717 32.9403C78.4638 32.6676 78.3047 32.4489 78.0945 32.2841C77.8842 32.1193 77.6276 32.0369 77.3246 32.0369C77.0234 32.0369 76.7668 32.1193 76.5547 32.2841C76.3445 32.4489 76.1844 32.6676 76.0746 32.9403C75.9666 33.2131 75.9126 33.5123 75.9126 33.8381C75.9126 34.1638 75.9666 34.4621 76.0746 34.733C76.1844 35.0038 76.3445 35.2206 76.5547 35.3835C76.7649 35.5464 77.0215 35.6278 77.3246 35.6278ZM79.9261 36V35.5227H80.0625C80.2178 35.5227 80.3428 35.4943 80.4375 35.4375C80.5341 35.3788 80.6089 35.2803 80.6619 35.142C80.715 35.0038 80.7547 34.8153 80.7812 34.5767C80.8078 34.3381 80.8286 34.0388 80.8438 33.679L80.9375 31.6364H83.7102V36H83.2017V32.1136H81.4176L81.3352 33.8494C81.3182 34.2036 81.2898 34.5152 81.25 34.7841C81.2121 35.053 81.1496 35.2775 81.0625 35.4574C80.9773 35.6373 80.858 35.7727 80.7045 35.8636C80.553 35.9545 80.3542 36 80.108 36H79.9261ZM86.7464 36.0909C86.3696 36.0909 86.0362 35.9953 85.7464 35.804C85.4586 35.6127 85.2332 35.3485 85.0703 35.0114C84.9074 34.6723 84.826 34.2812 84.826 33.8381C84.826 33.3911 84.9074 32.9981 85.0703 32.6591C85.2332 32.3182 85.4586 32.053 85.7464 31.8636C86.0362 31.6723 86.3696 31.5767 86.7464 31.5767C87.1233 31.5767 87.4557 31.6723 87.7436 31.8636C88.0315 32.0549 88.2569 32.3201 88.4197 32.6591C88.5845 32.9981 88.6669 33.3911 88.6669 33.8381C88.6669 34.2812 88.5855 34.6723 88.4226 35.0114C88.2597 35.3485 88.0334 35.6127 87.7436 35.804C87.4557 35.9953 87.1233 36.0909 86.7464 36.0909ZM86.7464 35.6278C87.0495 35.6278 87.3061 35.5464 87.5163 35.3835C87.7266 35.2206 87.8857 35.0038 87.9936 34.733C88.1035 34.4621 88.1584 34.1638 88.1584 33.8381C88.1584 33.5123 88.1035 33.2131 87.9936 32.9403C87.8857 32.6676 87.7266 32.4489 87.5163 32.2841C87.3061 32.1193 87.0495 32.0369 86.7464 32.0369C86.4453 32.0369 86.1887 32.1193 85.9766 32.2841C85.7663 32.4489 85.6063 32.6676 85.4964 32.9403C85.3885 33.2131 85.3345 33.5123 85.3345 33.8381C85.3345 34.1638 85.3885 34.4621 85.4964 34.733C85.6063 35.0038 85.7663 35.2206 85.9766 35.3835C86.1868 35.5464 86.4434 35.6278 86.7464 35.6278ZM89.777 36V31.6364H91.4957C91.9598 31.6364 92.3253 31.7367 92.5923 31.9375C92.8613 32.1383 92.9957 32.4091 92.9957 32.75C92.9957 33.0095 92.9209 33.2169 92.7713 33.3722C92.6217 33.5275 92.4209 33.6373 92.169 33.7017C92.3376 33.7301 92.4938 33.7917 92.6378 33.8864C92.7836 33.9811 92.902 34.1061 92.9929 34.2614C93.0838 34.4167 93.1293 34.6023 93.1293 34.8182C93.1293 35.0455 93.0724 35.2481 92.9588 35.4261C92.8452 35.6042 92.6851 35.7443 92.4787 35.8466C92.2723 35.9489 92.0279 36 91.7457 36H89.777ZM90.2599 35.5312H91.7457C92.0128 35.5312 92.224 35.4631 92.3793 35.3267C92.5346 35.1884 92.6122 35.0047 92.6122 34.7756C92.6122 34.5312 92.5384 34.3362 92.3906 34.1903C92.2448 34.0426 92.0488 33.9688 91.8026 33.9688H90.2599V35.5312ZM90.2599 33.5199H91.527C91.724 33.5199 91.8944 33.4896 92.0384 33.429C92.1823 33.3684 92.2931 33.2831 92.3707 33.1733C92.4503 33.0616 92.4891 32.9309 92.4872 32.7812C92.4872 32.5672 92.4001 32.4015 92.2259 32.2841C92.0516 32.1648 91.8082 32.1051 91.4957 32.1051H90.2599V33.5199ZM97.1839 33.5824V34.0597H94.6186V33.5824H97.1839ZM94.7436 31.6364V36H94.2379V31.6364H94.7436ZM97.5561 31.6364V36H97.0504V31.6364H97.5561ZM100.598 36.0909C100.221 36.0909 99.8878 35.9953 99.598 35.804C99.3101 35.6127 99.0848 35.3485 98.9219 35.0114C98.759 34.6723 98.6776 34.2812 98.6776 33.8381C98.6776 33.3911 98.759 32.9981 98.9219 32.6591C99.0848 32.3182 99.3101 32.053 99.598 31.8636C99.8878 31.6723 100.221 31.5767 100.598 31.5767C100.975 31.5767 101.307 31.6723 101.595 31.8636C101.883 32.0549 102.108 32.3201 102.271 32.6591C102.436 32.9981 102.518 33.3911 102.518 33.8381C102.518 34.2812 102.437 34.6723 102.274 35.0114C102.111 35.3485 101.885 35.6127 101.595 35.804C101.307 35.9953 100.975 36.0909 100.598 36.0909ZM100.598 35.6278C100.901 35.6278 101.158 35.5464 101.368 35.3835C101.578 35.2206 101.737 35.0038 101.845 34.733C101.955 34.4621 102.01 34.1638 102.01 33.8381C102.01 33.5123 101.955 33.2131 101.845 32.9403C101.737 32.6676 101.578 32.4489 101.368 32.2841C101.158 32.1193 100.901 32.0369 100.598 32.0369C100.297 32.0369 100.04 32.1193 99.8281 32.2841C99.6179 32.4489 99.4579 32.6676 99.348 32.9403C99.2401 33.2131 99.1861 33.5123 99.1861 33.8381C99.1861 34.1638 99.2401 34.4621 99.348 34.733C99.4579 35.0038 99.6179 35.2206 99.8281 35.3835C100.038 35.5464 100.295 35.6278 100.598 35.6278ZM104.134 35.2812L106.438 31.6364H107.043V36H106.538V32.3551L104.242 36H103.629V31.6364H104.134V35.2812ZM105.859 30.1818H106.336C106.336 30.4527 106.246 30.6723 106.066 30.8409C105.888 31.0095 105.645 31.0938 105.336 31.0938C105.031 31.0938 104.79 31.0095 104.612 30.8409C104.433 30.6723 104.344 30.4527 104.344 30.1818H104.822C104.822 30.3295 104.862 30.4545 104.941 30.5568C105.022 30.6572 105.154 30.7074 105.336 30.7074C105.518 30.7074 105.65 30.6572 105.734 30.5568C105.817 30.4545 105.859 30.3295 105.859 30.1818ZM113.938 31.6364V35.5199H114.401V37.4119H113.896V36H110.634V31.6364H111.143V35.5227H113.43V31.6364H113.938ZM117.197 36.0909C116.79 36.0909 116.438 35.9962 116.141 35.8068C115.843 35.6155 115.613 35.3513 115.45 35.0142C115.289 34.6752 115.209 34.285 115.209 33.8438C115.209 33.4044 115.289 33.0142 115.45 32.6733C115.613 32.3305 115.838 32.0625 116.124 31.8693C116.411 31.6742 116.744 31.5767 117.121 31.5767C117.357 31.5767 117.586 31.6203 117.805 31.7074C118.025 31.7926 118.222 31.9242 118.396 32.1023C118.572 32.2784 118.712 32.5009 118.814 32.7699C118.916 33.0369 118.967 33.3532 118.967 33.7188V33.9688H115.558V33.5227H118.45C118.45 33.2424 118.393 32.9905 118.28 32.767C118.168 32.5417 118.012 32.3636 117.811 32.233C117.612 32.1023 117.382 32.0369 117.121 32.0369C116.844 32.0369 116.601 32.1108 116.391 32.2585C116.18 32.4062 116.016 32.6013 115.896 32.8438C115.779 33.0862 115.719 33.3513 115.717 33.6392V33.9062C115.717 34.2528 115.777 34.5559 115.896 34.8153C116.018 35.0729 116.189 35.2727 116.411 35.4148C116.632 35.5568 116.894 35.6278 117.197 35.6278C117.404 35.6278 117.585 35.5956 117.74 35.5312C117.897 35.4669 118.029 35.3807 118.135 35.2727C118.243 35.1629 118.324 35.0426 118.379 34.9119L118.859 35.0682C118.793 35.2519 118.684 35.4214 118.533 35.5767C118.383 35.732 118.196 35.857 117.97 35.9517C117.747 36.0445 117.489 36.0909 117.197 36.0909ZM123.028 33.5824V34.0597H120.462V33.5824H123.028ZM120.587 31.6364V36H120.082V31.6364H120.587ZM123.4 31.6364V36H122.894V31.6364H123.4ZM124.135 32.1136V31.6364H127.544V32.1136H126.101V36H125.595V32.1136H124.135ZM128.613 37.6364V31.6364H129.104V32.4688H129.164C129.225 32.3381 129.308 32.2045 129.414 32.0682C129.52 31.9299 129.66 31.8134 129.835 31.7188C130.011 31.6241 130.232 31.5767 130.499 31.5767C130.859 31.5767 131.174 31.6714 131.442 31.8608C131.713 32.0483 131.924 32.3116 132.073 32.6506C132.225 32.9877 132.3 33.3807 132.3 33.8295C132.3 34.2803 132.225 34.6752 132.073 35.0142C131.924 35.3532 131.713 35.6174 131.442 35.8068C131.174 35.9962 130.861 36.0909 130.505 36.0909C130.242 36.0909 130.021 36.0436 129.843 35.9489C129.667 35.8542 129.524 35.7377 129.414 35.5994C129.306 35.4593 129.223 35.3229 129.164 35.1903H129.119V37.6364H128.613ZM129.113 33.821C129.113 34.1733 129.165 34.4858 129.269 34.7585C129.375 35.0294 129.527 35.2424 129.724 35.3977C129.923 35.5511 130.163 35.6278 130.445 35.6278C130.735 35.6278 130.979 35.5483 131.178 35.3892C131.379 35.2282 131.531 35.0114 131.636 34.7386C131.742 34.4659 131.795 34.16 131.795 33.821C131.795 33.4858 131.743 33.1837 131.638 32.9148C131.536 32.6458 131.385 32.4328 131.184 32.2756C130.983 32.1165 130.737 32.0369 130.445 32.0369C130.161 32.0369 129.92 32.1136 129.721 32.267C129.522 32.4186 129.371 32.6288 129.266 32.8977C129.164 33.1648 129.113 33.4725 129.113 33.821ZM136.165 35.2812L138.469 31.6364H139.075V36H138.569V32.3551L136.273 36H135.66V31.6364H136.165V35.2812ZM142.114 36.0909C141.724 36.0909 141.384 35.9934 141.094 35.7983C140.807 35.6032 140.583 35.3362 140.424 34.9972C140.265 34.6581 140.185 34.2718 140.185 33.8381C140.185 33.4006 140.266 33.0114 140.427 32.6705C140.59 32.3295 140.815 32.0625 141.103 31.8693C141.391 31.6742 141.725 31.5767 142.106 31.5767C142.397 31.5767 142.662 31.6335 142.898 31.7472C143.135 31.8589 143.33 32.017 143.484 32.2216C143.639 32.4242 143.737 32.661 143.776 32.9318H143.265C143.212 32.6856 143.084 32.4754 142.881 32.3011C142.681 32.125 142.425 32.0369 142.114 32.0369C141.836 32.0369 141.59 32.1127 141.376 32.2642C141.162 32.4138 140.994 32.6231 140.873 32.892C140.754 33.1591 140.694 33.4687 140.694 33.821C140.694 34.1752 140.753 34.4886 140.87 34.7614C140.987 35.0322 141.152 35.2443 141.364 35.3977C141.578 35.5511 141.828 35.6278 142.114 35.6278C142.308 35.6278 142.484 35.5919 142.643 35.5199C142.804 35.446 142.938 35.3419 143.046 35.2074C143.156 35.0729 143.23 34.9129 143.268 34.7273H143.779C143.741 34.9905 143.647 35.2254 143.498 35.4318C143.35 35.6364 143.158 35.7973 142.921 35.9148C142.686 36.0322 142.417 36.0909 142.114 36.0909ZM144.869 36V31.6364H148.173V36H147.664V32.1136H145.377V36H144.869ZM149.938 33.321H151.216C151.706 33.321 152.085 33.4403 152.352 33.679C152.619 33.9176 152.753 34.2405 152.753 34.6477C152.753 34.9186 152.692 35.1553 152.571 35.358C152.452 35.5606 152.277 35.7187 152.048 35.8324C151.819 35.9441 151.542 36 151.216 36H149.517V31.6364H150.026V35.5227H151.216C151.525 35.5227 151.773 35.4489 151.96 35.3011C152.15 35.1534 152.244 34.9432 152.244 34.6705C152.244 34.392 152.15 34.1771 151.96 34.0256C151.773 33.8741 151.525 33.7983 151.216 33.7983H149.938V33.321ZM153.489 36V31.6364H153.994V36H153.489ZM155.072 32.1136V31.6364H158.482V32.1136H157.038V36H156.533V32.1136H155.072ZM160.543 36.0994C160.279 36.0994 160.039 36.0483 159.821 35.946C159.603 35.8419 159.43 35.6922 159.301 35.4972C159.172 35.3002 159.108 35.0616 159.108 34.7812C159.108 34.5653 159.149 34.3835 159.23 34.2358C159.312 34.0881 159.427 33.9669 159.577 33.8722C159.726 33.7775 159.903 33.7027 160.108 33.6477C160.313 33.5928 160.538 33.5502 160.784 33.5199C161.028 33.4896 161.235 33.4631 161.403 33.4403C161.574 33.4176 161.704 33.3816 161.793 33.3324C161.882 33.2831 161.926 33.2036 161.926 33.0938V32.9915C161.926 32.6941 161.837 32.4602 161.659 32.2898C161.483 32.1174 161.229 32.0312 160.898 32.0312C160.583 32.0312 160.327 32.1004 160.128 32.2386C159.931 32.3769 159.793 32.5398 159.713 32.7273L159.233 32.554C159.331 32.3153 159.468 32.125 159.642 31.983C159.816 31.839 160.011 31.7358 160.227 31.6733C160.443 31.6089 160.662 31.5767 160.884 31.5767C161.05 31.5767 161.223 31.5985 161.403 31.642C161.585 31.6856 161.754 31.7614 161.909 31.8693C162.064 31.9754 162.19 32.1241 162.287 32.3153C162.384 32.5047 162.432 32.7453 162.432 33.0369V36H161.926V35.3097H161.895C161.834 35.4384 161.744 35.5634 161.625 35.6847C161.506 35.8059 161.356 35.9053 161.176 35.983C160.996 36.0606 160.785 36.0994 160.543 36.0994ZM160.611 35.6364C160.88 35.6364 161.113 35.5767 161.31 35.4574C161.507 35.3381 161.658 35.1799 161.764 34.983C161.872 34.7841 161.926 34.5653 161.926 34.3267V33.696C161.888 33.732 161.825 33.7642 161.736 33.7926C161.649 33.821 161.547 33.8466 161.432 33.8693C161.318 33.8902 161.205 33.9081 161.091 33.9233C160.977 33.9384 160.875 33.9517 160.784 33.9631C160.538 33.9934 160.328 34.0407 160.153 34.1051C159.979 34.1695 159.846 34.2585 159.753 34.3722C159.66 34.4839 159.614 34.6278 159.614 34.804C159.614 35.0691 159.708 35.2746 159.898 35.4205C160.087 35.5644 160.325 35.6364 160.611 35.6364ZM166.723 33.5824V34.0597H164.158V33.5824H166.723ZM164.283 31.6364V36H163.777V31.6364H164.283ZM167.095 31.6364V36H166.589V31.6364H167.095ZM168.947 35.2812L171.251 31.6364H171.856V36H171.35V32.3551L169.055 36H168.441V31.6364H168.947V35.2812ZM173.697 35.2812L176.001 31.6364H176.606V36H176.1V32.3551L173.805 36H173.191V31.6364H173.697V35.2812ZM175.421 30.1818H175.898C175.898 30.4527 175.808 30.6723 175.629 30.8409C175.451 31.0095 175.207 31.0938 174.898 31.0938C174.594 31.0938 174.352 31.0095 174.174 30.8409C173.996 30.6723 173.907 30.4527 173.907 30.1818H174.384C174.384 30.3295 174.424 30.4545 174.504 30.5568C174.585 30.6572 174.717 30.7074 174.898 30.7074C175.08 30.7074 175.213 30.6572 175.296 30.5568C175.379 30.4545 175.421 30.3295 175.421 30.1818ZM178.782 35.2045L178.731 35.5085C178.699 35.7131 178.653 35.9384 178.594 36.1847C178.536 36.4309 178.475 36.6648 178.413 36.8864C178.35 37.108 178.296 37.286 178.251 37.4205H177.862C177.886 37.2917 177.917 37.1278 177.955 36.929C177.995 36.7301 178.036 36.5095 178.077 36.267C178.119 36.0265 178.157 35.7784 178.191 35.5227L178.231 35.2045H178.782ZM73.3722 46.0909C72.982 46.0909 72.642 45.9934 72.3523 45.7983C72.0644 45.6032 71.8409 45.3362 71.6818 44.9972C71.5227 44.6581 71.4432 44.2718 71.4432 43.8381C71.4432 43.4006 71.5237 43.0114 71.6847 42.6705C71.8475 42.3295 72.0729 42.0625 72.3608 41.8693C72.6487 41.6742 72.983 41.5767 73.3636 41.5767C73.6553 41.5767 73.9195 41.6335 74.1562 41.7472C74.393 41.8589 74.5881 42.017 74.7415 42.2216C74.8968 42.4242 74.9943 42.661 75.0341 42.9318H74.5227C74.4697 42.6856 74.3419 42.4754 74.1392 42.3011C73.9384 42.125 73.6828 42.0369 73.3722 42.0369C73.0938 42.0369 72.8475 42.1127 72.6335 42.2642C72.4195 42.4138 72.2519 42.6231 72.1307 42.892C72.0114 43.1591 71.9517 43.4687 71.9517 43.821C71.9517 44.1752 72.0104 44.4886 72.1278 44.7614C72.2453 45.0322 72.41 45.2443 72.6222 45.3977C72.8362 45.5511 73.0862 45.6278 73.3722 45.6278C73.5653 45.6278 73.7415 45.5919 73.9006 45.5199C74.0616 45.446 74.196 45.3419 74.304 45.2074C74.4138 45.0729 74.4877 44.9129 74.5256 44.7273H75.0369C74.9991 44.9905 74.9053 45.2254 74.7557 45.4318C74.608 45.6364 74.4157 45.7973 74.179 45.9148C73.9441 46.0322 73.6752 46.0909 73.3722 46.0909ZM77.8849 46.0909C77.4777 46.0909 77.1255 45.9962 76.8281 45.8068C76.5308 45.6155 76.3007 45.3513 76.1378 45.0142C75.9768 44.6752 75.8963 44.285 75.8963 43.8438C75.8963 43.4044 75.9768 43.0142 76.1378 42.6733C76.3007 42.3305 76.5251 42.0625 76.8111 41.8693C77.099 41.6742 77.4313 41.5767 77.8082 41.5767C78.045 41.5767 78.2732 41.6203 78.4929 41.7074C78.7126 41.7926 78.9096 41.9242 79.0838 42.1023C79.2599 42.2784 79.3991 42.5009 79.5014 42.7699C79.6037 43.0369 79.6548 43.3532 79.6548 43.7188V43.9688H76.2457V43.5227H79.1378C79.1378 43.2424 79.081 42.9905 78.9673 42.767C78.8556 42.5417 78.6993 42.3636 78.4986 42.233C78.2997 42.1023 78.0696 42.0369 77.8082 42.0369C77.5317 42.0369 77.2884 42.1108 77.0781 42.2585C76.8679 42.4062 76.7031 42.6013 76.5838 42.8438C76.4664 43.0862 76.4067 43.3513 76.4048 43.6392V43.9062C76.4048 44.2528 76.4645 44.5559 76.5838 44.8153C76.705 45.0729 76.8764 45.2727 77.098 45.4148C77.3196 45.5568 77.5819 45.6278 77.8849 45.6278C78.0914 45.6278 78.2723 45.5956 78.4276 45.5312C78.5848 45.4669 78.7164 45.3807 78.8224 45.2727C78.9304 45.1629 79.0118 45.0426 79.0668 44.9119L79.5469 45.0682C79.4806 45.2519 79.3717 45.4214 79.2202 45.5767C79.0705 45.732 78.883 45.857 78.6577 45.9517C78.4342 46.0445 78.1766 46.0909 77.8849 46.0909ZM80.7692 47.6364V41.6364H81.2607V42.4688H81.3203C81.3809 42.3381 81.4643 42.2045 81.5703 42.0682C81.6764 41.9299 81.8165 41.8134 81.9908 41.7188C82.1669 41.6241 82.3885 41.5767 82.6555 41.5767C83.0154 41.5767 83.3298 41.6714 83.5987 41.8608C83.8696 42.0483 84.0798 42.3116 84.2294 42.6506C84.3809 42.9877 84.4567 43.3807 84.4567 43.8295C84.4567 44.2803 84.3809 44.6752 84.2294 45.0142C84.0798 45.3532 83.8696 45.6174 83.5987 45.8068C83.3298 45.9962 83.0173 46.0909 82.6612 46.0909C82.398 46.0909 82.1773 46.0436 81.9993 45.9489C81.8232 45.8542 81.6802 45.7377 81.5703 45.5994C81.4624 45.4593 81.379 45.3229 81.3203 45.1903H81.2749V47.6364H80.7692ZM81.2692 43.821C81.2692 44.1733 81.3213 44.4858 81.4254 44.7585C81.5315 45.0294 81.683 45.2424 81.88 45.3977C82.0788 45.5511 82.3194 45.6278 82.6016 45.6278C82.8913 45.6278 83.1357 45.5483 83.3345 45.3892C83.5353 45.2282 83.6877 45.0114 83.7919 44.7386C83.898 44.4659 83.951 44.16 83.951 43.821C83.951 43.4858 83.8989 43.1837 83.7947 42.9148C83.6925 42.6458 83.541 42.4328 83.3402 42.2756C83.1394 42.1165 82.8932 42.0369 82.6016 42.0369C82.3175 42.0369 82.076 42.1136 81.8771 42.267C81.6783 42.4186 81.5268 42.6288 81.4226 42.8977C81.3203 43.1648 81.2692 43.4725 81.2692 43.821ZM84.9787 42.1136V41.6364H88.3878V42.1136H86.9446V46H86.4389V42.1136H84.9787ZM89.9624 45.2812L92.2663 41.6364H92.8714V46H92.3658V42.3551L90.0703 46H89.4567V41.6364H89.9624V45.2812ZM96.0504 47.4886V40.1818H96.5589V47.4886H96.0504ZM96.0504 46.0909C95.7493 46.0909 95.4728 46.036 95.2209 45.9261C94.969 45.8163 94.7502 45.661 94.5646 45.4602C94.3809 45.2576 94.2379 45.0189 94.1357 44.7443C94.0334 44.4697 93.9822 44.1686 93.9822 43.8409C93.9822 43.5095 94.0334 43.2055 94.1357 42.929C94.2379 42.6525 94.3809 42.4138 94.5646 42.2131C94.7502 42.0123 94.969 41.857 95.2209 41.7472C95.4728 41.6354 95.7493 41.5795 96.0504 41.5795H96.201V46.0909H96.0504ZM96.0504 45.6278H96.1328V42.0426H96.0504C95.8061 42.0426 95.5874 42.0909 95.3942 42.1875C95.201 42.2822 95.0372 42.4129 94.9027 42.5795C94.7682 42.7462 94.666 42.9375 94.5959 43.1534C94.5258 43.3693 94.4908 43.5985 94.4908 43.8409C94.4908 44.1629 94.5523 44.4593 94.6754 44.7301C94.8004 45.0009 94.9794 45.2187 95.2124 45.3835C95.4453 45.5483 95.7247 45.6297 96.0504 45.6278ZM96.5589 46.0909H96.4055V41.5795H96.5589C96.8582 41.5795 97.1338 41.6354 97.3857 41.7472C97.6394 41.857 97.8582 42.0123 98.0419 42.2131C98.2275 42.4138 98.3714 42.6525 98.4737 42.929C98.576 43.2055 98.6271 43.5095 98.6271 43.8409C98.6271 44.1686 98.576 44.4697 98.4737 44.7443C98.3714 45.0189 98.2275 45.2576 98.0419 45.4602C97.8582 45.661 97.6394 45.8163 97.3857 45.9261C97.1338 46.036 96.8582 46.0909 96.5589 46.0909ZM96.5589 45.6278C96.8033 45.6278 97.0211 45.5814 97.2124 45.4886C97.4055 45.3939 97.5694 45.2633 97.7038 45.0966C97.8402 44.9299 97.9434 44.7396 98.0135 44.5256C98.0836 44.3097 98.1186 44.0814 98.1186 43.8409C98.1186 43.5189 98.0561 43.2216 97.9311 42.9489C97.808 42.6761 97.63 42.4574 97.397 42.2926C97.1641 42.1259 96.8847 42.0426 96.5589 42.0426H96.4737V45.6278H96.5589ZM100.244 45.2812L102.548 41.6364H103.153V46H102.647V42.3551L100.352 46H99.7379V41.6364H100.244V45.2812ZM104.488 46V41.6364H104.994V43.5994H105.468L107.09 41.6364H107.744L105.994 43.7358L107.783 46H107.13L105.624 44.0767H104.994V46H104.488ZM109.832 46.0994C109.568 46.0994 109.328 46.0483 109.11 45.946C108.892 45.8419 108.719 45.6922 108.59 45.4972C108.461 45.3002 108.397 45.0616 108.397 44.7812C108.397 44.5653 108.438 44.3835 108.519 44.2358C108.601 44.0881 108.716 43.9669 108.866 43.8722C109.015 43.7775 109.192 43.7027 109.397 43.6477C109.602 43.5928 109.827 43.5502 110.073 43.5199C110.317 43.4896 110.524 43.4631 110.692 43.4403C110.863 43.4176 110.993 43.3816 111.082 43.3324C111.171 43.2831 111.215 43.2036 111.215 43.0938V42.9915C111.215 42.6941 111.126 42.4602 110.948 42.2898C110.772 42.1174 110.518 42.0312 110.187 42.0312C109.872 42.0312 109.616 42.1004 109.417 42.2386C109.22 42.3769 109.082 42.5398 109.002 42.7273L108.522 42.554C108.621 42.3153 108.757 42.125 108.931 41.983C109.105 41.839 109.3 41.7358 109.516 41.6733C109.732 41.6089 109.951 41.5767 110.173 41.5767C110.339 41.5767 110.513 41.5985 110.692 41.642C110.874 41.6856 111.043 41.7614 111.198 41.8693C111.353 41.9754 111.479 42.1241 111.576 42.3153C111.673 42.5047 111.721 42.7453 111.721 43.0369V46H111.215V45.3097H111.184C111.123 45.4384 111.033 45.5634 110.914 45.6847C110.795 45.8059 110.645 45.9053 110.465 45.983C110.285 46.0606 110.074 46.0994 109.832 46.0994ZM109.9 45.6364C110.169 45.6364 110.402 45.5767 110.599 45.4574C110.796 45.3381 110.947 45.1799 111.053 44.983C111.161 44.7841 111.215 44.5653 111.215 44.3267V43.696C111.177 43.732 111.114 43.7642 111.025 43.7926C110.938 43.821 110.836 43.8466 110.721 43.8693C110.607 43.8902 110.494 43.9081 110.38 43.9233C110.266 43.9384 110.164 43.9517 110.073 43.9631C109.827 43.9934 109.617 44.0407 109.442 44.1051C109.268 44.1695 109.135 44.2585 109.042 44.3722C108.949 44.4839 108.903 44.6278 108.903 44.804C108.903 45.0691 108.997 45.2746 109.187 45.4205C109.376 45.5644 109.614 45.6364 109.9 45.6364ZM116.376 41.6364V45.5199H116.839V47.4119H116.333V46H113.072V41.6364H113.58V45.5227H115.867V41.6364H116.376ZM118.423 45.2812L120.727 41.6364H121.332V46H120.827V42.3551L118.531 46H117.918V41.6364H118.423V45.2812ZM123.173 45.2812L125.477 41.6364H126.082V46H125.577V42.3551L123.281 46H122.668V41.6364H123.173V45.2812ZM130.173 45.2812L132.477 41.6364H133.082V46H132.577V42.3551L130.281 46H129.668V41.6364H130.173V45.2812ZM138.372 46.0909C137.982 46.0909 137.642 45.9934 137.352 45.7983C137.064 45.6032 136.841 45.3362 136.682 44.9972C136.523 44.6581 136.443 44.2718 136.443 43.8381C136.443 43.4006 136.524 43.0114 136.685 42.6705C136.848 42.3295 137.073 42.0625 137.361 41.8693C137.649 41.6742 137.983 41.5767 138.364 41.5767C138.655 41.5767 138.92 41.6335 139.156 41.7472C139.393 41.8589 139.588 42.017 139.741 42.2216C139.897 42.4242 139.994 42.661 140.034 42.9318H139.523C139.47 42.6856 139.342 42.4754 139.139 42.3011C138.938 42.125 138.683 42.0369 138.372 42.0369C138.094 42.0369 137.848 42.1127 137.634 42.2642C137.42 42.4138 137.252 42.6231 137.131 42.892C137.011 43.1591 136.952 43.4687 136.952 43.821C136.952 44.1752 137.01 44.4886 137.128 44.7614C137.245 45.0322 137.41 45.2443 137.622 45.3977C137.836 45.5511 138.086 45.6278 138.372 45.6278C138.565 45.6278 138.741 45.5919 138.901 45.5199C139.062 45.446 139.196 45.3419 139.304 45.2074C139.414 45.0729 139.488 44.9129 139.526 44.7273H140.037C139.999 44.9905 139.905 45.2254 139.756 45.4318C139.608 45.6364 139.416 45.7973 139.179 45.9148C138.944 46.0322 138.675 46.0909 138.372 46.0909ZM140.76 42.1136V41.6364H144.169V42.1136H142.726V46H142.22V42.1136H140.76ZM146.23 46.0994C145.967 46.0994 145.726 46.0483 145.509 45.946C145.291 45.8419 145.117 45.6922 144.989 45.4972C144.86 45.3002 144.795 45.0616 144.795 44.7812C144.795 44.5653 144.836 44.3835 144.918 44.2358C144.999 44.0881 145.115 43.9669 145.264 43.8722C145.414 43.7775 145.591 43.7027 145.795 43.6477C146 43.5928 146.225 43.5502 146.472 43.5199C146.716 43.4896 146.922 43.4631 147.091 43.4403C147.261 43.4176 147.391 43.3816 147.48 43.3324C147.569 43.2831 147.614 43.2036 147.614 43.0938V42.9915C147.614 42.6941 147.525 42.4602 147.347 42.2898C147.17 42.1174 146.917 42.0312 146.585 42.0312C146.271 42.0312 146.014 42.1004 145.815 42.2386C145.618 42.3769 145.48 42.5398 145.401 42.7273L144.92 42.554C145.019 42.3153 145.155 42.125 145.33 41.983C145.504 41.839 145.699 41.7358 145.915 41.6733C146.131 41.6089 146.349 41.5767 146.571 41.5767C146.738 41.5767 146.911 41.5985 147.091 41.642C147.273 41.6856 147.441 41.7614 147.597 41.8693C147.752 41.9754 147.878 42.1241 147.974 42.3153C148.071 42.5047 148.119 42.7453 148.119 43.0369V46H147.614V45.3097H147.582C147.522 45.4384 147.432 45.5634 147.312 45.6847C147.193 45.8059 147.044 45.9053 146.864 45.983C146.684 46.0606 146.473 46.0994 146.23 46.0994ZM146.298 45.6364C146.567 45.6364 146.8 45.5767 146.997 45.4574C147.194 45.3381 147.346 45.1799 147.452 44.983C147.56 44.7841 147.614 44.5653 147.614 44.3267V43.696C147.576 43.732 147.512 43.7642 147.423 43.7926C147.336 43.821 147.235 43.8466 147.119 43.8693C147.006 43.8902 146.892 43.9081 146.778 43.9233C146.665 43.9384 146.562 43.9517 146.472 43.9631C146.225 43.9934 146.015 44.0407 145.841 44.1051C145.667 44.1695 145.533 44.2585 145.44 44.3722C145.348 44.4839 145.301 44.6278 145.301 44.804C145.301 45.0691 145.396 45.2746 145.585 45.4205C145.775 45.5644 146.012 45.6364 146.298 45.6364ZM152.411 43.5824V44.0597H149.845V43.5824H152.411ZM149.97 41.6364V46H149.464V41.6364H149.97ZM152.783 41.6364V46H152.277V41.6364H152.783ZM153.612 47.2415V45.5227H153.989C154.084 45.4167 154.166 45.3021 154.237 45.179C154.307 45.0559 154.367 44.9157 154.418 44.7585C154.471 44.5994 154.516 44.4148 154.552 44.2045C154.588 43.9924 154.618 43.7453 154.643 43.4631L154.802 41.6364H157.384V45.5227H158.032V47.2415H157.526V46H154.12V47.2415H153.612ZM154.572 45.5227H156.879V42.1136H155.273L155.143 43.4631C155.097 43.9214 155.033 44.321 154.95 44.6619C154.866 45.0028 154.74 45.2898 154.572 45.5227ZM160.214 46.0994C159.951 46.0994 159.711 46.0483 159.493 45.946C159.275 45.8419 159.102 45.6922 158.973 45.4972C158.844 45.3002 158.78 45.0616 158.78 44.7812C158.78 44.5653 158.821 44.3835 158.902 44.2358C158.983 44.0881 159.099 43.9669 159.249 43.8722C159.398 43.7775 159.575 43.7027 159.78 43.6477C159.984 43.5928 160.21 43.5502 160.456 43.5199C160.7 43.4896 160.907 43.4631 161.075 43.4403C161.246 43.4176 161.375 43.3816 161.464 43.3324C161.554 43.2831 161.598 43.2036 161.598 43.0938V42.9915C161.598 42.6941 161.509 42.4602 161.331 42.2898C161.155 42.1174 160.901 42.0312 160.57 42.0312C160.255 42.0312 159.999 42.1004 159.8 42.2386C159.603 42.3769 159.464 42.5398 159.385 42.7273L158.905 42.554C159.003 42.3153 159.14 42.125 159.314 41.983C159.488 41.839 159.683 41.7358 159.899 41.6733C160.115 41.6089 160.334 41.5767 160.555 41.5767C160.722 41.5767 160.895 41.5985 161.075 41.642C161.257 41.6856 161.426 41.7614 161.581 41.8693C161.736 41.9754 161.862 42.1241 161.959 42.3153C162.055 42.5047 162.104 42.7453 162.104 43.0369V46H161.598V45.3097H161.567C161.506 45.4384 161.416 45.5634 161.297 45.6847C161.178 45.8059 161.028 45.9053 160.848 45.983C160.668 46.0606 160.457 46.0994 160.214 46.0994ZM160.283 45.6364C160.552 45.6364 160.785 45.5767 160.982 45.4574C161.179 45.3381 161.33 45.1799 161.436 44.983C161.544 44.7841 161.598 44.5653 161.598 44.3267V43.696C161.56 43.732 161.497 43.7642 161.408 43.7926C161.321 43.821 161.219 43.8466 161.104 43.8693C160.99 43.8902 160.876 43.9081 160.763 43.9233C160.649 43.9384 160.547 43.9517 160.456 43.9631C160.21 43.9934 160 44.0407 159.825 44.1051C159.651 44.1695 159.518 44.2585 159.425 44.3722C159.332 44.4839 159.286 44.6278 159.286 44.804C159.286 45.0691 159.38 45.2746 159.57 45.4205C159.759 45.5644 159.997 45.6364 160.283 45.6364ZM163.449 47.6364V41.6364H163.94V42.4688H164C164.061 42.3381 164.144 42.2045 164.25 42.0682C164.356 41.9299 164.496 41.8134 164.67 41.7188C164.847 41.6241 165.068 41.5767 165.335 41.5767C165.695 41.5767 166.009 41.6714 166.278 41.8608C166.549 42.0483 166.759 42.3116 166.909 42.6506C167.061 42.9877 167.136 43.3807 167.136 43.8295C167.136 44.2803 167.061 44.6752 166.909 45.0142C166.759 45.3532 166.549 45.6174 166.278 45.8068C166.009 45.9962 165.697 46.0909 165.341 46.0909C165.078 46.0909 164.857 46.0436 164.679 45.9489C164.503 45.8542 164.36 45.7377 164.25 45.5994C164.142 45.4593 164.059 45.3229 164 45.1903H163.955V47.6364H163.449ZM163.949 43.821C163.949 44.1733 164.001 44.4858 164.105 44.7585C164.211 45.0294 164.363 45.2424 164.56 45.3977C164.759 45.5511 164.999 45.6278 165.281 45.6278C165.571 45.6278 165.815 45.5483 166.014 45.3892C166.215 45.2282 166.367 45.0114 166.472 44.7386C166.578 44.4659 166.631 44.16 166.631 43.821C166.631 43.4858 166.579 43.1837 166.474 42.9148C166.372 42.6458 166.221 42.4328 166.02 42.2756C165.819 42.1165 165.573 42.0369 165.281 42.0369C164.997 42.0369 164.756 42.1136 164.557 42.267C164.358 42.4186 164.206 42.6288 164.102 42.8977C164 43.1648 163.949 43.4725 163.949 43.821ZM167.658 42.1136V41.6364H171.067V42.1136H169.624V46H169.119V42.1136H167.658ZM172.642 45.2812L174.946 41.6364H175.551V46H175.045V42.3551L172.75 46H172.136V41.6364H172.642V45.2812ZM176.605 44.8864H177.142C177.157 45.1193 177.258 45.3011 177.443 45.4318C177.629 45.5625 177.873 45.6278 178.176 45.6278C178.491 45.6278 178.75 45.5578 178.955 45.4176C179.159 45.2756 179.261 45.0691 179.261 44.7983C179.261 44.6335 179.223 44.4905 179.145 44.3693C179.069 44.2481 178.965 44.1534 178.832 44.0852C178.702 44.0152 178.553 43.9792 178.386 43.9773H177.625V43.5142H178.378C178.637 43.4991 178.834 43.429 178.969 43.304C179.103 43.1771 179.17 43.0114 179.17 42.8068C179.17 42.5739 179.088 42.3873 178.923 42.2472C178.759 42.1051 178.535 42.0341 178.253 42.0341C177.967 42.0341 177.729 42.1042 177.54 42.2443C177.35 42.3845 177.25 42.5644 177.239 42.7841H176.707C176.717 42.5473 176.788 42.339 176.92 42.1591C177.053 41.9773 177.232 41.8352 177.457 41.733C177.685 41.6307 177.942 41.5795 178.23 41.5795C178.526 41.5795 178.782 41.6326 179 41.7386C179.218 41.8447 179.386 41.9896 179.506 42.1733C179.625 42.3551 179.685 42.5616 179.685 42.7926C179.685 43.0331 179.618 43.2311 179.486 43.3864C179.355 43.5398 179.188 43.6477 178.983 43.7102V43.7528C179.138 43.7699 179.275 43.8267 179.392 43.9233C179.511 44.0199 179.605 44.1439 179.673 44.2955C179.741 44.447 179.776 44.6146 179.776 44.7983C179.776 45.0559 179.708 45.2822 179.574 45.4773C179.439 45.6705 179.252 45.821 179.011 45.929C178.773 46.0369 178.497 46.0909 178.185 46.0909C177.884 46.0909 177.616 46.0407 177.381 45.9403C177.146 45.8381 176.959 45.697 176.821 45.517C176.685 45.3352 176.613 45.125 176.605 44.8864ZM182.035 46.0994C181.772 46.0994 181.531 46.0483 181.313 45.946C181.095 45.8419 180.922 45.6922 180.793 45.4972C180.665 45.3002 180.6 45.0616 180.6 44.7812C180.6 44.5653 180.641 44.3835 180.722 44.2358C180.804 44.0881 180.919 43.9669 181.069 43.8722C181.219 43.7775 181.396 43.7027 181.6 43.6477C181.805 43.5928 182.03 43.5502 182.276 43.5199C182.521 43.4896 182.727 43.4631 182.896 43.4403C183.066 43.4176 183.196 43.3816 183.285 43.3324C183.374 43.2831 183.418 43.2036 183.418 43.0938V42.9915C183.418 42.6941 183.329 42.4602 183.151 42.2898C182.975 42.1174 182.721 42.0312 182.39 42.0312C182.076 42.0312 181.819 42.1004 181.62 42.2386C181.423 42.3769 181.285 42.5398 181.205 42.7273L180.725 42.554C180.824 42.3153 180.96 42.125 181.134 41.983C181.308 41.839 181.504 41.7358 181.719 41.6733C181.935 41.6089 182.154 41.5767 182.376 41.5767C182.542 41.5767 182.716 41.5985 182.896 41.642C183.077 41.6856 183.246 41.7614 183.401 41.8693C183.557 41.9754 183.683 42.1241 183.779 42.3153C183.876 42.5047 183.924 42.7453 183.924 43.0369V46H183.418V45.3097H183.387C183.326 45.4384 183.237 45.5634 183.117 45.6847C182.998 45.8059 182.848 45.9053 182.668 45.983C182.488 46.0606 182.277 46.0994 182.035 46.0994ZM182.103 45.6364C182.372 45.6364 182.605 45.5767 182.802 45.4574C182.999 45.3381 183.15 45.1799 183.256 44.983C183.364 44.7841 183.418 44.5653 183.418 44.3267V43.696C183.38 43.732 183.317 43.7642 183.228 43.7926C183.141 43.821 183.04 43.8466 182.924 43.8693C182.81 43.8902 182.697 43.9081 182.583 43.9233C182.469 43.9384 182.367 43.9517 182.276 43.9631C182.03 43.9934 181.82 44.0407 181.646 44.1051C181.471 44.1695 181.338 44.2585 181.245 44.3722C181.152 44.4839 181.106 44.6278 181.106 44.804C181.106 45.0691 181.201 45.2746 181.39 45.4205C181.579 45.5644 181.817 45.6364 182.103 45.6364ZM188.579 41.6364V45.5199H189.042V47.4119H188.536V46H185.275V41.6364H185.783V45.5227H188.07V41.6364H188.579ZM190.626 45.2812L192.93 41.6364H193.536V46H193.03V42.3551L190.734 46H190.121V41.6364H190.626V45.2812ZM195.376 45.2812L197.68 41.6364H198.286V46H197.78V42.3551L195.484 46H194.871V41.6364H195.376V45.2812Z" fill="#051945"/>
</svg>
