<svg width="20" height="20" viewBox="0 0 20 20" fill="none" xmlns="http://www.w3.org/2000/svg">
<path d="M19.196 9.598C19.196 14.894 14.894 19.196 9.598 19.196C4.302 19.196 0 14.894 0 9.598C0 4.302 4.302 0 9.598 0C14.894 0 19.196 4.302 19.196 9.598Z" fill="#051945"/>
<path d="M14.85 11.27C14.85 11.27 15.69 12.09 15.92 12.54C15.93 12.55 15.93 12.57 15.94 12.58C16.06 12.77 16.09 12.92 16.04 13.03C15.95 13.21 15.62 13.3 15.51 13.31H13.91C13.78 13.31 13.5 13.27 13.17 13.04C12.91 12.86 12.66 12.56 12.42 12.27C12.06 11.84 11.75 11.47 11.44 11.47C11.4 11.47 11.36 11.48 11.32 11.49C11.07 11.57 10.74 11.87 10.74 12.75C10.74 13.01 10.54 13.31 9.72 13.31C8.61 13.31 7.38 12.69 6.38 11.3C4.87 9.21 4.41 7.59 4.41 7.3C4.41 7.14 4.52 7.06 4.67 7.06H6.28C6.52 7.06 6.61 7.17 6.7 7.39C7.14 8.49 7.95 9.74 8.31 9.74C8.34 9.74 8.37 9.73 8.4 9.71C8.68 9.55 8.61 8.19 8.61 7.82C8.61 7.15 8.44 6.85 8.07 6.77C7.92 6.74 7.82 6.6 7.92 6.42C8.07 6.16 8.35 5.87 8.72 5.87H9.02C9.52 5.87 9.54 5.9 9.65 5.9H9.98C10.46 5.9 10.6 6.16 10.6 6.56C10.6 6.88 10.44 7.65 10.35 8.18C10.32 8.36 10.3 8.51 10.3 8.6C10.3 8.7 10.35 8.83 10.45 8.9C10.48 8.92 10.52 8.93 10.56 8.93C10.67 8.93 10.98 8.88 11.69 7.88C12.17 7.17 12.52 6.28 12.55 6.2C12.58 6.14 12.68 6.01 12.78 6.01C12.82 6.01 12.86 6.02 12.9 6.04L14.63 6.04C14.98 6.04 15.14 6.14 15.08 6.36C14.94 6.91 13.56 8.79 13.38 9.07C13.21 9.33 13.23 9.44 13.42 9.68C13.54 9.83 14.85 11.27 14.85 11.27Z" fill="white"/>
</svg>
