<svg width="20" height="20" viewBox="0 0 20 20" fill="none" xmlns="http://www.w3.org/2000/svg">
<path d="M17.2765 9.59796C17.2765 10.9929 16.9246 12.2854 16.2208 13.4756C15.5425 14.6274 14.6275 15.5424 13.4757 16.2206C12.2855 16.9245 10.993 17.2764 9.59808 17.2764C8.20316 17.2764 6.91062 16.9245 5.72046 16.2206C4.56869 15.5424 3.65367 14.6274 2.97541 13.4756C2.27155 12.2854 1.91962 10.9929 1.91962 9.59796C1.91962 8.20304 2.27155 6.9105 2.97541 5.72034C3.65367 4.56857 4.56869 3.65355 5.72046 2.97529C6.91062 2.27143 8.20316 1.9195 9.59808 1.9195C10.993 1.9195 12.2855 2.27143 13.4757 2.97529C14.6275 3.65355 15.5425 4.56857 16.2208 5.72034C16.9246 6.9105 17.2765 8.20304 17.2765 9.59796ZM9.59808 19.196C10.9034 19.196 12.1512 18.9465 13.3413 18.4474C14.4803 17.9611 15.4945 17.2732 16.3839 16.3838C17.2733 15.4944 17.9612 14.4802 18.4475 13.3412C18.9466 12.1511 19.1962 10.9033 19.1962 9.59796C19.1962 8.29262 18.9466 7.04487 18.4475 5.85471C17.9612 4.71574 17.2733 3.70154 16.3839 2.81212C15.4945 1.9227 14.4803 1.23484 13.3413 0.748533C12.1512 0.249434 10.9034 -0.000116348 9.59808 -0.000116348C8.29274 -0.000116348 7.04499 0.249434 5.85483 0.748533C4.71586 1.23484 3.70166 1.9227 2.81224 2.81212C1.92282 3.70154 1.23495 4.71574 0.74865 5.85471C0.24955 7.04487 0 8.29262 0 9.59796C0 10.9033 0.24955 12.1511 0.74865 13.3412C1.23495 14.4802 1.92282 15.4944 2.81224 16.3838C3.70166 17.2732 4.71586 17.9611 5.85483 18.4474C7.04499 18.9465 8.29274 19.196 9.59808 19.196ZM9.94361 7.08327C9.0094 7.46719 7.14097 8.27343 4.33833 9.50198C3.89042 9.68115 3.65367 9.85391 3.62807 10.0203C3.61528 10.1611 3.68566 10.2762 3.83923 10.3658C3.94161 10.417 4.14637 10.4938 4.45351 10.5962L4.66467 10.6538C5.36853 10.8841 5.87083 11.0025 6.17157 11.0089C6.47231 11.0153 6.81464 10.8905 7.19856 10.6346C9.80924 8.86851 11.1594 7.97269 11.249 7.94709C11.3385 7.9215 11.4057 7.9279 11.4505 7.96629C11.4953 8.00468 11.5113 8.06227 11.4985 8.13906C11.4729 8.24144 10.7307 8.97089 9.27175 10.3274L8.61908 10.9417C8.42712 11.1337 8.29914 11.2744 8.23515 11.364C8.14557 11.5048 8.12638 11.6456 8.17756 11.7863C8.22875 11.9271 8.38232 12.0807 8.63827 12.247L8.88782 12.4198C9.88602 13.0725 10.6283 13.5716 11.1146 13.9171C11.3705 14.0963 11.5625 14.2178 11.6905 14.2818C11.908 14.3842 12.1128 14.429 12.3047 14.4162C12.6247 14.3778 12.8422 14.0515 12.9574 13.4372C13.1494 12.3878 13.3541 11.2104 13.5717 9.9051C13.8276 8.34381 13.9876 7.21764 14.0516 6.52658C14.0644 6.4114 14.058 6.28983 14.0324 6.16185C14.0068 6.03388 13.962 5.94429 13.898 5.8931C13.7956 5.81632 13.6677 5.77793 13.5141 5.77793C13.3349 5.77793 13.0278 5.86111 12.5927 6.02748C12.132 6.19384 11.249 6.54577 9.94361 7.08327Z" fill="#051945"/>
</svg>
