<svg width="20" height="20" viewBox="0 0 20 20" fill="none" xmlns="http://www.w3.org/2000/svg">
<path d="M5.04859 15.8126L5.73965 16.2151C6.92981 16.9051 8.21916 17.2501 9.60768 17.2501C10.9962 17.2501 12.2855 16.8987 13.4757 16.1959C14.6275 15.5187 15.5425 14.6051 16.2208 13.4551C16.9246 12.2667 17.2765 10.9762 17.2765 9.58341C17.2765 8.19064 16.9246 6.90008 16.2208 5.71175C15.5425 4.56175 14.6275 3.64814 13.4757 2.97091C12.2855 2.26814 10.993 1.91675 9.59808 1.91675C8.20316 1.91675 6.91062 2.26814 5.72046 2.97091C4.56869 3.64814 3.65367 4.56175 2.97541 5.71175C2.27155 6.90008 1.91962 8.18744 1.91962 9.57383C1.91962 10.9602 2.26515 12.2476 2.95621 13.4359L3.35933 14.1259L2.74505 16.4259L5.04859 15.8126ZM0 19.1667L1.30534 14.4134C0.883023 13.6851 0.559888 12.9152 0.335933 12.1038C0.111978 11.2924 0 10.4523 0 9.58341C0 8.28008 0.24955 7.03425 0.74865 5.84591C1.23495 4.70869 1.92282 3.69605 2.81224 2.808C3.70166 1.91994 4.71586 1.23314 5.85483 0.747581C7.04499 0.249249 8.29274 8.01086e-05 9.59808 8.01086e-05C10.9034 8.01086e-05 12.1512 0.249249 13.3413 0.747581C14.4803 1.23314 15.4945 1.91994 16.3839 2.808C17.2733 3.69605 17.9612 4.70869 18.4475 5.84591C18.9466 7.03425 19.1962 8.28008 19.1962 9.58341C19.1962 10.8867 18.9466 12.1326 18.4475 13.3209C17.9612 14.4581 17.2733 15.4708 16.3839 16.3588C15.4945 17.2469 14.4803 17.9337 13.3413 18.4192C12.1512 18.9176 10.9034 19.1667 9.59808 19.1667C8.72785 19.1667 7.88642 19.0549 7.07379 18.8313C6.26115 18.6077 5.4901 18.2851 4.76065 17.8634L0 19.1667ZM6.14277 5.07925C6.27075 5.07925 6.39872 5.07925 6.5267 5.07925L6.68026 5.09841C6.75705 5.11119 6.83063 5.13994 6.90102 5.18466C6.97141 5.22939 7.0194 5.2773 7.04499 5.32841C7.33933 5.98008 7.62088 6.63175 7.88962 7.28341C7.95361 7.43675 7.92162 7.60925 7.79364 7.80091C7.72965 7.91591 7.64647 8.0373 7.54409 8.16508L7.19856 8.54841L7.16017 8.62508C7.13457 8.68897 7.12817 8.74647 7.14097 8.79758C7.15377 8.84869 7.18576 8.91897 7.23695 9.00841L7.29454 9.10425C7.55049 9.52591 7.87683 9.92841 8.27355 10.3117L8.61908 10.6376C9.07978 11.0465 9.58528 11.3659 10.1356 11.5959L10.3851 11.7109C10.4491 11.7365 10.5067 11.7556 10.5579 11.7684L10.6347 11.7876C10.7371 11.7876 10.833 11.7429 10.9226 11.6534C11.4089 11.0529 11.6585 10.7526 11.6713 10.7526C11.7608 10.6631 11.8824 10.6248 12.036 10.6376C12.1 10.6376 12.1576 10.6504 12.2088 10.6759L14.1092 11.5192C14.1604 11.5448 14.2052 11.5799 14.2436 11.6247C14.2819 11.6694 14.3011 11.7173 14.3011 11.7684V11.7876C14.3011 11.9026 14.2947 12.0176 14.2819 12.1326C14.2436 12.4265 14.186 12.6629 14.1092 12.8417C14.058 12.944 13.9876 13.0398 13.898 13.1292C13.8084 13.2187 13.7061 13.3081 13.5909 13.3976L13.4757 13.4934C13.3605 13.5573 13.2326 13.6276 13.0918 13.7042C12.8486 13.832 12.5863 13.9023 12.3047 13.9151H12.228C12.0232 13.9279 11.8696 13.9342 11.7672 13.9342L11.2106 13.8384C9.82843 13.4806 8.59988 12.829 7.5249 11.8834C7.40972 11.7812 7.23695 11.6151 7.0066 11.3851L6.91062 11.2892C6.06599 10.4459 5.43891 9.57064 5.02939 8.66341C4.81184 8.19064 4.70306 7.73703 4.70306 7.30258C4.70306 6.70203 4.88222 6.16536 5.24055 5.69258L5.27894 5.65425C5.35573 5.55203 5.42612 5.46897 5.4901 5.40508C5.60528 5.29008 5.70126 5.21341 5.77804 5.17508C5.88042 5.12397 6.002 5.09203 6.14277 5.07925Z" fill="#051945"/>
</svg>
