<svg width="15" height="14" viewBox="0 0 15 14" fill="none" xmlns="http://www.w3.org/2000/svg">
<path d="M0.75 0H14.25C14.46 0 14.6375 0.0751848 14.7825 0.225555C14.9275 0.375926 15 0.559999 15 0.777778V13.2222C15 13.44 14.9275 13.6241 14.7825 13.7744C14.6375 13.9248 14.46 14 14.25 14H0.75C0.54 14 0.3625 13.9248 0.2175 13.7744C0.0725 13.6241 0 13.44 0 13.2222V0.777778C0 0.559999 0.0725 0.375926 0.2175 0.225555C0.3625 0.0751848 0.54 0 0.75 0ZM13.5 3.29778L7.56 8.82L1.5 3.28222V12.4444H13.5V3.29778ZM1.89 1.55556L7.545 6.73556L13.125 1.55556H1.89Z" fill="#9CA3AF"/>
</svg>
