<svg width="15" height="15" viewBox="0 0 15 15" fill="none" xmlns="http://www.w3.org/2000/svg">
<path d="M5.3 6.4C5.68889 7.08889 6.16389 7.71389 6.725 8.275C7.28611 8.83611 7.91111 9.31111 8.6 9.7L9.33333 8.66667C9.45556 8.48889 9.61944 8.37778 9.825 8.33333C10.0306 8.28889 10.2278 8.31667 10.4167 8.41667C11.6056 9.07222 12.8778 9.45 14.2333 9.55C14.4444 9.57222 14.625 9.66111 14.775 9.81667C14.925 9.97222 15 10.1611 15 10.3833V14.1C15 14.3111 14.9278 14.4972 14.7833 14.6583C14.6389 14.8194 14.4611 14.9111 14.25 14.9333C13.8056 14.9778 13.3611 15 12.9167 15C11.1611 15 9.48333 14.6611 7.88333 13.9833C6.33889 13.3278 4.97222 12.4056 3.78333 11.2167C2.59444 10.0278 1.67222 8.66111 1.01667 7.11667C0.338889 5.51667 0 3.83889 0 2.08333C0 1.63889 0.0222222 1.19444 0.0666667 0.749999C0.0888889 0.538888 0.180556 0.361111 0.341667 0.216666C0.502778 0.0722218 0.688889 -9.53674e-07 0.9 -9.53674e-07H4.61667C4.83889 -9.53674e-07 5.02778 0.0749989 5.18333 0.224999C5.33889 0.374999 5.42778 0.555554 5.45 0.766665C5.55 2.12222 5.92778 3.39444 6.58333 4.58333C6.68333 4.77222 6.71111 4.96944 6.66667 5.175C6.62222 5.38056 6.51111 5.54444 6.33333 5.66667L5.3 6.4ZM3.2 5.85L4.78333 4.71667C4.33889 3.75 4.03333 2.73333 3.86667 1.66667H1.66667V2.08333C1.66667 3.60555 1.96111 5.06667 2.55 6.46667C3.11667 7.81111 3.91944 9.00278 4.95833 10.0417C5.99722 11.0806 7.18889 11.8833 8.53333 12.45C9.93333 13.0389 11.3944 13.3333 12.9167 13.3333H13.3333V11.1333C12.2667 10.9667 11.25 10.6611 10.2833 10.2167L9.15 11.8C8.69444 11.6222 8.25 11.4111 7.81667 11.1667L7.76667 11.15C6.95556 10.6833 6.21667 10.1167 5.55 9.45C4.88333 8.78333 4.31667 8.04444 3.85 7.23333L3.83333 7.18333C3.58889 6.75 3.37778 6.30556 3.2 5.85Z" fill="#9CA3AF"/>
</svg>
