<svg width="15" height="18" viewBox="0 0 15 18" fill="none" xmlns="http://www.w3.org/2000/svg">
<path d="M7.5 15.6641L11.6167 11.5555C12.3722 10.8155 12.8833 9.94294 13.15 8.93787C13.4056 7.9549 13.4056 6.97193 13.15 5.98896C12.8833 4.98389 12.375 4.10861 11.625 3.36309C10.875 2.61758 9.99444 2.11229 8.98333 1.84722C7.99444 1.59319 7.00556 1.59319 6.01667 1.84722C5.00556 2.11229 4.125 2.61758 3.375 3.36309C2.625 4.10861 2.11667 4.98389 1.85 5.98896C1.59444 6.97193 1.59444 7.9549 1.85 8.93787C2.11667 9.94294 2.62778 10.8155 3.38333 11.5555L7.5 15.6641ZM7.5 18L2.2 12.7317C1.23333 11.7819 0.583333 10.6553 0.25 9.35205C-0.0833333 8.09296 -0.0833333 6.83387 0.25 5.57478C0.583333 4.27151 1.23056 3.1422 2.19167 2.18684C3.15278 1.23148 4.28889 0.582605 5.6 0.240221C6.86667 -0.0800743 8.13333 -0.0800743 9.4 0.240221C10.7111 0.582605 11.8472 1.23148 12.8083 2.18684C13.7694 3.1422 14.4167 4.27151 14.75 5.57478C15.0833 6.83387 15.0833 8.09296 14.75 9.35205C14.4167 10.6553 13.7667 11.7819 12.8 12.7317L7.5 18ZM7.5 9.12011C7.8 9.12011 8.07778 9.04556 8.33333 8.89646C8.58889 8.74735 8.79167 8.54579 8.94167 8.29176C9.09167 8.03774 9.16667 7.76162 9.16667 7.46341C9.16667 7.16521 9.09167 6.88909 8.94167 6.63507C8.79167 6.38104 8.58889 6.17947 8.33333 6.03037C8.07778 5.88127 7.8 5.80672 7.5 5.80672C7.2 5.80672 6.92222 5.88127 6.66667 6.03037C6.41111 6.17947 6.20833 6.38104 6.05833 6.63507C5.90833 6.88909 5.83333 7.16521 5.83333 7.46341C5.83333 7.76162 5.90833 8.03774 6.05833 8.29176C6.20833 8.54579 6.41111 8.74735 6.66667 8.89646C6.92222 9.04556 7.2 9.12011 7.5 9.12011ZM7.5 10.7768C6.9 10.7768 6.34444 10.6277 5.83333 10.3295C5.32222 10.0313 4.91667 9.62816 4.61667 9.12011C4.31667 8.61206 4.16667 8.05706 4.16667 7.45513C4.16667 6.8532 4.31667 6.30097 4.61667 5.79844C4.91667 5.2959 5.32222 4.89554 5.83333 4.59733C6.34444 4.29913 6.9 4.15002 7.5 4.15002C8.1 4.15002 8.65556 4.29913 9.16667 4.59733C9.67778 4.89554 10.0833 5.2959 10.3833 5.79844C10.6833 6.30097 10.8333 6.8532 10.8333 7.45513C10.8333 8.05706 10.6833 8.61206 10.3833 9.12011C10.0833 9.62816 9.67778 10.0313 9.16667 10.3295C8.65556 10.6277 8.1 10.7768 7.5 10.7768Z" fill="#9CA3AF"/>
</svg>
