<svg width="21" height="22" viewBox="0 0 21 22" fill="none" xmlns="http://www.w3.org/2000/svg">
<path d="M18.5003 6.13379L10.0003 10.856M10.0003 10.856L1.50033 6.13379M10.0003 10.856L10.0004 20.356M12.0004 19.7449L10.7774 20.4244C10.4938 20.5819 10.352 20.6607 10.2018 20.6916C10.0689 20.7189 9.93183 20.7189 9.79892 20.6916C9.64875 20.6607 9.50694 20.5819 9.22334 20.4244L1.82334 16.3132C1.52382 16.1469 1.37405 16.0636 1.265 15.9453C1.16852 15.8406 1.09551 15.7165 1.05085 15.5814C1.00037 15.4286 1.00037 15.2572 1.00037 14.9146V6.79749C1.00037 6.45485 1.00037 6.28352 1.05085 6.13073C1.09551 5.99555 1.16852 5.87147 1.265 5.76678C1.37405 5.64844 1.52382 5.56524 1.82334 5.39884L9.22334 1.28772C9.50694 1.13017 9.64875 1.05139 9.79892 1.0205C9.93183 0.993166 10.0689 0.993166 10.2018 1.0205C10.352 1.05139 10.4938 1.13017 10.7774 1.28772L18.1774 5.39883C18.4769 5.56524 18.6267 5.64844 18.7357 5.76678C18.8322 5.87147 18.9052 5.99555 18.9499 6.13072C19.0004 6.28352 19.0004 6.45484 19.0004 6.79749L19.0004 11.356M5.50037 3.35604L14.5004 8.35604M14.0004 16.856L16.0004 18.856L20.0004 14.856" stroke="white" stroke-width="2" stroke-linecap="round" stroke-linejoin="round"/>
</svg>
